<?xml version="1.0" encoding="utf-8" standalone="no"?>
<!DOCTYPE svg PUBLIC "-//W3C//DTD SVG 1.1//EN"
  "http://www.w3.org/Graphics/SVG/1.1/DTD/svg11.dtd">
<svg xmlns:xlink="http://www.w3.org/1999/xlink" width="216pt" height="216pt" viewBox="0 0 216 216" xmlns="http://www.w3.org/2000/svg" version="1.1">
 <metadata>
  <rdf:RDF xmlns:dc="http://purl.org/dc/elements/1.1/" xmlns:cc="http://creativecommons.org/ns#" xmlns:rdf="http://www.w3.org/1999/02/22-rdf-syntax-ns#">
   <cc:Work>
    <dc:type rdf:resource="http://purl.org/dc/dcmitype/StillImage"/>
    <dc:date>2025-06-30T13:29:47.890573</dc:date>
    <dc:format>image/svg+xml</dc:format>
    <dc:creator>
     <cc:Agent>
      <dc:title>Matplotlib v3.6.2, https://matplotlib.org/</dc:title>
     </cc:Agent>
    </dc:creator>
   </cc:Work>
  </rdf:RDF>
 </metadata>
 <defs>
  <style type="text/css">*{stroke-linejoin: round; stroke-linecap: butt}</style>
 </defs>
 <g id="figure_1">
  <g id="patch_1">
   <path d="M 0 216 
L 216 216 
L 216 0 
L 0 0 
z
" style="fill: #ffffff"/>
  </g>
  <g id="axes_1">
   <g id="LineCollection_1">
    <path d="M 27.092 74.549 
L 11.57581 74.549 
L 11.57581 147.863 
L 27.092 147.863 
" clip-path="url(#p09adb5723c)" style="fill: none; stroke: #333333; stroke-width: 0.5"/>
   </g>
  </g>
  <g id="axes_2">
   <g id="LineCollection_2">
    <path d="M 74.549 27.092 
L 74.549 11.57581 
L 147.863 11.57581 
L 147.863 27.092 
" clip-path="url(#p705a514d7b)" style="fill: none; stroke: #333333; stroke-width: 0.5"/>
   </g>
  </g>
  <g id="axes_3">
   <g id="patch_2">
    <path d="M 37.892 184.52 
L 184.52 184.52 
L 184.52 37.892 
L 37.892 37.892 
z
" style="fill: #ffffff"/>
   </g>
   <g id="QuadMesh_1">
    <path d="M 37.892 37.892 
L 111.206 37.892 
L 111.206 111.206 
L 37.892 111.206 
L 37.892 37.892 
" clip-path="url(#p07c7ccaa99)" style="fill: #053061"/>
    <path d="M 111.206 37.892 
L 184.52 37.892 
L 184.52 111.206 
L 111.206 111.206 
L 111.206 37.892 
" clip-path="url(#p07c7ccaa99)" style="fill: #8a0b25"/>
    <path d="M 37.892 111.206 
L 111.206 111.206 
L 111.206 184.52 
L 37.892 184.52 
L 37.892 111.206 
" clip-path="url(#p07c7ccaa99)" style="fill: #b1182b"/>
    <path d="M 111.206 111.206 
L 184.52 111.206 
L 184.52 184.52 
L 111.206 184.52 
L 111.206 111.206 
" clip-path="url(#p07c7ccaa99)" style="fill: #8a0b25"/>
   </g>
   <g id="QuadMesh_2">
    <path d="M 37.892 37.892 
L 111.206 37.892 
L 111.206 111.206 
L 37.892 111.206 
L 37.892 37.892 
" clip-path="url(#p07c7ccaa99)" style="fill: none"/>
    <path d="M 111.206 37.892 
L 184.52 37.892 
L 184.52 111.206 
L 111.206 111.206 
L 111.206 37.892 
" clip-path="url(#p07c7ccaa99)" style="fill: #8a0b25"/>
    <path d="M 37.892 111.206 
L 111.206 111.206 
L 111.206 184.52 
L 37.892 184.52 
L 37.892 111.206 
" clip-path="url(#p07c7ccaa99)" style="fill: none"/>
    <path d="M 111.206 111.206 
L 184.52 111.206 
L 184.52 184.52 
L 111.206 184.52 
L 111.206 111.206 
" clip-path="url(#p07c7ccaa99)" style="fill: none"/>
   </g>
   <g id="QuadMesh_3">
    <path d="M 37.892 37.892 
L 111.206 37.892 
L 111.206 111.206 
L 37.892 111.206 
L 37.892 37.892 
" clip-path="url(#p07c7ccaa99)" style="fill: none"/>
    <path d="M 111.206 37.892 
L 184.52 37.892 
L 184.52 111.206 
L 111.206 111.206 
L 111.206 37.892 
" clip-path="url(#p07c7ccaa99)" style="fill: none"/>
    <path d="M 37.892 111.206 
L 111.206 111.206 
L 111.206 184.52 
L 37.892 184.52 
L 37.892 111.206 
" clip-path="url(#p07c7ccaa99)" style="fill: #470f84"/>
    <path d="M 111.206 111.206 
L 184.52 111.206 
L 184.52 184.52 
L 111.206 184.52 
L 111.206 111.206 
" clip-path="url(#p07c7ccaa99)" style="fill: none"/>
   </g>
   <g id="QuadMesh_4">
    <path d="M 37.892 37.892 
L 111.206 37.892 
L 111.206 111.206 
L 37.892 111.206 
L 37.892 37.892 
" clip-path="url(#p07c7ccaa99)"/>
    <path d="M 111.206 37.892 
L 184.52 37.892 
L 184.52 111.206 
L 111.206 111.206 
L 111.206 37.892 
" clip-path="url(#p07c7ccaa99)" style="fill: none"/>
    <path d="M 37.892 111.206 
L 111.206 111.206 
L 111.206 184.52 
L 37.892 184.52 
L 37.892 111.206 
" clip-path="url(#p07c7ccaa99)" style="fill: none"/>
    <path d="M 111.206 111.206 
L 184.52 111.206 
L 184.52 184.52 
L 111.206 184.52 
L 111.206 111.206 
" clip-path="url(#p07c7ccaa99)"/>
   </g>
   <g id="matplotlib.axis_1">
    <g id="xtick_1">
     <g id="line2d_1">
      <defs>
       <path id="mb46327ccb4" d="M 0 0 
L 0 3.5 
" style="stroke: #000000; stroke-width: 0.8"/>
      </defs>
      <g>
       <use xlink:href="#mb46327ccb4" x="74.549" y="184.52" style="stroke: #000000; stroke-width: 0.8"/>
      </g>
     </g>
     <g id="text_1">
      <text style="font: 14px 'Arial', 'Helvetica', 'DejaVu Sans', sans-serif; text-anchor: middle" x="74.549" y="202.157813" transform="rotate(-0 74.549 202.157813)">Gene 1</text>
     </g>
    </g>
    <g id="xtick_2">
     <g id="line2d_2">
      <g>
       <use xlink:href="#mb46327ccb4" x="147.863" y="184.52" style="stroke: #000000; stroke-width: 0.8"/>
      </g>
     </g>
     <g id="text_2">
      <text style="font: 14px 'Arial', 'Helvetica', 'DejaVu Sans', sans-serif; text-anchor: middle" x="147.863" y="202.157813" transform="rotate(-0 147.863 202.157813)">Gene 2</text>
     </g>
    </g>
   </g>
   <g id="matplotlib.axis_2">
    <g id="ytick_1">
     <g id="line2d_3">
      <defs>
       <path id="m846a015480" d="M 0 0 
L 3.5 0 
" style="stroke: #000000; stroke-width: 0.8"/>
      </defs>
      <g>
       <use xlink:href="#m846a015480" x="184.52" y="74.549" style="stroke: #000000; stroke-width: 0.8"/>
      </g>
     </g>
     <g id="text_3">
      <text style="font: 14px 'Arial', 'Helvetica', 'DejaVu Sans', sans-serif" transform="translate(202.157812 99.701969) rotate(-90)">Gene 1</text>
     </g>
    </g>
    <g id="ytick_2">
     <g id="line2d_4">
      <g>
       <use xlink:href="#m846a015480" x="184.52" y="147.863" style="stroke: #000000; stroke-width: 0.8"/>
      </g>
     </g>
     <g id="text_4">
      <text style="font: 14px 'Arial', 'Helvetica', 'DejaVu Sans', sans-serif" transform="translate(202.157812 173.015969) rotate(-90)">Gene 2</text>
     </g>
    </g>
   </g>
   <g id="text_5">
    <text style="fill: #ffffff; font: 20px 'Arial', 'Helvetica', 'DejaVu Sans', sans-serif; text-anchor: middle" x="147.863" y="80.06775" transform="rotate(-0 147.863 80.06775)">0.05</text>
   </g>
   <g id="text_6">
    <text style="fill: #ffffff; font: 20px 'Arial', 'Helvetica', 'DejaVu Sans', sans-serif; text-anchor: middle" x="74.549" y="153.38175" transform="rotate(-0 74.549 153.38175)">0.95</text>
   </g>
   <g id="text_7">
    <text style="fill: #ffffff; font: 20px 'Arial', 'Helvetica', 'DejaVu Sans', sans-serif; text-anchor: middle" x="74.549" y="80.06775" transform="rotate(-0 74.549 80.06775)">1</text>
   </g>
   <g id="text_8">
    <text style="fill: #ffffff; font: 20px 'Arial', 'Helvetica', 'DejaVu Sans', sans-serif; text-anchor: middle" x="147.863" y="153.38175" transform="rotate(-0 147.863 153.38175)">1</text>
   </g>
  </g>
 </g>
 <defs>
  <clipPath id="p09adb5723c">
   <rect x="10.8" y="37.892" width="16.292" height="146.628"/>
  </clipPath>
  <clipPath id="p705a514d7b">
   <rect x="37.892" y="10.8" width="146.628" height="16.292"/>
  </clipPath>
  <clipPath id="p07c7ccaa99">
   <rect x="37.892" y="37.892" width="146.628" height="146.628"/>
  </clipPath>
 </defs>
</svg>
