<?xml version="1.0" encoding="utf-8" standalone="no"?>
<!DOCTYPE svg PUBLIC "-//W3C//DTD SVG 1.1//EN"
  "http://www.w3.org/Graphics/SVG/1.1/DTD/svg11.dtd">
<svg xmlns:xlink="http://www.w3.org/1999/xlink" width="360pt" height="360pt" viewBox="0 0 360 360" xmlns="http://www.w3.org/2000/svg" version="1.1">
 <metadata>
  <rdf:RDF xmlns:dc="http://purl.org/dc/elements/1.1/" xmlns:cc="http://creativecommons.org/ns#" xmlns:rdf="http://www.w3.org/1999/02/22-rdf-syntax-ns#">
   <cc:Work>
    <dc:type rdf:resource="http://purl.org/dc/dcmitype/StillImage"/>
    <dc:date>2025-06-30T13:29:42.066520</dc:date>
    <dc:format>image/svg+xml</dc:format>
    <dc:creator>
     <cc:Agent>
      <dc:title>Matplotlib v3.6.2, https://matplotlib.org/</dc:title>
     </cc:Agent>
    </dc:creator>
   </cc:Work>
  </rdf:RDF>
 </metadata>
 <defs>
  <style type="text/css">*{stroke-linejoin: round; stroke-linecap: butt}</style>
 </defs>
 <g id="figure_1">
  <g id="patch_1">
   <path d="M 0 360 
L 360 360 
L 360 0 
L 0 0 
z
" style="fill: #ffffff"/>
  </g>
  <g id="axes_1">
   <g id="LineCollection_1">
    <path d="M 41.492 224.9345 
L 21.517773 224.9345 
L 21.517773 293.9915 
L 41.492 293.9915 
" clip-path="url(#p85fe25f925)" style="fill: none; stroke: #333333; stroke-width: 0.5"/>
    <path d="M 41.492 155.8775 
L 16.465004 155.8775 
L 16.465004 259.463 
L 21.517773 259.463 
" clip-path="url(#p85fe25f925)" style="fill: none; stroke: #333333; stroke-width: 0.5"/>
    <path d="M 41.492 86.8205 
L 12.261524 86.8205 
L 12.261524 207.67025 
L 16.465004 207.67025 
" clip-path="url(#p85fe25f925)" style="fill: none; stroke: #333333; stroke-width: 0.5"/>
   </g>
  </g>
  <g id="axes_2">
   <g id="LineCollection_2">
    <path d="M 224.9345 41.492 
L 224.9345 21.517772 
L 293.9915 21.517772 
L 293.9915 41.492 
" clip-path="url(#pa0dbe8e74b)" style="fill: none; stroke: #333333; stroke-width: 0.5"/>
    <path d="M 155.8775 41.492 
L 155.8775 16.465004 
L 259.463 16.465004 
L 259.463 21.517772 
" clip-path="url(#pa0dbe8e74b)" style="fill: none; stroke: #333333; stroke-width: 0.5"/>
    <path d="M 86.8205 41.492 
L 86.8205 12.261524 
L 207.67025 12.261524 
L 207.67025 16.465004 
" clip-path="url(#pa0dbe8e74b)" style="fill: none; stroke: #333333; stroke-width: 0.5"/>
   </g>
  </g>
  <g id="axes_3">
   <g id="patch_2">
    <path d="M 52.292 328.52 
L 328.52 328.52 
L 328.52 52.292 
L 52.292 52.292 
z
" style="fill: #ffffff"/>
   </g>
   <g id="QuadMesh_1">
    <path d="M 52.292 52.292 
L 121.349 52.292 
L 121.349 121.349 
L 52.292 121.349 
L 52.292 52.292 
" clip-path="url(#pb27c421a53)" style="fill: #67001f"/>
    <path d="M 121.349 52.292 
L 190.406 52.292 
L 190.406 121.349 
L 121.349 121.349 
L 121.349 52.292 
" clip-path="url(#pb27c421a53)" style="fill: #0a3b70"/>
    <path d="M 190.406 52.292 
L 259.463 52.292 
L 259.463 121.349 
L 190.406 121.349 
L 190.406 52.292 
" clip-path="url(#pb27c421a53)" style="fill: #f9eee7"/>
    <path d="M 259.463 52.292 
L 328.52 52.292 
L 328.52 121.349 
L 259.463 121.349 
L 259.463 52.292 
" clip-path="url(#pb27c421a53)" style="fill: #0a3b70"/>
    <path d="M 52.292 121.349 
L 121.349 121.349 
L 121.349 190.406 
L 52.292 190.406 
L 52.292 121.349 
" clip-path="url(#pb27c421a53)" style="fill: #0a3b70"/>
    <path d="M 121.349 121.349 
L 190.406 121.349 
L 190.406 190.406 
L 121.349 190.406 
L 121.349 121.349 
" clip-path="url(#pb27c421a53)" style="fill: #67001f"/>
    <path d="M 190.406 121.349 
L 259.463 121.349 
L 259.463 190.406 
L 190.406 190.406 
L 190.406 121.349 
" clip-path="url(#pb27c421a53)" style="fill: #d86551"/>
    <path d="M 259.463 121.349 
L 328.52 121.349 
L 328.52 190.406 
L 259.463 190.406 
L 259.463 121.349 
" clip-path="url(#pb27c421a53)" style="fill: #0f437b"/>
    <path d="M 52.292 190.406 
L 121.349 190.406 
L 121.349 259.463 
L 52.292 259.463 
L 52.292 190.406 
" clip-path="url(#pb27c421a53)" style="fill: #f9eee7"/>
    <path d="M 121.349 190.406 
L 190.406 190.406 
L 190.406 259.463 
L 121.349 259.463 
L 121.349 190.406 
" clip-path="url(#pb27c421a53)" style="fill: #d86551"/>
    <path d="M 190.406 190.406 
L 259.463 190.406 
L 259.463 259.463 
L 190.406 259.463 
L 190.406 190.406 
" clip-path="url(#pb27c421a53)" style="fill: #67001f"/>
    <path d="M 259.463 190.406 
L 328.52 190.406 
L 328.52 259.463 
L 259.463 259.463 
L 259.463 190.406 
" clip-path="url(#pb27c421a53)" style="fill: #c84440"/>
    <path d="M 52.292 259.463 
L 121.349 259.463 
L 121.349 328.52 
L 52.292 328.52 
L 52.292 259.463 
" clip-path="url(#pb27c421a53)" style="fill: #0a3b70"/>
    <path d="M 121.349 259.463 
L 190.406 259.463 
L 190.406 328.52 
L 121.349 328.52 
L 121.349 259.463 
" clip-path="url(#pb27c421a53)" style="fill: #0f437b"/>
    <path d="M 190.406 259.463 
L 259.463 259.463 
L 259.463 328.52 
L 190.406 328.52 
L 190.406 259.463 
" clip-path="url(#pb27c421a53)" style="fill: #c84440"/>
    <path d="M 259.463 259.463 
L 328.52 259.463 
L 328.52 328.52 
L 259.463 328.52 
L 259.463 259.463 
" clip-path="url(#pb27c421a53)" style="fill: #67001f"/>
   </g>
   <g id="QuadMesh_2">
    <path d="M 52.292 52.292 
L 121.349 52.292 
L 121.349 121.349 
L 52.292 121.349 
L 52.292 52.292 
" clip-path="url(#pb27c421a53)" style="fill: none"/>
    <path d="M 121.349 52.292 
L 190.406 52.292 
L 190.406 121.349 
L 121.349 121.349 
L 121.349 52.292 
" clip-path="url(#pb27c421a53)" style="fill: #0a3b70"/>
    <path d="M 190.406 52.292 
L 259.463 52.292 
L 259.463 121.349 
L 190.406 121.349 
L 190.406 52.292 
" clip-path="url(#pb27c421a53)" style="fill: #f9eee7"/>
    <path d="M 259.463 52.292 
L 328.52 52.292 
L 328.52 121.349 
L 259.463 121.349 
L 259.463 52.292 
" clip-path="url(#pb27c421a53)" style="fill: #0a3b70"/>
    <path d="M 52.292 121.349 
L 121.349 121.349 
L 121.349 190.406 
L 52.292 190.406 
L 52.292 121.349 
" clip-path="url(#pb27c421a53)" style="fill: none"/>
    <path d="M 121.349 121.349 
L 190.406 121.349 
L 190.406 190.406 
L 121.349 190.406 
L 121.349 121.349 
" clip-path="url(#pb27c421a53)" style="fill: none"/>
    <path d="M 190.406 121.349 
L 259.463 121.349 
L 259.463 190.406 
L 190.406 190.406 
L 190.406 121.349 
" clip-path="url(#pb27c421a53)" style="fill: #d86551"/>
    <path d="M 259.463 121.349 
L 328.52 121.349 
L 328.52 190.406 
L 259.463 190.406 
L 259.463 121.349 
" clip-path="url(#pb27c421a53)" style="fill: #0f437b"/>
    <path d="M 52.292 190.406 
L 121.349 190.406 
L 121.349 259.463 
L 52.292 259.463 
L 52.292 190.406 
" clip-path="url(#pb27c421a53)" style="fill: none"/>
    <path d="M 121.349 190.406 
L 190.406 190.406 
L 190.406 259.463 
L 121.349 259.463 
L 121.349 190.406 
" clip-path="url(#pb27c421a53)" style="fill: none"/>
    <path d="M 190.406 190.406 
L 259.463 190.406 
L 259.463 259.463 
L 190.406 259.463 
L 190.406 190.406 
" clip-path="url(#pb27c421a53)" style="fill: none"/>
    <path d="M 259.463 190.406 
L 328.52 190.406 
L 328.52 259.463 
L 259.463 259.463 
L 259.463 190.406 
" clip-path="url(#pb27c421a53)" style="fill: #c84440"/>
    <path d="M 52.292 259.463 
L 121.349 259.463 
L 121.349 328.52 
L 52.292 328.52 
L 52.292 259.463 
" clip-path="url(#pb27c421a53)" style="fill: none"/>
    <path d="M 121.349 259.463 
L 190.406 259.463 
L 190.406 328.52 
L 121.349 328.52 
L 121.349 259.463 
" clip-path="url(#pb27c421a53)" style="fill: none"/>
    <path d="M 190.406 259.463 
L 259.463 259.463 
L 259.463 328.52 
L 190.406 328.52 
L 190.406 259.463 
" clip-path="url(#pb27c421a53)" style="fill: none"/>
    <path d="M 259.463 259.463 
L 328.52 259.463 
L 328.52 328.52 
L 259.463 328.52 
L 259.463 259.463 
" clip-path="url(#pb27c421a53)" style="fill: none"/>
   </g>
   <g id="QuadMesh_3">
    <path d="M 52.292 52.292 
L 121.349 52.292 
L 121.349 121.349 
L 52.292 121.349 
L 52.292 52.292 
" clip-path="url(#pb27c421a53)" style="fill: none"/>
    <path d="M 121.349 52.292 
L 190.406 52.292 
L 190.406 121.349 
L 121.349 121.349 
L 121.349 52.292 
" clip-path="url(#pb27c421a53)" style="fill: none"/>
    <path d="M 190.406 52.292 
L 259.463 52.292 
L 259.463 121.349 
L 190.406 121.349 
L 190.406 52.292 
" clip-path="url(#pb27c421a53)" style="fill: none"/>
    <path d="M 259.463 52.292 
L 328.52 52.292 
L 328.52 121.349 
L 259.463 121.349 
L 259.463 52.292 
" clip-path="url(#pb27c421a53)" style="fill: none"/>
    <path d="M 52.292 121.349 
L 121.349 121.349 
L 121.349 190.406 
L 52.292 190.406 
L 52.292 121.349 
" clip-path="url(#pb27c421a53)" style="fill: #c4c5e0"/>
    <path d="M 121.349 121.349 
L 190.406 121.349 
L 190.406 190.406 
L 121.349 190.406 
L 121.349 121.349 
" clip-path="url(#pb27c421a53)" style="fill: none"/>
    <path d="M 190.406 121.349 
L 259.463 121.349 
L 259.463 190.406 
L 190.406 190.406 
L 190.406 121.349 
" clip-path="url(#pb27c421a53)" style="fill: none"/>
    <path d="M 259.463 121.349 
L 328.52 121.349 
L 328.52 190.406 
L 259.463 190.406 
L 259.463 121.349 
" clip-path="url(#pb27c421a53)" style="fill: none"/>
    <path d="M 52.292 190.406 
L 121.349 190.406 
L 121.349 259.463 
L 52.292 259.463 
L 52.292 190.406 
" clip-path="url(#pb27c421a53)" style="fill: #a5a2cd"/>
    <path d="M 121.349 190.406 
L 190.406 190.406 
L 190.406 259.463 
L 121.349 259.463 
L 121.349 190.406 
" clip-path="url(#pb27c421a53)" style="fill: #e0e0ee"/>
    <path d="M 190.406 190.406 
L 259.463 190.406 
L 259.463 259.463 
L 190.406 259.463 
L 190.406 190.406 
" clip-path="url(#pb27c421a53)" style="fill: none"/>
    <path d="M 259.463 190.406 
L 328.52 190.406 
L 328.52 259.463 
L 259.463 259.463 
L 259.463 190.406 
" clip-path="url(#pb27c421a53)" style="fill: none"/>
    <path d="M 52.292 259.463 
L 121.349 259.463 
L 121.349 328.52 
L 52.292 328.52 
L 52.292 259.463 
" clip-path="url(#pb27c421a53)" style="fill: #8380bb"/>
    <path d="M 121.349 259.463 
L 190.406 259.463 
L 190.406 328.52 
L 121.349 328.52 
L 121.349 259.463 
" clip-path="url(#pb27c421a53)" style="fill: #eceaf3"/>
    <path d="M 190.406 259.463 
L 259.463 259.463 
L 259.463 328.52 
L 190.406 328.52 
L 190.406 259.463 
" clip-path="url(#pb27c421a53)" style="fill: #ddddec"/>
    <path d="M 259.463 259.463 
L 328.52 259.463 
L 328.52 328.52 
L 259.463 328.52 
L 259.463 259.463 
" clip-path="url(#pb27c421a53)" style="fill: none"/>
   </g>
   <g id="QuadMesh_4">
    <path d="M 52.292 52.292 
L 121.349 52.292 
L 121.349 121.349 
L 52.292 121.349 
L 52.292 52.292 
" clip-path="url(#pb27c421a53)"/>
    <path d="M 121.349 52.292 
L 190.406 52.292 
L 190.406 121.349 
L 121.349 121.349 
L 121.349 52.292 
" clip-path="url(#pb27c421a53)" style="fill: none"/>
    <path d="M 190.406 52.292 
L 259.463 52.292 
L 259.463 121.349 
L 190.406 121.349 
L 190.406 52.292 
" clip-path="url(#pb27c421a53)" style="fill: none"/>
    <path d="M 259.463 52.292 
L 328.52 52.292 
L 328.52 121.349 
L 259.463 121.349 
L 259.463 52.292 
" clip-path="url(#pb27c421a53)" style="fill: none"/>
    <path d="M 52.292 121.349 
L 121.349 121.349 
L 121.349 190.406 
L 52.292 190.406 
L 52.292 121.349 
" clip-path="url(#pb27c421a53)" style="fill: none"/>
    <path d="M 121.349 121.349 
L 190.406 121.349 
L 190.406 190.406 
L 121.349 190.406 
L 121.349 121.349 
" clip-path="url(#pb27c421a53)"/>
    <path d="M 190.406 121.349 
L 259.463 121.349 
L 259.463 190.406 
L 190.406 190.406 
L 190.406 121.349 
" clip-path="url(#pb27c421a53)" style="fill: none"/>
    <path d="M 259.463 121.349 
L 328.52 121.349 
L 328.52 190.406 
L 259.463 190.406 
L 259.463 121.349 
" clip-path="url(#pb27c421a53)" style="fill: none"/>
    <path d="M 52.292 190.406 
L 121.349 190.406 
L 121.349 259.463 
L 52.292 259.463 
L 52.292 190.406 
" clip-path="url(#pb27c421a53)" style="fill: none"/>
    <path d="M 121.349 190.406 
L 190.406 190.406 
L 190.406 259.463 
L 121.349 259.463 
L 121.349 190.406 
" clip-path="url(#pb27c421a53)" style="fill: none"/>
    <path d="M 190.406 190.406 
L 259.463 190.406 
L 259.463 259.463 
L 190.406 259.463 
L 190.406 190.406 
" clip-path="url(#pb27c421a53)"/>
    <path d="M 259.463 190.406 
L 328.52 190.406 
L 328.52 259.463 
L 259.463 259.463 
L 259.463 190.406 
" clip-path="url(#pb27c421a53)" style="fill: none"/>
    <path d="M 52.292 259.463 
L 121.349 259.463 
L 121.349 328.52 
L 52.292 328.52 
L 52.292 259.463 
" clip-path="url(#pb27c421a53)" style="fill: none"/>
    <path d="M 121.349 259.463 
L 190.406 259.463 
L 190.406 328.52 
L 121.349 328.52 
L 121.349 259.463 
" clip-path="url(#pb27c421a53)" style="fill: none"/>
    <path d="M 190.406 259.463 
L 259.463 259.463 
L 259.463 328.52 
L 190.406 328.52 
L 190.406 259.463 
" clip-path="url(#pb27c421a53)" style="fill: none"/>
    <path d="M 259.463 259.463 
L 328.52 259.463 
L 328.52 328.52 
L 259.463 328.52 
L 259.463 259.463 
" clip-path="url(#pb27c421a53)"/>
   </g>
   <g id="matplotlib.axis_1">
    <g id="xtick_1">
     <g id="line2d_1">
      <defs>
       <path id="m2395f9288f" d="M 0 0 
L 0 3.5 
" style="stroke: #000000; stroke-width: 0.8"/>
      </defs>
      <g>
       <use xlink:href="#m2395f9288f" x="86.8205" y="328.52" style="stroke: #000000; stroke-width: 0.8"/>
      </g>
     </g>
     <g id="text_1">
      <text style="font: 14px 'Arial', 'Helvetica', 'DejaVu Sans', sans-serif; text-anchor: middle" x="86.8205" y="346.157812" transform="rotate(-0 86.8205 346.157812)">CHRM4</text>
     </g>
    </g>
    <g id="xtick_2">
     <g id="line2d_2">
      <g>
       <use xlink:href="#m2395f9288f" x="155.8775" y="328.52" style="stroke: #000000; stroke-width: 0.8"/>
      </g>
     </g>
     <g id="text_2">
      <text style="font: 14px 'Arial', 'Helvetica', 'DejaVu Sans', sans-serif; text-anchor: middle" x="155.8775" y="346.157812" transform="rotate(-0 155.8775 346.157812)">TSC22D1</text>
     </g>
    </g>
    <g id="xtick_3">
     <g id="line2d_3">
      <g>
       <use xlink:href="#m2395f9288f" x="224.9345" y="328.52" style="stroke: #000000; stroke-width: 0.8"/>
      </g>
     </g>
     <g id="text_3">
      <text style="font: 14px 'Arial', 'Helvetica', 'DejaVu Sans', sans-serif; text-anchor: middle" x="224.9345" y="346.157812" transform="rotate(-0 224.9345 346.157812)">MYT1</text>
     </g>
    </g>
    <g id="xtick_4">
     <g id="line2d_4">
      <g>
       <use xlink:href="#m2395f9288f" x="293.9915" y="328.52" style="stroke: #000000; stroke-width: 0.8"/>
      </g>
     </g>
     <g id="text_4">
      <text style="font: 14px 'Arial', 'Helvetica', 'DejaVu Sans', sans-serif; text-anchor: middle" x="293.9915" y="346.157812" transform="rotate(-0 293.9915 346.157812)">GPR176</text>
     </g>
    </g>
   </g>
   <g id="matplotlib.axis_2">
    <g id="ytick_1">
     <g id="line2d_5">
      <defs>
       <path id="mfb9a90bd6c" d="M 0 0 
L 3.5 0 
" style="stroke: #000000; stroke-width: 0.8"/>
      </defs>
      <g>
       <use xlink:href="#mfb9a90bd6c" x="328.52" y="86.8205" style="stroke: #000000; stroke-width: 0.8"/>
      </g>
     </g>
     <g id="text_5">
      <text style="font: 14px 'Arial', 'Helvetica', 'DejaVu Sans', sans-serif" transform="translate(346.157812 112.330031) rotate(-90)">CHRM4</text>
     </g>
    </g>
    <g id="ytick_2">
     <g id="line2d_6">
      <g>
       <use xlink:href="#mfb9a90bd6c" x="328.52" y="155.8775" style="stroke: #000000; stroke-width: 0.8"/>
      </g>
     </g>
     <g id="text_6">
      <text style="font: 14px 'Arial', 'Helvetica', 'DejaVu Sans', sans-serif" transform="translate(346.157812 188.236094) rotate(-90)">TSC22D1</text>
     </g>
    </g>
    <g id="ytick_3">
     <g id="line2d_7">
      <g>
       <use xlink:href="#mfb9a90bd6c" x="328.52" y="224.9345" style="stroke: #000000; stroke-width: 0.8"/>
      </g>
     </g>
     <g id="text_7">
      <text style="font: 14px 'Arial', 'Helvetica', 'DejaVu Sans', sans-serif" transform="translate(346.157812 243.978875) rotate(-90)">MYT1</text>
     </g>
    </g>
    <g id="ytick_4">
     <g id="line2d_8">
      <g>
       <use xlink:href="#mfb9a90bd6c" x="328.52" y="293.9915" style="stroke: #000000; stroke-width: 0.8"/>
      </g>
     </g>
     <g id="text_8">
      <text style="font: 14px 'Arial', 'Helvetica', 'DejaVu Sans', sans-serif" transform="translate(346.157812 321.861344) rotate(-90)">GPR176</text>
     </g>
    </g>
   </g>
   <g id="text_9">
    <text style="fill: #ffffff; font: 20px 'Arial', 'Helvetica', 'DejaVu Sans', sans-serif; text-anchor: middle" x="155.8775" y="92.33925" transform="rotate(-0 155.8775 92.33925)">0.98</text>
   </g>
   <g id="text_10">
    <text style="fill: #262626; font: 20px 'Arial', 'Helvetica', 'DejaVu Sans', sans-serif; text-anchor: middle" x="224.9345" y="92.33925" transform="rotate(-0 224.9345 92.33925)">0.47</text>
   </g>
   <g id="text_11">
    <text style="fill: #ffffff; font: 20px 'Arial', 'Helvetica', 'DejaVu Sans', sans-serif; text-anchor: middle" x="293.9915" y="92.33925" transform="rotate(-0 293.9915 92.33925)">0.98</text>
   </g>
   <g id="text_12">
    <text style="fill: #ffffff; font: 20px 'Arial', 'Helvetica', 'DejaVu Sans', sans-serif; text-anchor: middle" x="224.9345" y="161.39625" transform="rotate(-0 224.9345 161.39625)">0.21</text>
   </g>
   <g id="text_13">
    <text style="fill: #ffffff; font: 20px 'Arial', 'Helvetica', 'DejaVu Sans', sans-serif; text-anchor: middle" x="293.9915" y="161.39625" transform="rotate(-0 293.9915 161.39625)">0.96</text>
   </g>
   <g id="text_14">
    <text style="fill: #ffffff; font: 20px 'Arial', 'Helvetica', 'DejaVu Sans', sans-serif; text-anchor: middle" x="293.9915" y="230.45325" transform="rotate(-0 293.9915 230.45325)">0.16</text>
   </g>
   <g id="text_15">
    <text style="fill: #262626; font: 20px 'Arial', 'Helvetica', 'DejaVu Sans', sans-serif; text-anchor: middle" x="86.8205" y="161.39625" transform="rotate(-0 86.8205 161.39625)">0.34</text>
   </g>
   <g id="text_16">
    <text style="fill: #ffffff; font: 20px 'Arial', 'Helvetica', 'DejaVu Sans', sans-serif; text-anchor: middle" x="86.8205" y="230.45325" transform="rotate(-0 86.8205 230.45325)">0.47</text>
   </g>
   <g id="text_17">
    <text style="fill: #262626; font: 20px 'Arial', 'Helvetica', 'DejaVu Sans', sans-serif; text-anchor: middle" x="155.8775" y="230.45325" transform="rotate(-0 155.8775 230.45325)">0.21</text>
   </g>
   <g id="text_18">
    <text style="fill: #ffffff; font: 20px 'Arial', 'Helvetica', 'DejaVu Sans', sans-serif; text-anchor: middle" x="86.8205" y="299.51025" transform="rotate(-0 86.8205 299.51025)">0.61</text>
   </g>
   <g id="text_19">
    <text style="fill: #262626; font: 20px 'Arial', 'Helvetica', 'DejaVu Sans', sans-serif; text-anchor: middle" x="155.8775" y="299.51025" transform="rotate(-0 155.8775 299.51025)">0.15</text>
   </g>
   <g id="text_20">
    <text style="fill: #262626; font: 20px 'Arial', 'Helvetica', 'DejaVu Sans', sans-serif; text-anchor: middle" x="224.9345" y="299.51025" transform="rotate(-0 224.9345 299.51025)">0.23</text>
   </g>
   <g id="text_21">
    <text style="fill: #ffffff; font: 20px 'Arial', 'Helvetica', 'DejaVu Sans', sans-serif; text-anchor: middle" x="86.8205" y="92.33925" transform="rotate(-0 86.8205 92.33925)">1</text>
   </g>
   <g id="text_22">
    <text style="fill: #ffffff; font: 20px 'Arial', 'Helvetica', 'DejaVu Sans', sans-serif; text-anchor: middle" x="155.8775" y="161.39625" transform="rotate(-0 155.8775 161.39625)">1</text>
   </g>
   <g id="text_23">
    <text style="fill: #ffffff; font: 20px 'Arial', 'Helvetica', 'DejaVu Sans', sans-serif; text-anchor: middle" x="224.9345" y="230.45325" transform="rotate(-0 224.9345 230.45325)">1</text>
   </g>
   <g id="text_24">
    <text style="fill: #ffffff; font: 20px 'Arial', 'Helvetica', 'DejaVu Sans', sans-serif; text-anchor: middle" x="293.9915" y="299.51025" transform="rotate(-0 293.9915 299.51025)">1</text>
   </g>
  </g>
 </g>
 <defs>
  <clipPath id="p85fe25f925">
   <rect x="10.8" y="52.292" width="30.692" height="276.228"/>
  </clipPath>
  <clipPath id="pa0dbe8e74b">
   <rect x="52.292" y="10.8" width="276.228" height="30.692"/>
  </clipPath>
  <clipPath id="pb27c421a53">
   <rect x="52.292" y="52.292" width="276.228" height="276.228"/>
  </clipPath>
 </defs>
</svg>
