<?xml version="1.0" encoding="utf-8" standalone="no"?>
<!DOCTYPE svg PUBLIC "-//W3C//DTD SVG 1.1//EN"
  "http://www.w3.org/Graphics/SVG/1.1/DTD/svg11.dtd">
<svg xmlns:xlink="http://www.w3.org/1999/xlink" width="288pt" height="288pt" viewBox="0 0 288 288" xmlns="http://www.w3.org/2000/svg" version="1.1">
 <metadata>
  <rdf:RDF xmlns:dc="http://purl.org/dc/elements/1.1/" xmlns:cc="http://creativecommons.org/ns#" xmlns:rdf="http://www.w3.org/1999/02/22-rdf-syntax-ns#">
   <cc:Work>
    <dc:type rdf:resource="http://purl.org/dc/dcmitype/StillImage"/>
    <dc:date>2025-06-30T13:29:39.624318</dc:date>
    <dc:format>image/svg+xml</dc:format>
    <dc:creator>
     <cc:Agent>
      <dc:title>Matplotlib v3.6.2, https://matplotlib.org/</dc:title>
     </cc:Agent>
    </dc:creator>
   </cc:Work>
  </rdf:RDF>
 </metadata>
 <defs>
  <style type="text/css">*{stroke-linejoin: round; stroke-linecap: butt}</style>
 </defs>
 <g id="figure_1">
  <g id="patch_1">
   <path d="M 0 288 
L 288 288 
L 288 0 
L 0 0 
z
" style="fill: #ffffff"/>
  </g>
  <g id="axes_1">
   <g id="LineCollection_1">
    <path d="M 34.292 150.806 
L 15.763026 150.806 
L 15.763026 221.282 
L 34.292 221.282 
" clip-path="url(#p0630a351eb)" style="fill: none; stroke: #333333; stroke-width: 0.5"/>
    <path d="M 34.292 80.33 
L 11.918667 80.33 
L 11.918667 186.044 
L 15.763026 186.044 
" clip-path="url(#p0630a351eb)" style="fill: none; stroke: #333333; stroke-width: 0.5"/>
   </g>
  </g>
  <g id="axes_2">
   <g id="LineCollection_2">
    <path d="M 150.806 34.292 
L 150.806 15.763026 
L 221.282 15.763026 
L 221.282 34.292 
" clip-path="url(#p9b02cbbaf6)" style="fill: none; stroke: #333333; stroke-width: 0.5"/>
    <path d="M 80.33 34.292 
L 80.33 11.918667 
L 186.044 11.918667 
L 186.044 15.763026 
" clip-path="url(#p9b02cbbaf6)" style="fill: none; stroke: #333333; stroke-width: 0.5"/>
   </g>
  </g>
  <g id="axes_3">
   <g id="patch_2">
    <path d="M 45.092 256.52 
L 256.52 256.52 
L 256.52 45.092 
L 45.092 45.092 
z
" style="fill: #ffffff"/>
   </g>
   <g id="QuadMesh_1">
    <path d="M 45.092 45.092 
L 115.568 45.092 
L 115.568 115.568 
L 45.092 115.568 
L 45.092 45.092 
" clip-path="url(#pac2ffc19f9)" style="fill: #67001f"/>
    <path d="M 115.568 45.092 
L 186.044 45.092 
L 186.044 115.568 
L 115.568 115.568 
L 115.568 45.092 
" clip-path="url(#pac2ffc19f9)" style="fill: #67001f"/>
    <path d="M 186.044 45.092 
L 256.52 45.092 
L 256.52 115.568 
L 186.044 115.568 
L 186.044 45.092 
" clip-path="url(#pac2ffc19f9)" style="fill: #053061"/>
    <path d="M 45.092 115.568 
L 115.568 115.568 
L 115.568 186.044 
L 45.092 186.044 
L 45.092 115.568 
" clip-path="url(#pac2ffc19f9)" style="fill: #67001f"/>
    <path d="M 115.568 115.568 
L 186.044 115.568 
L 186.044 186.044 
L 115.568 186.044 
L 115.568 115.568 
" clip-path="url(#pac2ffc19f9)" style="fill: #67001f"/>
    <path d="M 186.044 115.568 
L 256.52 115.568 
L 256.52 186.044 
L 186.044 186.044 
L 186.044 115.568 
" clip-path="url(#pac2ffc19f9)" style="fill: #67001f"/>
    <path d="M 45.092 186.044 
L 115.568 186.044 
L 115.568 256.52 
L 45.092 256.52 
L 45.092 186.044 
" clip-path="url(#pac2ffc19f9)" style="fill: #053061"/>
    <path d="M 115.568 186.044 
L 186.044 186.044 
L 186.044 256.52 
L 115.568 256.52 
L 115.568 186.044 
" clip-path="url(#pac2ffc19f9)" style="fill: #67001f"/>
    <path d="M 186.044 186.044 
L 256.52 186.044 
L 256.52 256.52 
L 186.044 256.52 
L 186.044 186.044 
" clip-path="url(#pac2ffc19f9)" style="fill: #67001f"/>
   </g>
   <g id="QuadMesh_2">
    <path d="M 45.092 45.092 
L 115.568 45.092 
L 115.568 115.568 
L 45.092 115.568 
L 45.092 45.092 
" clip-path="url(#pac2ffc19f9)" style="fill: none"/>
    <path d="M 115.568 45.092 
L 186.044 45.092 
L 186.044 115.568 
L 115.568 115.568 
L 115.568 45.092 
" clip-path="url(#pac2ffc19f9)" style="fill: #67001f"/>
    <path d="M 186.044 45.092 
L 256.52 45.092 
L 256.52 115.568 
L 186.044 115.568 
L 186.044 45.092 
" clip-path="url(#pac2ffc19f9)" style="fill: #053061"/>
    <path d="M 45.092 115.568 
L 115.568 115.568 
L 115.568 186.044 
L 45.092 186.044 
L 45.092 115.568 
" clip-path="url(#pac2ffc19f9)" style="fill: none"/>
    <path d="M 115.568 115.568 
L 186.044 115.568 
L 186.044 186.044 
L 115.568 186.044 
L 115.568 115.568 
" clip-path="url(#pac2ffc19f9)" style="fill: none"/>
    <path d="M 186.044 115.568 
L 256.52 115.568 
L 256.52 186.044 
L 186.044 186.044 
L 186.044 115.568 
" clip-path="url(#pac2ffc19f9)" style="fill: #67001f"/>
    <path d="M 45.092 186.044 
L 115.568 186.044 
L 115.568 256.52 
L 45.092 256.52 
L 45.092 186.044 
" clip-path="url(#pac2ffc19f9)" style="fill: none"/>
    <path d="M 115.568 186.044 
L 186.044 186.044 
L 186.044 256.52 
L 115.568 256.52 
L 115.568 186.044 
" clip-path="url(#pac2ffc19f9)" style="fill: none"/>
    <path d="M 186.044 186.044 
L 256.52 186.044 
L 256.52 256.52 
L 186.044 256.52 
L 186.044 186.044 
" clip-path="url(#pac2ffc19f9)" style="fill: none"/>
   </g>
   <g id="QuadMesh_3">
    <path d="M 45.092 45.092 
L 115.568 45.092 
L 115.568 115.568 
L 45.092 115.568 
L 45.092 45.092 
" clip-path="url(#pac2ffc19f9)" style="fill: none"/>
    <path d="M 115.568 45.092 
L 186.044 45.092 
L 186.044 115.568 
L 115.568 115.568 
L 115.568 45.092 
" clip-path="url(#pac2ffc19f9)" style="fill: none"/>
    <path d="M 186.044 45.092 
L 256.52 45.092 
L 256.52 115.568 
L 186.044 115.568 
L 186.044 45.092 
" clip-path="url(#pac2ffc19f9)" style="fill: none"/>
    <path d="M 45.092 115.568 
L 115.568 115.568 
L 115.568 186.044 
L 45.092 186.044 
L 45.092 115.568 
" clip-path="url(#pac2ffc19f9)" style="fill: #f0eef5"/>
    <path d="M 115.568 115.568 
L 186.044 115.568 
L 186.044 186.044 
L 115.568 186.044 
L 115.568 115.568 
" clip-path="url(#pac2ffc19f9)" style="fill: none"/>
    <path d="M 186.044 115.568 
L 256.52 115.568 
L 256.52 186.044 
L 186.044 186.044 
L 186.044 115.568 
" clip-path="url(#pac2ffc19f9)" style="fill: none"/>
    <path d="M 45.092 186.044 
L 115.568 186.044 
L 115.568 256.52 
L 45.092 256.52 
L 45.092 186.044 
" clip-path="url(#pac2ffc19f9)" style="fill: #e0dfee"/>
    <path d="M 115.568 186.044 
L 186.044 186.044 
L 186.044 256.52 
L 115.568 256.52 
L 115.568 186.044 
" clip-path="url(#pac2ffc19f9)" style="fill: #cacae3"/>
    <path d="M 186.044 186.044 
L 256.52 186.044 
L 256.52 256.52 
L 186.044 256.52 
L 186.044 186.044 
" clip-path="url(#pac2ffc19f9)" style="fill: none"/>
   </g>
   <g id="QuadMesh_4">
    <path d="M 45.092 45.092 
L 115.568 45.092 
L 115.568 115.568 
L 45.092 115.568 
L 45.092 45.092 
" clip-path="url(#pac2ffc19f9)"/>
    <path d="M 115.568 45.092 
L 186.044 45.092 
L 186.044 115.568 
L 115.568 115.568 
L 115.568 45.092 
" clip-path="url(#pac2ffc19f9)" style="fill: none"/>
    <path d="M 186.044 45.092 
L 256.52 45.092 
L 256.52 115.568 
L 186.044 115.568 
L 186.044 45.092 
" clip-path="url(#pac2ffc19f9)" style="fill: none"/>
    <path d="M 45.092 115.568 
L 115.568 115.568 
L 115.568 186.044 
L 45.092 186.044 
L 45.092 115.568 
" clip-path="url(#pac2ffc19f9)" style="fill: none"/>
    <path d="M 115.568 115.568 
L 186.044 115.568 
L 186.044 186.044 
L 115.568 186.044 
L 115.568 115.568 
" clip-path="url(#pac2ffc19f9)"/>
    <path d="M 186.044 115.568 
L 256.52 115.568 
L 256.52 186.044 
L 186.044 186.044 
L 186.044 115.568 
" clip-path="url(#pac2ffc19f9)" style="fill: none"/>
    <path d="M 45.092 186.044 
L 115.568 186.044 
L 115.568 256.52 
L 45.092 256.52 
L 45.092 186.044 
" clip-path="url(#pac2ffc19f9)" style="fill: none"/>
    <path d="M 115.568 186.044 
L 186.044 186.044 
L 186.044 256.52 
L 115.568 256.52 
L 115.568 186.044 
" clip-path="url(#pac2ffc19f9)" style="fill: none"/>
    <path d="M 186.044 186.044 
L 256.52 186.044 
L 256.52 256.52 
L 186.044 256.52 
L 186.044 186.044 
" clip-path="url(#pac2ffc19f9)"/>
   </g>
   <g id="matplotlib.axis_1">
    <g id="xtick_1">
     <g id="line2d_1">
      <defs>
       <path id="md78774b2a0" d="M 0 0 
L 0 3.5 
" style="stroke: #000000; stroke-width: 0.8"/>
      </defs>
      <g>
       <use xlink:href="#md78774b2a0" x="80.33" y="256.52" style="stroke: #000000; stroke-width: 0.8"/>
      </g>
     </g>
     <g id="text_1">
      <text style="font: 14px 'Arial', 'Helvetica', 'DejaVu Sans', sans-serif; text-anchor: middle" x="80.33" y="274.157812" transform="rotate(-0 80.33 274.157812)">INSYN1</text>
     </g>
    </g>
    <g id="xtick_2">
     <g id="line2d_2">
      <g>
       <use xlink:href="#md78774b2a0" x="150.806" y="256.52" style="stroke: #000000; stroke-width: 0.8"/>
      </g>
     </g>
     <g id="text_2">
      <text style="font: 14px 'Arial', 'Helvetica', 'DejaVu Sans', sans-serif; text-anchor: middle" x="150.806" y="274.157812" transform="rotate(-0 150.806 274.157812)">MYT1</text>
     </g>
    </g>
    <g id="xtick_3">
     <g id="line2d_3">
      <g>
       <use xlink:href="#md78774b2a0" x="221.282" y="256.52" style="stroke: #000000; stroke-width: 0.8"/>
      </g>
     </g>
     <g id="text_3">
      <text style="font: 14px 'Arial', 'Helvetica', 'DejaVu Sans', sans-serif; text-anchor: middle" x="221.282" y="274.157812" transform="rotate(-0 221.282 274.157812)">RNF41</text>
     </g>
    </g>
   </g>
   <g id="matplotlib.axis_2">
    <g id="ytick_1">
     <g id="line2d_4">
      <defs>
       <path id="m66deb46814" d="M 0 0 
L 3.5 0 
" style="stroke: #000000; stroke-width: 0.8"/>
      </defs>
      <g>
       <use xlink:href="#m66deb46814" x="256.52" y="80.33" style="stroke: #000000; stroke-width: 0.8"/>
      </g>
     </g>
     <g id="text_4">
      <text style="font: 14px 'Arial', 'Helvetica', 'DejaVu Sans', sans-serif" transform="translate(274.157812 106.041875) rotate(-90)">INSYN1</text>
     </g>
    </g>
    <g id="ytick_2">
     <g id="line2d_5">
      <g>
       <use xlink:href="#m66deb46814" x="256.52" y="150.806" style="stroke: #000000; stroke-width: 0.8"/>
      </g>
     </g>
     <g id="text_5">
      <text style="font: 14px 'Arial', 'Helvetica', 'DejaVu Sans', sans-serif" transform="translate(274.157812 169.850375) rotate(-90)">MYT1</text>
     </g>
    </g>
    <g id="ytick_3">
     <g id="line2d_6">
      <g>
       <use xlink:href="#m66deb46814" x="256.52" y="221.282" style="stroke: #000000; stroke-width: 0.8"/>
      </g>
     </g>
     <g id="text_6">
      <text style="font: 14px 'Arial', 'Helvetica', 'DejaVu Sans', sans-serif" transform="translate(274.157812 244.316375) rotate(-90)">RNF41</text>
     </g>
    </g>
   </g>
   <g id="text_7">
    <text style="fill: #ffffff; font: 20px 'Arial', 'Helvetica', 'DejaVu Sans', sans-serif; text-anchor: middle" x="150.806" y="85.84875" transform="rotate(-0 150.806 85.84875)">0.00</text>
   </g>
   <g id="text_8">
    <text style="fill: #ffffff; font: 20px 'Arial', 'Helvetica', 'DejaVu Sans', sans-serif; text-anchor: middle" x="221.282" y="85.84875" transform="rotate(-0 221.282 85.84875)">1.00</text>
   </g>
   <g id="text_9">
    <text style="fill: #ffffff; font: 20px 'Arial', 'Helvetica', 'DejaVu Sans', sans-serif; text-anchor: middle" x="221.282" y="156.32475" transform="rotate(-0 221.282 156.32475)">0.00</text>
   </g>
   <g id="text_10">
    <text style="fill: #262626; font: 20px 'Arial', 'Helvetica', 'DejaVu Sans', sans-serif; text-anchor: middle" x="80.33" y="156.32475" transform="rotate(-0 80.33 156.32475)">0.12</text>
   </g>
   <g id="text_11">
    <text style="fill: #262626; font: 20px 'Arial', 'Helvetica', 'DejaVu Sans', sans-serif; text-anchor: middle" x="80.33" y="226.80075" transform="rotate(-0 80.33 226.80075)">0.21</text>
   </g>
   <g id="text_12">
    <text style="fill: #262626; font: 20px 'Arial', 'Helvetica', 'DejaVu Sans', sans-serif; text-anchor: middle" x="150.806" y="226.80075" transform="rotate(-0 150.806 226.80075)">0.32</text>
   </g>
   <g id="text_13">
    <text style="fill: #ffffff; font: 20px 'Arial', 'Helvetica', 'DejaVu Sans', sans-serif; text-anchor: middle" x="80.33" y="85.84875" transform="rotate(-0 80.33 85.84875)">1</text>
   </g>
   <g id="text_14">
    <text style="fill: #ffffff; font: 20px 'Arial', 'Helvetica', 'DejaVu Sans', sans-serif; text-anchor: middle" x="150.806" y="156.32475" transform="rotate(-0 150.806 156.32475)">1</text>
   </g>
   <g id="text_15">
    <text style="fill: #ffffff; font: 20px 'Arial', 'Helvetica', 'DejaVu Sans', sans-serif; text-anchor: middle" x="221.282" y="226.80075" transform="rotate(-0 221.282 226.80075)">1</text>
   </g>
  </g>
 </g>
 <defs>
  <clipPath id="p0630a351eb">
   <rect x="10.8" y="45.092" width="23.492" height="211.428"/>
  </clipPath>
  <clipPath id="p9b02cbbaf6">
   <rect x="45.092" y="10.8" width="211.428" height="23.492"/>
  </clipPath>
  <clipPath id="pac2ffc19f9">
   <rect x="45.092" y="45.092" width="211.428" height="211.428"/>
  </clipPath>
 </defs>
</svg>
