<?xml version="1.0" encoding="utf-8" standalone="no"?>
<!DOCTYPE svg PUBLIC "-//W3C//DTD SVG 1.1//EN"
  "http://www.w3.org/Graphics/SVG/1.1/DTD/svg11.dtd">
<svg xmlns:xlink="http://www.w3.org/1999/xlink" width="432pt" height="432pt" viewBox="0 0 432 432" xmlns="http://www.w3.org/2000/svg" version="1.1">
 <metadata>
  <rdf:RDF xmlns:dc="http://purl.org/dc/elements/1.1/" xmlns:cc="http://creativecommons.org/ns#" xmlns:rdf="http://www.w3.org/1999/02/22-rdf-syntax-ns#">
   <cc:Work>
    <dc:type rdf:resource="http://purl.org/dc/dcmitype/StillImage"/>
    <dc:date>2025-06-30T13:29:39.041645</dc:date>
    <dc:format>image/svg+xml</dc:format>
    <dc:creator>
     <cc:Agent>
      <dc:title>Matplotlib v3.6.2, https://matplotlib.org/</dc:title>
     </cc:Agent>
    </dc:creator>
   </cc:Work>
  </rdf:RDF>
 </metadata>
 <defs>
  <style type="text/css">*{stroke-linejoin: round; stroke-linecap: butt}</style>
 </defs>
 <g id="figure_1">
  <g id="patch_1">
   <path d="M 0 432 
L 432 432 
L 432 0 
L 0 0 
z
" style="fill: #ffffff"/>
  </g>
  <g id="axes_1">
   <g id="LineCollection_1">
    <path d="M 48.692 93.5948 
L 18.280569 93.5948 
L 18.280569 161.8004 
L 48.692 161.8004 
" clip-path="url(#p68b86b7fc6)" style="fill: none; stroke: #333333; stroke-width: 0.5"/>
    <path d="M 48.692 298.2116 
L 18.381266 298.2116 
L 18.381266 366.4172 
L 48.692 366.4172 
" clip-path="url(#p68b86b7fc6)" style="fill: none; stroke: #333333; stroke-width: 0.5"/>
    <path d="M 48.692 230.006 
L 18.255478 230.006 
L 18.255478 332.3144 
L 18.381266 332.3144 
" clip-path="url(#p68b86b7fc6)" style="fill: none; stroke: #333333; stroke-width: 0.5"/>
    <path d="M 18.280569 127.6976 
L 12.604381 127.6976 
L 12.604381 281.1602 
L 18.255478 281.1602 
" clip-path="url(#p68b86b7fc6)" style="fill: none; stroke: #333333; stroke-width: 0.5"/>
   </g>
  </g>
  <g id="axes_2">
   <g id="LineCollection_2">
    <path d="M 93.5948 48.692 
L 93.5948 18.280569 
L 161.8004 18.280569 
L 161.8004 48.692 
" clip-path="url(#p4408c4782c)" style="fill: none; stroke: #333333; stroke-width: 0.5"/>
    <path d="M 298.2116 48.692 
L 298.2116 18.381266 
L 366.4172 18.381266 
L 366.4172 48.692 
" clip-path="url(#p4408c4782c)" style="fill: none; stroke: #333333; stroke-width: 0.5"/>
    <path d="M 230.006 48.692 
L 230.006 18.255477 
L 332.3144 18.255477 
L 332.3144 18.381266 
" clip-path="url(#p4408c4782c)" style="fill: none; stroke: #333333; stroke-width: 0.5"/>
    <path d="M 127.6976 18.280569 
L 127.6976 12.604381 
L 281.1602 12.604381 
L 281.1602 18.255477 
" clip-path="url(#p4408c4782c)" style="fill: none; stroke: #333333; stroke-width: 0.5"/>
   </g>
  </g>
  <g id="axes_3">
   <g id="patch_2">
    <path d="M 59.492 400.52 
L 400.52 400.52 
L 400.52 59.492 
L 59.492 59.492 
z
" style="fill: #ffffff"/>
   </g>
   <g id="QuadMesh_1">
    <path d="M 59.492 59.492 
L 127.6976 59.492 
L 127.6976 127.6976 
L 59.492 127.6976 
L 59.492 59.492 
" clip-path="url(#paf5efa0624)" style="fill: #67001f"/>
    <path d="M 127.6976 59.492 
L 195.9032 59.492 
L 195.9032 127.6976 
L 127.6976 127.6976 
L 127.6976 59.492 
" clip-path="url(#paf5efa0624)" style="fill: #053061"/>
    <path d="M 195.9032 59.492 
L 264.1088 59.492 
L 264.1088 127.6976 
L 195.9032 127.6976 
L 195.9032 59.492 
" clip-path="url(#paf5efa0624)" style="fill: #760521"/>
    <path d="M 264.1088 59.492 
L 332.3144 59.492 
L 332.3144 127.6976 
L 264.1088 127.6976 
L 264.1088 59.492 
" clip-path="url(#paf5efa0624)" style="fill: #67001f"/>
    <path d="M 332.3144 59.492 
L 400.52 59.492 
L 400.52 127.6976 
L 332.3144 127.6976 
L 332.3144 59.492 
" clip-path="url(#paf5efa0624)" style="fill: #6a011f"/>
    <path d="M 59.492 127.6976 
L 127.6976 127.6976 
L 127.6976 195.9032 
L 59.492 195.9032 
L 59.492 127.6976 
" clip-path="url(#paf5efa0624)" style="fill: #053061"/>
    <path d="M 127.6976 127.6976 
L 195.9032 127.6976 
L 195.9032 195.9032 
L 127.6976 195.9032 
L 127.6976 127.6976 
" clip-path="url(#paf5efa0624)" style="fill: #67001f"/>
    <path d="M 195.9032 127.6976 
L 264.1088 127.6976 
L 264.1088 195.9032 
L 195.9032 195.9032 
L 195.9032 127.6976 
" clip-path="url(#paf5efa0624)" style="fill: #bf3338"/>
    <path d="M 264.1088 127.6976 
L 332.3144 127.6976 
L 332.3144 195.9032 
L 264.1088 195.9032 
L 264.1088 127.6976 
" clip-path="url(#paf5efa0624)" style="fill: #6a011f"/>
    <path d="M 332.3144 127.6976 
L 400.52 127.6976 
L 400.52 195.9032 
L 332.3144 195.9032 
L 332.3144 127.6976 
" clip-path="url(#paf5efa0624)" style="fill: #6a011f"/>
    <path d="M 59.492 195.9032 
L 127.6976 195.9032 
L 127.6976 264.1088 
L 59.492 264.1088 
L 59.492 195.9032 
" clip-path="url(#paf5efa0624)" style="fill: #760521"/>
    <path d="M 127.6976 195.9032 
L 195.9032 195.9032 
L 195.9032 264.1088 
L 127.6976 264.1088 
L 127.6976 195.9032 
" clip-path="url(#paf5efa0624)" style="fill: #bf3338"/>
    <path d="M 195.9032 195.9032 
L 264.1088 195.9032 
L 264.1088 264.1088 
L 195.9032 264.1088 
L 195.9032 195.9032 
" clip-path="url(#paf5efa0624)" style="fill: #67001f"/>
    <path d="M 264.1088 195.9032 
L 332.3144 195.9032 
L 332.3144 264.1088 
L 264.1088 264.1088 
L 264.1088 195.9032 
" clip-path="url(#paf5efa0624)" style="fill: #053061"/>
    <path d="M 332.3144 195.9032 
L 400.52 195.9032 
L 400.52 264.1088 
L 332.3144 264.1088 
L 332.3144 195.9032 
" clip-path="url(#paf5efa0624)" style="fill: #053061"/>
    <path d="M 59.492 264.1088 
L 127.6976 264.1088 
L 127.6976 332.3144 
L 59.492 332.3144 
L 59.492 264.1088 
" clip-path="url(#paf5efa0624)" style="fill: #67001f"/>
    <path d="M 127.6976 264.1088 
L 195.9032 264.1088 
L 195.9032 332.3144 
L 127.6976 332.3144 
L 127.6976 264.1088 
" clip-path="url(#paf5efa0624)" style="fill: #6a011f"/>
    <path d="M 195.9032 264.1088 
L 264.1088 264.1088 
L 264.1088 332.3144 
L 195.9032 332.3144 
L 195.9032 264.1088 
" clip-path="url(#paf5efa0624)" style="fill: #053061"/>
    <path d="M 264.1088 264.1088 
L 332.3144 264.1088 
L 332.3144 332.3144 
L 264.1088 332.3144 
L 264.1088 264.1088 
" clip-path="url(#paf5efa0624)" style="fill: #67001f"/>
    <path d="M 332.3144 264.1088 
L 400.52 264.1088 
L 400.52 332.3144 
L 332.3144 332.3144 
L 332.3144 264.1088 
" clip-path="url(#paf5efa0624)" style="fill: #053061"/>
    <path d="M 59.492 332.3144 
L 127.6976 332.3144 
L 127.6976 400.52 
L 59.492 400.52 
L 59.492 332.3144 
" clip-path="url(#paf5efa0624)" style="fill: #6a011f"/>
    <path d="M 127.6976 332.3144 
L 195.9032 332.3144 
L 195.9032 400.52 
L 127.6976 400.52 
L 127.6976 332.3144 
" clip-path="url(#paf5efa0624)" style="fill: #6a011f"/>
    <path d="M 195.9032 332.3144 
L 264.1088 332.3144 
L 264.1088 400.52 
L 195.9032 400.52 
L 195.9032 332.3144 
" clip-path="url(#paf5efa0624)" style="fill: #053061"/>
    <path d="M 264.1088 332.3144 
L 332.3144 332.3144 
L 332.3144 400.52 
L 264.1088 400.52 
L 264.1088 332.3144 
" clip-path="url(#paf5efa0624)" style="fill: #053061"/>
    <path d="M 332.3144 332.3144 
L 400.52 332.3144 
L 400.52 400.52 
L 332.3144 400.52 
L 332.3144 332.3144 
" clip-path="url(#paf5efa0624)" style="fill: #67001f"/>
   </g>
   <g id="QuadMesh_2">
    <path d="M 59.492 59.492 
L 127.6976 59.492 
L 127.6976 127.6976 
L 59.492 127.6976 
L 59.492 59.492 
" clip-path="url(#paf5efa0624)" style="fill: none"/>
    <path d="M 127.6976 59.492 
L 195.9032 59.492 
L 195.9032 127.6976 
L 127.6976 127.6976 
L 127.6976 59.492 
" clip-path="url(#paf5efa0624)" style="fill: #053061"/>
    <path d="M 195.9032 59.492 
L 264.1088 59.492 
L 264.1088 127.6976 
L 195.9032 127.6976 
L 195.9032 59.492 
" clip-path="url(#paf5efa0624)" style="fill: #760521"/>
    <path d="M 264.1088 59.492 
L 332.3144 59.492 
L 332.3144 127.6976 
L 264.1088 127.6976 
L 264.1088 59.492 
" clip-path="url(#paf5efa0624)" style="fill: #67001f"/>
    <path d="M 332.3144 59.492 
L 400.52 59.492 
L 400.52 127.6976 
L 332.3144 127.6976 
L 332.3144 59.492 
" clip-path="url(#paf5efa0624)" style="fill: #6a011f"/>
    <path d="M 59.492 127.6976 
L 127.6976 127.6976 
L 127.6976 195.9032 
L 59.492 195.9032 
L 59.492 127.6976 
" clip-path="url(#paf5efa0624)" style="fill: none"/>
    <path d="M 127.6976 127.6976 
L 195.9032 127.6976 
L 195.9032 195.9032 
L 127.6976 195.9032 
L 127.6976 127.6976 
" clip-path="url(#paf5efa0624)" style="fill: none"/>
    <path d="M 195.9032 127.6976 
L 264.1088 127.6976 
L 264.1088 195.9032 
L 195.9032 195.9032 
L 195.9032 127.6976 
" clip-path="url(#paf5efa0624)" style="fill: #bf3338"/>
    <path d="M 264.1088 127.6976 
L 332.3144 127.6976 
L 332.3144 195.9032 
L 264.1088 195.9032 
L 264.1088 127.6976 
" clip-path="url(#paf5efa0624)" style="fill: #6a011f"/>
    <path d="M 332.3144 127.6976 
L 400.52 127.6976 
L 400.52 195.9032 
L 332.3144 195.9032 
L 332.3144 127.6976 
" clip-path="url(#paf5efa0624)" style="fill: #6a011f"/>
    <path d="M 59.492 195.9032 
L 127.6976 195.9032 
L 127.6976 264.1088 
L 59.492 264.1088 
L 59.492 195.9032 
" clip-path="url(#paf5efa0624)" style="fill: none"/>
    <path d="M 127.6976 195.9032 
L 195.9032 195.9032 
L 195.9032 264.1088 
L 127.6976 264.1088 
L 127.6976 195.9032 
" clip-path="url(#paf5efa0624)" style="fill: none"/>
    <path d="M 195.9032 195.9032 
L 264.1088 195.9032 
L 264.1088 264.1088 
L 195.9032 264.1088 
L 195.9032 195.9032 
" clip-path="url(#paf5efa0624)" style="fill: none"/>
    <path d="M 264.1088 195.9032 
L 332.3144 195.9032 
L 332.3144 264.1088 
L 264.1088 264.1088 
L 264.1088 195.9032 
" clip-path="url(#paf5efa0624)" style="fill: #053061"/>
    <path d="M 332.3144 195.9032 
L 400.52 195.9032 
L 400.52 264.1088 
L 332.3144 264.1088 
L 332.3144 195.9032 
" clip-path="url(#paf5efa0624)" style="fill: #053061"/>
    <path d="M 59.492 264.1088 
L 127.6976 264.1088 
L 127.6976 332.3144 
L 59.492 332.3144 
L 59.492 264.1088 
" clip-path="url(#paf5efa0624)" style="fill: none"/>
    <path d="M 127.6976 264.1088 
L 195.9032 264.1088 
L 195.9032 332.3144 
L 127.6976 332.3144 
L 127.6976 264.1088 
" clip-path="url(#paf5efa0624)" style="fill: none"/>
    <path d="M 195.9032 264.1088 
L 264.1088 264.1088 
L 264.1088 332.3144 
L 195.9032 332.3144 
L 195.9032 264.1088 
" clip-path="url(#paf5efa0624)" style="fill: none"/>
    <path d="M 264.1088 264.1088 
L 332.3144 264.1088 
L 332.3144 332.3144 
L 264.1088 332.3144 
L 264.1088 264.1088 
" clip-path="url(#paf5efa0624)" style="fill: none"/>
    <path d="M 332.3144 264.1088 
L 400.52 264.1088 
L 400.52 332.3144 
L 332.3144 332.3144 
L 332.3144 264.1088 
" clip-path="url(#paf5efa0624)" style="fill: #053061"/>
    <path d="M 59.492 332.3144 
L 127.6976 332.3144 
L 127.6976 400.52 
L 59.492 400.52 
L 59.492 332.3144 
" clip-path="url(#paf5efa0624)" style="fill: none"/>
    <path d="M 127.6976 332.3144 
L 195.9032 332.3144 
L 195.9032 400.52 
L 127.6976 400.52 
L 127.6976 332.3144 
" clip-path="url(#paf5efa0624)" style="fill: none"/>
    <path d="M 195.9032 332.3144 
L 264.1088 332.3144 
L 264.1088 400.52 
L 195.9032 400.52 
L 195.9032 332.3144 
" clip-path="url(#paf5efa0624)" style="fill: none"/>
    <path d="M 264.1088 332.3144 
L 332.3144 332.3144 
L 332.3144 400.52 
L 264.1088 400.52 
L 264.1088 332.3144 
" clip-path="url(#paf5efa0624)" style="fill: none"/>
    <path d="M 332.3144 332.3144 
L 400.52 332.3144 
L 400.52 400.52 
L 332.3144 400.52 
L 332.3144 332.3144 
" clip-path="url(#paf5efa0624)" style="fill: none"/>
   </g>
   <g id="QuadMesh_3">
    <path d="M 59.492 59.492 
L 127.6976 59.492 
L 127.6976 127.6976 
L 59.492 127.6976 
L 59.492 59.492 
" clip-path="url(#paf5efa0624)" style="fill: none"/>
    <path d="M 127.6976 59.492 
L 195.9032 59.492 
L 195.9032 127.6976 
L 127.6976 127.6976 
L 127.6976 59.492 
" clip-path="url(#paf5efa0624)" style="fill: none"/>
    <path d="M 195.9032 59.492 
L 264.1088 59.492 
L 264.1088 127.6976 
L 195.9032 127.6976 
L 195.9032 59.492 
" clip-path="url(#paf5efa0624)" style="fill: none"/>
    <path d="M 264.1088 59.492 
L 332.3144 59.492 
L 332.3144 127.6976 
L 264.1088 127.6976 
L 264.1088 59.492 
" clip-path="url(#paf5efa0624)" style="fill: none"/>
    <path d="M 332.3144 59.492 
L 400.52 59.492 
L 400.52 127.6976 
L 332.3144 127.6976 
L 332.3144 59.492 
" clip-path="url(#paf5efa0624)" style="fill: none"/>
    <path d="M 59.492 127.6976 
L 127.6976 127.6976 
L 127.6976 195.9032 
L 59.492 195.9032 
L 59.492 127.6976 
" clip-path="url(#paf5efa0624)" style="fill: #cacae3"/>
    <path d="M 127.6976 127.6976 
L 195.9032 127.6976 
L 195.9032 195.9032 
L 127.6976 195.9032 
L 127.6976 127.6976 
" clip-path="url(#paf5efa0624)" style="fill: none"/>
    <path d="M 195.9032 127.6976 
L 264.1088 127.6976 
L 264.1088 195.9032 
L 195.9032 195.9032 
L 195.9032 127.6976 
" clip-path="url(#paf5efa0624)" style="fill: none"/>
    <path d="M 264.1088 127.6976 
L 332.3144 127.6976 
L 332.3144 195.9032 
L 264.1088 195.9032 
L 264.1088 127.6976 
" clip-path="url(#paf5efa0624)" style="fill: none"/>
    <path d="M 332.3144 127.6976 
L 400.52 127.6976 
L 400.52 195.9032 
L 332.3144 195.9032 
L 332.3144 127.6976 
" clip-path="url(#paf5efa0624)" style="fill: none"/>
    <path d="M 59.492 195.9032 
L 127.6976 195.9032 
L 127.6976 264.1088 
L 59.492 264.1088 
L 59.492 195.9032 
" clip-path="url(#paf5efa0624)" style="fill: #8784bd"/>
    <path d="M 127.6976 195.9032 
L 195.9032 195.9032 
L 195.9032 264.1088 
L 127.6976 264.1088 
L 127.6976 195.9032 
" clip-path="url(#paf5efa0624)" style="fill: #8c88bf"/>
    <path d="M 195.9032 195.9032 
L 264.1088 195.9032 
L 264.1088 264.1088 
L 195.9032 264.1088 
L 195.9032 195.9032 
" clip-path="url(#paf5efa0624)" style="fill: none"/>
    <path d="M 264.1088 195.9032 
L 332.3144 195.9032 
L 332.3144 264.1088 
L 264.1088 264.1088 
L 264.1088 195.9032 
" clip-path="url(#paf5efa0624)" style="fill: none"/>
    <path d="M 332.3144 195.9032 
L 400.52 195.9032 
L 400.52 264.1088 
L 332.3144 264.1088 
L 332.3144 195.9032 
" clip-path="url(#paf5efa0624)" style="fill: none"/>
    <path d="M 59.492 264.1088 
L 127.6976 264.1088 
L 127.6976 332.3144 
L 59.492 332.3144 
L 59.492 264.1088 
" clip-path="url(#paf5efa0624)" style="fill: #cfd0e6"/>
    <path d="M 127.6976 264.1088 
L 195.9032 264.1088 
L 195.9032 332.3144 
L 127.6976 332.3144 
L 127.6976 264.1088 
" clip-path="url(#paf5efa0624)" style="fill: #dcdcec"/>
    <path d="M 195.9032 264.1088 
L 264.1088 264.1088 
L 264.1088 332.3144 
L 195.9032 332.3144 
L 195.9032 264.1088 
" clip-path="url(#paf5efa0624)" style="fill: #6c55a5"/>
    <path d="M 264.1088 264.1088 
L 332.3144 264.1088 
L 332.3144 332.3144 
L 264.1088 332.3144 
L 264.1088 264.1088 
" clip-path="url(#paf5efa0624)" style="fill: none"/>
    <path d="M 332.3144 264.1088 
L 400.52 264.1088 
L 400.52 332.3144 
L 332.3144 332.3144 
L 332.3144 264.1088 
" clip-path="url(#paf5efa0624)" style="fill: none"/>
    <path d="M 59.492 332.3144 
L 127.6976 332.3144 
L 127.6976 400.52 
L 59.492 400.52 
L 59.492 332.3144 
" clip-path="url(#paf5efa0624)" style="fill: #d3d3e8"/>
    <path d="M 127.6976 332.3144 
L 195.9032 332.3144 
L 195.9032 400.52 
L 127.6976 400.52 
L 127.6976 332.3144 
" clip-path="url(#paf5efa0624)" style="fill: #bebedd"/>
    <path d="M 195.9032 332.3144 
L 264.1088 332.3144 
L 264.1088 400.52 
L 195.9032 400.52 
L 195.9032 332.3144 
" clip-path="url(#paf5efa0624)" style="fill: #acaad1"/>
    <path d="M 264.1088 332.3144 
L 332.3144 332.3144 
L 332.3144 400.52 
L 264.1088 400.52 
L 264.1088 332.3144 
" clip-path="url(#paf5efa0624)" style="fill: #e4e3f0"/>
    <path d="M 332.3144 332.3144 
L 400.52 332.3144 
L 400.52 400.52 
L 332.3144 400.52 
L 332.3144 332.3144 
" clip-path="url(#paf5efa0624)" style="fill: none"/>
   </g>
   <g id="QuadMesh_4">
    <path d="M 59.492 59.492 
L 127.6976 59.492 
L 127.6976 127.6976 
L 59.492 127.6976 
L 59.492 59.492 
" clip-path="url(#paf5efa0624)"/>
    <path d="M 127.6976 59.492 
L 195.9032 59.492 
L 195.9032 127.6976 
L 127.6976 127.6976 
L 127.6976 59.492 
" clip-path="url(#paf5efa0624)" style="fill: none"/>
    <path d="M 195.9032 59.492 
L 264.1088 59.492 
L 264.1088 127.6976 
L 195.9032 127.6976 
L 195.9032 59.492 
" clip-path="url(#paf5efa0624)" style="fill: none"/>
    <path d="M 264.1088 59.492 
L 332.3144 59.492 
L 332.3144 127.6976 
L 264.1088 127.6976 
L 264.1088 59.492 
" clip-path="url(#paf5efa0624)" style="fill: none"/>
    <path d="M 332.3144 59.492 
L 400.52 59.492 
L 400.52 127.6976 
L 332.3144 127.6976 
L 332.3144 59.492 
" clip-path="url(#paf5efa0624)" style="fill: none"/>
    <path d="M 59.492 127.6976 
L 127.6976 127.6976 
L 127.6976 195.9032 
L 59.492 195.9032 
L 59.492 127.6976 
" clip-path="url(#paf5efa0624)" style="fill: none"/>
    <path d="M 127.6976 127.6976 
L 195.9032 127.6976 
L 195.9032 195.9032 
L 127.6976 195.9032 
L 127.6976 127.6976 
" clip-path="url(#paf5efa0624)"/>
    <path d="M 195.9032 127.6976 
L 264.1088 127.6976 
L 264.1088 195.9032 
L 195.9032 195.9032 
L 195.9032 127.6976 
" clip-path="url(#paf5efa0624)" style="fill: none"/>
    <path d="M 264.1088 127.6976 
L 332.3144 127.6976 
L 332.3144 195.9032 
L 264.1088 195.9032 
L 264.1088 127.6976 
" clip-path="url(#paf5efa0624)" style="fill: none"/>
    <path d="M 332.3144 127.6976 
L 400.52 127.6976 
L 400.52 195.9032 
L 332.3144 195.9032 
L 332.3144 127.6976 
" clip-path="url(#paf5efa0624)" style="fill: none"/>
    <path d="M 59.492 195.9032 
L 127.6976 195.9032 
L 127.6976 264.1088 
L 59.492 264.1088 
L 59.492 195.9032 
" clip-path="url(#paf5efa0624)" style="fill: none"/>
    <path d="M 127.6976 195.9032 
L 195.9032 195.9032 
L 195.9032 264.1088 
L 127.6976 264.1088 
L 127.6976 195.9032 
" clip-path="url(#paf5efa0624)" style="fill: none"/>
    <path d="M 195.9032 195.9032 
L 264.1088 195.9032 
L 264.1088 264.1088 
L 195.9032 264.1088 
L 195.9032 195.9032 
" clip-path="url(#paf5efa0624)"/>
    <path d="M 264.1088 195.9032 
L 332.3144 195.9032 
L 332.3144 264.1088 
L 264.1088 264.1088 
L 264.1088 195.9032 
" clip-path="url(#paf5efa0624)" style="fill: none"/>
    <path d="M 332.3144 195.9032 
L 400.52 195.9032 
L 400.52 264.1088 
L 332.3144 264.1088 
L 332.3144 195.9032 
" clip-path="url(#paf5efa0624)" style="fill: none"/>
    <path d="M 59.492 264.1088 
L 127.6976 264.1088 
L 127.6976 332.3144 
L 59.492 332.3144 
L 59.492 264.1088 
" clip-path="url(#paf5efa0624)" style="fill: none"/>
    <path d="M 127.6976 264.1088 
L 195.9032 264.1088 
L 195.9032 332.3144 
L 127.6976 332.3144 
L 127.6976 264.1088 
" clip-path="url(#paf5efa0624)" style="fill: none"/>
    <path d="M 195.9032 264.1088 
L 264.1088 264.1088 
L 264.1088 332.3144 
L 195.9032 332.3144 
L 195.9032 264.1088 
" clip-path="url(#paf5efa0624)" style="fill: none"/>
    <path d="M 264.1088 264.1088 
L 332.3144 264.1088 
L 332.3144 332.3144 
L 264.1088 332.3144 
L 264.1088 264.1088 
" clip-path="url(#paf5efa0624)"/>
    <path d="M 332.3144 264.1088 
L 400.52 264.1088 
L 400.52 332.3144 
L 332.3144 332.3144 
L 332.3144 264.1088 
" clip-path="url(#paf5efa0624)" style="fill: none"/>
    <path d="M 59.492 332.3144 
L 127.6976 332.3144 
L 127.6976 400.52 
L 59.492 400.52 
L 59.492 332.3144 
" clip-path="url(#paf5efa0624)" style="fill: none"/>
    <path d="M 127.6976 332.3144 
L 195.9032 332.3144 
L 195.9032 400.52 
L 127.6976 400.52 
L 127.6976 332.3144 
" clip-path="url(#paf5efa0624)" style="fill: none"/>
    <path d="M 195.9032 332.3144 
L 264.1088 332.3144 
L 264.1088 400.52 
L 195.9032 400.52 
L 195.9032 332.3144 
" clip-path="url(#paf5efa0624)" style="fill: none"/>
    <path d="M 264.1088 332.3144 
L 332.3144 332.3144 
L 332.3144 400.52 
L 264.1088 400.52 
L 264.1088 332.3144 
" clip-path="url(#paf5efa0624)" style="fill: none"/>
    <path d="M 332.3144 332.3144 
L 400.52 332.3144 
L 400.52 400.52 
L 332.3144 400.52 
L 332.3144 332.3144 
" clip-path="url(#paf5efa0624)"/>
   </g>
   <g id="matplotlib.axis_1">
    <g id="xtick_1">
     <g id="line2d_1">
      <defs>
       <path id="ma47bb4ef33" d="M 0 0 
L 0 3.5 
" style="stroke: #000000; stroke-width: 0.8"/>
      </defs>
      <g>
       <use xlink:href="#ma47bb4ef33" x="93.5948" y="400.52" style="stroke: #000000; stroke-width: 0.8"/>
      </g>
     </g>
     <g id="text_1">
      <text style="font: 14px 'Arial', 'Helvetica', 'DejaVu Sans', sans-serif; text-anchor: middle" x="93.5948" y="418.157812" transform="rotate(-0 93.5948 418.157812)">MYT1</text>
     </g>
    </g>
    <g id="xtick_2">
     <g id="line2d_2">
      <g>
       <use xlink:href="#ma47bb4ef33" x="161.8004" y="400.52" style="stroke: #000000; stroke-width: 0.8"/>
      </g>
     </g>
     <g id="text_2">
      <text style="font: 14px 'Arial', 'Helvetica', 'DejaVu Sans', sans-serif; text-anchor: middle" x="161.8004" y="418.157812" transform="rotate(-0 161.8004 418.157812)">LZTS2</text>
     </g>
    </g>
    <g id="xtick_3">
     <g id="line2d_3">
      <g>
       <use xlink:href="#ma47bb4ef33" x="230.006" y="400.52" style="stroke: #000000; stroke-width: 0.8"/>
      </g>
     </g>
     <g id="text_3">
      <text style="font: 14px 'Arial', 'Helvetica', 'DejaVu Sans', sans-serif; text-anchor: middle" x="230.006" y="418.157812" transform="rotate(-0 230.006 418.157812)">CHRM4</text>
     </g>
    </g>
    <g id="xtick_4">
     <g id="line2d_4">
      <g>
       <use xlink:href="#ma47bb4ef33" x="298.2116" y="400.52" style="stroke: #000000; stroke-width: 0.8"/>
      </g>
     </g>
     <g id="text_4">
      <text style="font: 14px 'Arial', 'Helvetica', 'DejaVu Sans', sans-serif; text-anchor: middle" x="298.2116" y="418.157812" transform="rotate(-0 298.2116 418.157812)">GPR176</text>
     </g>
    </g>
    <g id="xtick_5">
     <g id="line2d_5">
      <g>
       <use xlink:href="#ma47bb4ef33" x="366.4172" y="400.52" style="stroke: #000000; stroke-width: 0.8"/>
      </g>
     </g>
     <g id="text_5">
      <text style="font: 14px 'Arial', 'Helvetica', 'DejaVu Sans', sans-serif; text-anchor: middle" x="366.4172" y="418.157812" transform="rotate(-0 366.4172 418.157812)">TSC22D1</text>
     </g>
    </g>
   </g>
   <g id="matplotlib.axis_2">
    <g id="ytick_1">
     <g id="line2d_6">
      <defs>
       <path id="mb475376091" d="M 0 0 
L 3.5 0 
" style="stroke: #000000; stroke-width: 0.8"/>
      </defs>
      <g>
       <use xlink:href="#mb475376091" x="400.52" y="93.5948" style="stroke: #000000; stroke-width: 0.8"/>
      </g>
     </g>
     <g id="text_6">
      <text style="font: 14px 'Arial', 'Helvetica', 'DejaVu Sans', sans-serif" transform="translate(418.157812 112.639175) rotate(-90)">MYT1</text>
     </g>
    </g>
    <g id="ytick_2">
     <g id="line2d_7">
      <g>
       <use xlink:href="#mb475376091" x="400.52" y="161.8004" style="stroke: #000000; stroke-width: 0.8"/>
      </g>
     </g>
     <g id="text_7">
      <text style="font: 14px 'Arial', 'Helvetica', 'DejaVu Sans', sans-serif" transform="translate(418.157812 183.668838) rotate(-90)">LZTS2</text>
     </g>
    </g>
    <g id="ytick_3">
     <g id="line2d_8">
      <g>
       <use xlink:href="#mb475376091" x="400.52" y="230.006" style="stroke: #000000; stroke-width: 0.8"/>
      </g>
     </g>
     <g id="text_8">
      <text style="font: 14px 'Arial', 'Helvetica', 'DejaVu Sans', sans-serif" transform="translate(418.157812 255.515531) rotate(-90)">CHRM4</text>
     </g>
    </g>
    <g id="ytick_4">
     <g id="line2d_9">
      <g>
       <use xlink:href="#mb475376091" x="400.52" y="298.2116" style="stroke: #000000; stroke-width: 0.8"/>
      </g>
     </g>
     <g id="text_9">
      <text style="font: 14px 'Arial', 'Helvetica', 'DejaVu Sans', sans-serif" transform="translate(418.157812 326.081444) rotate(-90)">GPR176</text>
     </g>
    </g>
    <g id="ytick_5">
     <g id="line2d_10">
      <g>
       <use xlink:href="#mb475376091" x="400.52" y="366.4172" style="stroke: #000000; stroke-width: 0.8"/>
      </g>
     </g>
     <g id="text_10">
      <text style="font: 14px 'Arial', 'Helvetica', 'DejaVu Sans', sans-serif" transform="translate(418.157812 398.775794) rotate(-90)">TSC22D1</text>
     </g>
    </g>
   </g>
   <g id="text_11">
    <text style="fill: #ffffff; font: 20px 'Arial', 'Helvetica', 'DejaVu Sans', sans-serif; text-anchor: middle" x="161.8004" y="99.11355" transform="rotate(-0 161.8004 99.11355)">1.00</text>
   </g>
   <g id="text_12">
    <text style="fill: #ffffff; font: 20px 'Arial', 'Helvetica', 'DejaVu Sans', sans-serif; text-anchor: middle" x="230.006" y="99.11355" transform="rotate(-0 230.006 99.11355)">0.02</text>
   </g>
   <g id="text_13">
    <text style="fill: #ffffff; font: 20px 'Arial', 'Helvetica', 'DejaVu Sans', sans-serif; text-anchor: middle" x="298.2116" y="99.11355" transform="rotate(-0 298.2116 99.11355)">0.00</text>
   </g>
   <g id="text_14">
    <text style="fill: #ffffff; font: 20px 'Arial', 'Helvetica', 'DejaVu Sans', sans-serif; text-anchor: middle" x="366.4172" y="99.11355" transform="rotate(-0 366.4172 99.11355)">0.01</text>
   </g>
   <g id="text_15">
    <text style="fill: #ffffff; font: 20px 'Arial', 'Helvetica', 'DejaVu Sans', sans-serif; text-anchor: middle" x="230.006" y="167.31915" transform="rotate(-0 230.006 167.31915)">0.14</text>
   </g>
   <g id="text_16">
    <text style="fill: #ffffff; font: 20px 'Arial', 'Helvetica', 'DejaVu Sans', sans-serif; text-anchor: middle" x="298.2116" y="167.31915" transform="rotate(-0 298.2116 167.31915)">0.01</text>
   </g>
   <g id="text_17">
    <text style="fill: #ffffff; font: 20px 'Arial', 'Helvetica', 'DejaVu Sans', sans-serif; text-anchor: middle" x="366.4172" y="167.31915" transform="rotate(-0 366.4172 167.31915)">0.01</text>
   </g>
   <g id="text_18">
    <text style="fill: #ffffff; font: 20px 'Arial', 'Helvetica', 'DejaVu Sans', sans-serif; text-anchor: middle" x="298.2116" y="235.52475" transform="rotate(-0 298.2116 235.52475)">1.00</text>
   </g>
   <g id="text_19">
    <text style="fill: #ffffff; font: 20px 'Arial', 'Helvetica', 'DejaVu Sans', sans-serif; text-anchor: middle" x="366.4172" y="235.52475" transform="rotate(-0 366.4172 235.52475)">1.00</text>
   </g>
   <g id="text_20">
    <text style="fill: #ffffff; font: 20px 'Arial', 'Helvetica', 'DejaVu Sans', sans-serif; text-anchor: middle" x="366.4172" y="303.73035" transform="rotate(-0 366.4172 303.73035)">1.00</text>
   </g>
   <g id="text_21">
    <text style="fill: #262626; font: 20px 'Arial', 'Helvetica', 'DejaVu Sans', sans-serif; text-anchor: middle" x="93.5948" y="167.31915" transform="rotate(-0 93.5948 167.31915)">0.32</text>
   </g>
   <g id="text_22">
    <text style="fill: #ffffff; font: 20px 'Arial', 'Helvetica', 'DejaVu Sans', sans-serif; text-anchor: middle" x="93.5948" y="235.52475" transform="rotate(-0 93.5948 235.52475)">0.59</text>
   </g>
   <g id="text_23">
    <text style="fill: #ffffff; font: 20px 'Arial', 'Helvetica', 'DejaVu Sans', sans-serif; text-anchor: middle" x="161.8004" y="235.52475" transform="rotate(-0 161.8004 235.52475)">0.58</text>
   </g>
   <g id="text_24">
    <text style="fill: #262626; font: 20px 'Arial', 'Helvetica', 'DejaVu Sans', sans-serif; text-anchor: middle" x="93.5948" y="303.73035" transform="rotate(-0 93.5948 303.73035)">0.29</text>
   </g>
   <g id="text_25">
    <text style="fill: #262626; font: 20px 'Arial', 'Helvetica', 'DejaVu Sans', sans-serif; text-anchor: middle" x="161.8004" y="303.73035" transform="rotate(-0 161.8004 303.73035)">0.24</text>
   </g>
   <g id="text_26">
    <text style="fill: #ffffff; font: 20px 'Arial', 'Helvetica', 'DejaVu Sans', sans-serif; text-anchor: middle" x="230.006" y="303.73035" transform="rotate(-0 230.006 303.73035)">0.74</text>
   </g>
   <g id="text_27">
    <text style="fill: #262626; font: 20px 'Arial', 'Helvetica', 'DejaVu Sans', sans-serif; text-anchor: middle" x="93.5948" y="371.93595" transform="rotate(-0 93.5948 371.93595)">0.28</text>
   </g>
   <g id="text_28">
    <text style="fill: #262626; font: 20px 'Arial', 'Helvetica', 'DejaVu Sans', sans-serif; text-anchor: middle" x="161.8004" y="371.93595" transform="rotate(-0 161.8004 371.93595)">0.37</text>
   </g>
   <g id="text_29">
    <text style="fill: #262626; font: 20px 'Arial', 'Helvetica', 'DejaVu Sans', sans-serif; text-anchor: middle" x="230.006" y="371.93595" transform="rotate(-0 230.006 371.93595)">0.44</text>
   </g>
   <g id="text_30">
    <text style="fill: #262626; font: 20px 'Arial', 'Helvetica', 'DejaVu Sans', sans-serif; text-anchor: middle" x="298.2116" y="371.93595" transform="rotate(-0 298.2116 371.93595)">0.20</text>
   </g>
   <g id="text_31">
    <text style="fill: #ffffff; font: 20px 'Arial', 'Helvetica', 'DejaVu Sans', sans-serif; text-anchor: middle" x="93.5948" y="99.11355" transform="rotate(-0 93.5948 99.11355)">1</text>
   </g>
   <g id="text_32">
    <text style="fill: #ffffff; font: 20px 'Arial', 'Helvetica', 'DejaVu Sans', sans-serif; text-anchor: middle" x="161.8004" y="167.31915" transform="rotate(-0 161.8004 167.31915)">1</text>
   </g>
   <g id="text_33">
    <text style="fill: #ffffff; font: 20px 'Arial', 'Helvetica', 'DejaVu Sans', sans-serif; text-anchor: middle" x="230.006" y="235.52475" transform="rotate(-0 230.006 235.52475)">1</text>
   </g>
   <g id="text_34">
    <text style="fill: #ffffff; font: 20px 'Arial', 'Helvetica', 'DejaVu Sans', sans-serif; text-anchor: middle" x="298.2116" y="303.73035" transform="rotate(-0 298.2116 303.73035)">1</text>
   </g>
   <g id="text_35">
    <text style="fill: #ffffff; font: 20px 'Arial', 'Helvetica', 'DejaVu Sans', sans-serif; text-anchor: middle" x="366.4172" y="371.93595" transform="rotate(-0 366.4172 371.93595)">1</text>
   </g>
  </g>
 </g>
 <defs>
  <clipPath id="p68b86b7fc6">
   <rect x="10.8" y="59.492" width="37.892" height="341.028"/>
  </clipPath>
  <clipPath id="p4408c4782c">
   <rect x="59.492" y="10.8" width="341.028" height="37.892"/>
  </clipPath>
  <clipPath id="paf5efa0624">
   <rect x="59.492" y="59.492" width="341.028" height="341.028"/>
  </clipPath>
 </defs>
</svg>
