<?xml version="1.0" encoding="utf-8" standalone="no"?>
<!DOCTYPE svg PUBLIC "-//W3C//DTD SVG 1.1//EN"
  "http://www.w3.org/Graphics/SVG/1.1/DTD/svg11.dtd">
<svg xmlns:xlink="http://www.w3.org/1999/xlink" width="504pt" height="504pt" viewBox="0 0 504 504" xmlns="http://www.w3.org/2000/svg" version="1.1">
 <metadata>
  <rdf:RDF xmlns:dc="http://purl.org/dc/elements/1.1/" xmlns:cc="http://creativecommons.org/ns#" xmlns:rdf="http://www.w3.org/1999/02/22-rdf-syntax-ns#">
   <cc:Work>
    <dc:type rdf:resource="http://purl.org/dc/dcmitype/StillImage"/>
    <dc:date>2025-06-30T13:29:39.399660</dc:date>
    <dc:format>image/svg+xml</dc:format>
    <dc:creator>
     <cc:Agent>
      <dc:title>Matplotlib v3.6.2, https://matplotlib.org/</dc:title>
     </cc:Agent>
    </dc:creator>
   </cc:Work>
  </rdf:RDF>
 </metadata>
 <defs>
  <style type="text/css">*{stroke-linejoin: round; stroke-linecap: butt}</style>
 </defs>
 <g id="figure_1">
  <g id="patch_1">
   <path d="M 0 504 
L 504 504 
L 504 0 
L 0 0 
z
" style="fill: #ffffff"/>
  </g>
  <g id="axes_1">
   <g id="LineCollection_1">
    <path d="M 55.892 168.149 
L 25.61921 168.149 
L 25.61921 235.787 
L 55.892 235.787 
" clip-path="url(#p50ca7332b6)" style="fill: none; stroke: #333333; stroke-width: 0.5"/>
    <path d="M 55.892 100.511 
L 25.51184 100.511 
L 25.51184 201.968 
L 25.61921 201.968 
" clip-path="url(#p50ca7332b6)" style="fill: none; stroke: #333333; stroke-width: 0.5"/>
    <path d="M 55.892 371.063 
L 25.483061 371.063 
L 25.483061 438.701 
L 55.892 438.701 
" clip-path="url(#p50ca7332b6)" style="fill: none; stroke: #333333; stroke-width: 0.5"/>
    <path d="M 55.892 303.425 
L 25.483007 303.425 
L 25.483007 404.882 
L 25.483061 404.882 
" clip-path="url(#p50ca7332b6)" style="fill: none; stroke: #333333; stroke-width: 0.5"/>
    <path d="M 25.51184 151.2395 
L 12.947238 151.2395 
L 12.947238 354.1535 
L 25.483007 354.1535 
" clip-path="url(#p50ca7332b6)" style="fill: none; stroke: #333333; stroke-width: 0.5"/>
   </g>
  </g>
  <g id="axes_2">
   <g id="LineCollection_2">
    <path d="M 168.149 55.892 
L 168.149 25.61921 
L 235.787 25.61921 
L 235.787 55.892 
" clip-path="url(#pd71000b7b4)" style="fill: none; stroke: #333333; stroke-width: 0.5"/>
    <path d="M 100.511 55.892 
L 100.511 25.51184 
L 201.968 25.51184 
L 201.968 25.61921 
" clip-path="url(#pd71000b7b4)" style="fill: none; stroke: #333333; stroke-width: 0.5"/>
    <path d="M 371.063 55.892 
L 371.063 25.483061 
L 438.701 25.483061 
L 438.701 55.892 
" clip-path="url(#pd71000b7b4)" style="fill: none; stroke: #333333; stroke-width: 0.5"/>
    <path d="M 303.425 55.892 
L 303.425 25.483007 
L 404.882 25.483007 
L 404.882 25.483061 
" clip-path="url(#pd71000b7b4)" style="fill: none; stroke: #333333; stroke-width: 0.5"/>
    <path d="M 151.2395 25.51184 
L 151.2395 12.947238 
L 354.1535 12.947238 
L 354.1535 25.483007 
" clip-path="url(#pd71000b7b4)" style="fill: none; stroke: #333333; stroke-width: 0.5"/>
   </g>
  </g>
  <g id="axes_3">
   <g id="patch_2">
    <path d="M 66.692 472.52 
L 472.52 472.52 
L 472.52 66.692 
L 66.692 66.692 
z
" style="fill: #ffffff"/>
   </g>
   <g id="QuadMesh_1">
    <path d="M 66.692 66.692 
L 134.33 66.692 
L 134.33 134.33 
L 66.692 134.33 
L 66.692 66.692 
" clip-path="url(#p64786e5d98)" style="fill: #67001f"/>
    <path d="M 134.33 66.692 
L 201.968 66.692 
L 201.968 134.33 
L 134.33 134.33 
L 134.33 66.692 
" clip-path="url(#p64786e5d98)" style="fill: #053061"/>
    <path d="M 201.968 66.692 
L 269.606 66.692 
L 269.606 134.33 
L 201.968 134.33 
L 201.968 66.692 
" clip-path="url(#p64786e5d98)" style="fill: #053061"/>
    <path d="M 269.606 66.692 
L 337.244 66.692 
L 337.244 134.33 
L 269.606 134.33 
L 269.606 66.692 
" clip-path="url(#p64786e5d98)" style="fill: #67001f"/>
    <path d="M 337.244 66.692 
L 404.882 66.692 
L 404.882 134.33 
L 337.244 134.33 
L 337.244 66.692 
" clip-path="url(#p64786e5d98)" style="fill: #67001f"/>
    <path d="M 404.882 66.692 
L 472.52 66.692 
L 472.52 134.33 
L 404.882 134.33 
L 404.882 66.692 
" clip-path="url(#p64786e5d98)" style="fill: #67001f"/>
    <path d="M 66.692 134.33 
L 134.33 134.33 
L 134.33 201.968 
L 66.692 201.968 
L 66.692 134.33 
" clip-path="url(#p64786e5d98)" style="fill: #053061"/>
    <path d="M 134.33 134.33 
L 201.968 134.33 
L 201.968 201.968 
L 134.33 201.968 
L 134.33 134.33 
" clip-path="url(#p64786e5d98)" style="fill: #67001f"/>
    <path d="M 201.968 134.33 
L 269.606 134.33 
L 269.606 201.968 
L 201.968 201.968 
L 201.968 134.33 
" clip-path="url(#p64786e5d98)" style="fill: #063264"/>
    <path d="M 269.606 134.33 
L 337.244 134.33 
L 337.244 201.968 
L 269.606 201.968 
L 269.606 134.33 
" clip-path="url(#p64786e5d98)" style="fill: #67001f"/>
    <path d="M 337.244 134.33 
L 404.882 134.33 
L 404.882 201.968 
L 337.244 201.968 
L 337.244 134.33 
" clip-path="url(#p64786e5d98)" style="fill: #67001f"/>
    <path d="M 404.882 134.33 
L 472.52 134.33 
L 472.52 201.968 
L 404.882 201.968 
L 404.882 134.33 
" clip-path="url(#p64786e5d98)" style="fill: #67001f"/>
    <path d="M 66.692 201.968 
L 134.33 201.968 
L 134.33 269.606 
L 66.692 269.606 
L 66.692 201.968 
" clip-path="url(#p64786e5d98)" style="fill: #053061"/>
    <path d="M 134.33 201.968 
L 201.968 201.968 
L 201.968 269.606 
L 134.33 269.606 
L 134.33 201.968 
" clip-path="url(#p64786e5d98)" style="fill: #063264"/>
    <path d="M 201.968 201.968 
L 269.606 201.968 
L 269.606 269.606 
L 201.968 269.606 
L 201.968 201.968 
" clip-path="url(#p64786e5d98)" style="fill: #67001f"/>
    <path d="M 269.606 201.968 
L 337.244 201.968 
L 337.244 269.606 
L 269.606 269.606 
L 269.606 201.968 
" clip-path="url(#p64786e5d98)" style="fill: #67001f"/>
    <path d="M 337.244 201.968 
L 404.882 201.968 
L 404.882 269.606 
L 337.244 269.606 
L 337.244 201.968 
" clip-path="url(#p64786e5d98)" style="fill: #67001f"/>
    <path d="M 404.882 201.968 
L 472.52 201.968 
L 472.52 269.606 
L 404.882 269.606 
L 404.882 201.968 
" clip-path="url(#p64786e5d98)" style="fill: #67001f"/>
    <path d="M 66.692 269.606 
L 134.33 269.606 
L 134.33 337.244 
L 66.692 337.244 
L 66.692 269.606 
" clip-path="url(#p64786e5d98)" style="fill: #67001f"/>
    <path d="M 134.33 269.606 
L 201.968 269.606 
L 201.968 337.244 
L 134.33 337.244 
L 134.33 269.606 
" clip-path="url(#p64786e5d98)" style="fill: #67001f"/>
    <path d="M 201.968 269.606 
L 269.606 269.606 
L 269.606 337.244 
L 201.968 337.244 
L 201.968 269.606 
" clip-path="url(#p64786e5d98)" style="fill: #67001f"/>
    <path d="M 269.606 269.606 
L 337.244 269.606 
L 337.244 337.244 
L 269.606 337.244 
L 269.606 269.606 
" clip-path="url(#p64786e5d98)" style="fill: #67001f"/>
    <path d="M 337.244 269.606 
L 404.882 269.606 
L 404.882 337.244 
L 337.244 337.244 
L 337.244 269.606 
" clip-path="url(#p64786e5d98)" style="fill: #053061"/>
    <path d="M 404.882 269.606 
L 472.52 269.606 
L 472.52 337.244 
L 404.882 337.244 
L 404.882 269.606 
" clip-path="url(#p64786e5d98)" style="fill: #053061"/>
    <path d="M 66.692 337.244 
L 134.33 337.244 
L 134.33 404.882 
L 66.692 404.882 
L 66.692 337.244 
" clip-path="url(#p64786e5d98)" style="fill: #67001f"/>
    <path d="M 134.33 337.244 
L 201.968 337.244 
L 201.968 404.882 
L 134.33 404.882 
L 134.33 337.244 
" clip-path="url(#p64786e5d98)" style="fill: #67001f"/>
    <path d="M 201.968 337.244 
L 269.606 337.244 
L 269.606 404.882 
L 201.968 404.882 
L 201.968 337.244 
" clip-path="url(#p64786e5d98)" style="fill: #67001f"/>
    <path d="M 269.606 337.244 
L 337.244 337.244 
L 337.244 404.882 
L 269.606 404.882 
L 269.606 337.244 
" clip-path="url(#p64786e5d98)" style="fill: #053061"/>
    <path d="M 337.244 337.244 
L 404.882 337.244 
L 404.882 404.882 
L 337.244 404.882 
L 337.244 337.244 
" clip-path="url(#p64786e5d98)" style="fill: #67001f"/>
    <path d="M 404.882 337.244 
L 472.52 337.244 
L 472.52 404.882 
L 404.882 404.882 
L 404.882 337.244 
" clip-path="url(#p64786e5d98)" style="fill: #053061"/>
    <path d="M 66.692 404.882 
L 134.33 404.882 
L 134.33 472.52 
L 66.692 472.52 
L 66.692 404.882 
" clip-path="url(#p64786e5d98)" style="fill: #67001f"/>
    <path d="M 134.33 404.882 
L 201.968 404.882 
L 201.968 472.52 
L 134.33 472.52 
L 134.33 404.882 
" clip-path="url(#p64786e5d98)" style="fill: #67001f"/>
    <path d="M 201.968 404.882 
L 269.606 404.882 
L 269.606 472.52 
L 201.968 472.52 
L 201.968 404.882 
" clip-path="url(#p64786e5d98)" style="fill: #67001f"/>
    <path d="M 269.606 404.882 
L 337.244 404.882 
L 337.244 472.52 
L 269.606 472.52 
L 269.606 404.882 
" clip-path="url(#p64786e5d98)" style="fill: #053061"/>
    <path d="M 337.244 404.882 
L 404.882 404.882 
L 404.882 472.52 
L 337.244 472.52 
L 337.244 404.882 
" clip-path="url(#p64786e5d98)" style="fill: #053061"/>
    <path d="M 404.882 404.882 
L 472.52 404.882 
L 472.52 472.52 
L 404.882 472.52 
L 404.882 404.882 
" clip-path="url(#p64786e5d98)" style="fill: #67001f"/>
   </g>
   <g id="QuadMesh_2">
    <path d="M 66.692 66.692 
L 134.33 66.692 
L 134.33 134.33 
L 66.692 134.33 
L 66.692 66.692 
" clip-path="url(#p64786e5d98)" style="fill: none"/>
    <path d="M 134.33 66.692 
L 201.968 66.692 
L 201.968 134.33 
L 134.33 134.33 
L 134.33 66.692 
" clip-path="url(#p64786e5d98)" style="fill: #053061"/>
    <path d="M 201.968 66.692 
L 269.606 66.692 
L 269.606 134.33 
L 201.968 134.33 
L 201.968 66.692 
" clip-path="url(#p64786e5d98)" style="fill: #053061"/>
    <path d="M 269.606 66.692 
L 337.244 66.692 
L 337.244 134.33 
L 269.606 134.33 
L 269.606 66.692 
" clip-path="url(#p64786e5d98)" style="fill: #67001f"/>
    <path d="M 337.244 66.692 
L 404.882 66.692 
L 404.882 134.33 
L 337.244 134.33 
L 337.244 66.692 
" clip-path="url(#p64786e5d98)" style="fill: #67001f"/>
    <path d="M 404.882 66.692 
L 472.52 66.692 
L 472.52 134.33 
L 404.882 134.33 
L 404.882 66.692 
" clip-path="url(#p64786e5d98)" style="fill: #67001f"/>
    <path d="M 66.692 134.33 
L 134.33 134.33 
L 134.33 201.968 
L 66.692 201.968 
L 66.692 134.33 
" clip-path="url(#p64786e5d98)" style="fill: none"/>
    <path d="M 134.33 134.33 
L 201.968 134.33 
L 201.968 201.968 
L 134.33 201.968 
L 134.33 134.33 
" clip-path="url(#p64786e5d98)" style="fill: none"/>
    <path d="M 201.968 134.33 
L 269.606 134.33 
L 269.606 201.968 
L 201.968 201.968 
L 201.968 134.33 
" clip-path="url(#p64786e5d98)" style="fill: #063264"/>
    <path d="M 269.606 134.33 
L 337.244 134.33 
L 337.244 201.968 
L 269.606 201.968 
L 269.606 134.33 
" clip-path="url(#p64786e5d98)" style="fill: #67001f"/>
    <path d="M 337.244 134.33 
L 404.882 134.33 
L 404.882 201.968 
L 337.244 201.968 
L 337.244 134.33 
" clip-path="url(#p64786e5d98)" style="fill: #67001f"/>
    <path d="M 404.882 134.33 
L 472.52 134.33 
L 472.52 201.968 
L 404.882 201.968 
L 404.882 134.33 
" clip-path="url(#p64786e5d98)" style="fill: #67001f"/>
    <path d="M 66.692 201.968 
L 134.33 201.968 
L 134.33 269.606 
L 66.692 269.606 
L 66.692 201.968 
" clip-path="url(#p64786e5d98)" style="fill: none"/>
    <path d="M 134.33 201.968 
L 201.968 201.968 
L 201.968 269.606 
L 134.33 269.606 
L 134.33 201.968 
" clip-path="url(#p64786e5d98)" style="fill: none"/>
    <path d="M 201.968 201.968 
L 269.606 201.968 
L 269.606 269.606 
L 201.968 269.606 
L 201.968 201.968 
" clip-path="url(#p64786e5d98)" style="fill: none"/>
    <path d="M 269.606 201.968 
L 337.244 201.968 
L 337.244 269.606 
L 269.606 269.606 
L 269.606 201.968 
" clip-path="url(#p64786e5d98)" style="fill: #67001f"/>
    <path d="M 337.244 201.968 
L 404.882 201.968 
L 404.882 269.606 
L 337.244 269.606 
L 337.244 201.968 
" clip-path="url(#p64786e5d98)" style="fill: #67001f"/>
    <path d="M 404.882 201.968 
L 472.52 201.968 
L 472.52 269.606 
L 404.882 269.606 
L 404.882 201.968 
" clip-path="url(#p64786e5d98)" style="fill: #67001f"/>
    <path d="M 66.692 269.606 
L 134.33 269.606 
L 134.33 337.244 
L 66.692 337.244 
L 66.692 269.606 
" clip-path="url(#p64786e5d98)" style="fill: none"/>
    <path d="M 134.33 269.606 
L 201.968 269.606 
L 201.968 337.244 
L 134.33 337.244 
L 134.33 269.606 
" clip-path="url(#p64786e5d98)" style="fill: none"/>
    <path d="M 201.968 269.606 
L 269.606 269.606 
L 269.606 337.244 
L 201.968 337.244 
L 201.968 269.606 
" clip-path="url(#p64786e5d98)" style="fill: none"/>
    <path d="M 269.606 269.606 
L 337.244 269.606 
L 337.244 337.244 
L 269.606 337.244 
L 269.606 269.606 
" clip-path="url(#p64786e5d98)" style="fill: none"/>
    <path d="M 337.244 269.606 
L 404.882 269.606 
L 404.882 337.244 
L 337.244 337.244 
L 337.244 269.606 
" clip-path="url(#p64786e5d98)" style="fill: #053061"/>
    <path d="M 404.882 269.606 
L 472.52 269.606 
L 472.52 337.244 
L 404.882 337.244 
L 404.882 269.606 
" clip-path="url(#p64786e5d98)" style="fill: #053061"/>
    <path d="M 66.692 337.244 
L 134.33 337.244 
L 134.33 404.882 
L 66.692 404.882 
L 66.692 337.244 
" clip-path="url(#p64786e5d98)" style="fill: none"/>
    <path d="M 134.33 337.244 
L 201.968 337.244 
L 201.968 404.882 
L 134.33 404.882 
L 134.33 337.244 
" clip-path="url(#p64786e5d98)" style="fill: none"/>
    <path d="M 201.968 337.244 
L 269.606 337.244 
L 269.606 404.882 
L 201.968 404.882 
L 201.968 337.244 
" clip-path="url(#p64786e5d98)" style="fill: none"/>
    <path d="M 269.606 337.244 
L 337.244 337.244 
L 337.244 404.882 
L 269.606 404.882 
L 269.606 337.244 
" clip-path="url(#p64786e5d98)" style="fill: none"/>
    <path d="M 337.244 337.244 
L 404.882 337.244 
L 404.882 404.882 
L 337.244 404.882 
L 337.244 337.244 
" clip-path="url(#p64786e5d98)" style="fill: none"/>
    <path d="M 404.882 337.244 
L 472.52 337.244 
L 472.52 404.882 
L 404.882 404.882 
L 404.882 337.244 
" clip-path="url(#p64786e5d98)" style="fill: #053061"/>
    <path d="M 66.692 404.882 
L 134.33 404.882 
L 134.33 472.52 
L 66.692 472.52 
L 66.692 404.882 
" clip-path="url(#p64786e5d98)" style="fill: none"/>
    <path d="M 134.33 404.882 
L 201.968 404.882 
L 201.968 472.52 
L 134.33 472.52 
L 134.33 404.882 
" clip-path="url(#p64786e5d98)" style="fill: none"/>
    <path d="M 201.968 404.882 
L 269.606 404.882 
L 269.606 472.52 
L 201.968 472.52 
L 201.968 404.882 
" clip-path="url(#p64786e5d98)" style="fill: none"/>
    <path d="M 269.606 404.882 
L 337.244 404.882 
L 337.244 472.52 
L 269.606 472.52 
L 269.606 404.882 
" clip-path="url(#p64786e5d98)" style="fill: none"/>
    <path d="M 337.244 404.882 
L 404.882 404.882 
L 404.882 472.52 
L 337.244 472.52 
L 337.244 404.882 
" clip-path="url(#p64786e5d98)" style="fill: none"/>
    <path d="M 404.882 404.882 
L 472.52 404.882 
L 472.52 472.52 
L 404.882 472.52 
L 404.882 404.882 
" clip-path="url(#p64786e5d98)" style="fill: none"/>
   </g>
   <g id="QuadMesh_3">
    <path d="M 66.692 66.692 
L 134.33 66.692 
L 134.33 134.33 
L 66.692 134.33 
L 66.692 66.692 
" clip-path="url(#p64786e5d98)" style="fill: none"/>
    <path d="M 134.33 66.692 
L 201.968 66.692 
L 201.968 134.33 
L 134.33 134.33 
L 134.33 66.692 
" clip-path="url(#p64786e5d98)" style="fill: none"/>
    <path d="M 201.968 66.692 
L 269.606 66.692 
L 269.606 134.33 
L 201.968 134.33 
L 201.968 66.692 
" clip-path="url(#p64786e5d98)" style="fill: none"/>
    <path d="M 269.606 66.692 
L 337.244 66.692 
L 337.244 134.33 
L 269.606 134.33 
L 269.606 66.692 
" clip-path="url(#p64786e5d98)" style="fill: none"/>
    <path d="M 337.244 66.692 
L 404.882 66.692 
L 404.882 134.33 
L 337.244 134.33 
L 337.244 66.692 
" clip-path="url(#p64786e5d98)" style="fill: none"/>
    <path d="M 404.882 66.692 
L 472.52 66.692 
L 472.52 134.33 
L 404.882 134.33 
L 404.882 66.692 
" clip-path="url(#p64786e5d98)" style="fill: none"/>
    <path d="M 66.692 134.33 
L 134.33 134.33 
L 134.33 201.968 
L 66.692 201.968 
L 66.692 134.33 
" clip-path="url(#p64786e5d98)" style="fill: #8380bb"/>
    <path d="M 134.33 134.33 
L 201.968 134.33 
L 201.968 201.968 
L 134.33 201.968 
L 134.33 134.33 
" clip-path="url(#p64786e5d98)" style="fill: none"/>
    <path d="M 201.968 134.33 
L 269.606 134.33 
L 269.606 201.968 
L 201.968 201.968 
L 201.968 134.33 
" clip-path="url(#p64786e5d98)" style="fill: none"/>
    <path d="M 269.606 134.33 
L 337.244 134.33 
L 337.244 201.968 
L 269.606 201.968 
L 269.606 134.33 
" clip-path="url(#p64786e5d98)" style="fill: none"/>
    <path d="M 337.244 134.33 
L 404.882 134.33 
L 404.882 201.968 
L 337.244 201.968 
L 337.244 134.33 
" clip-path="url(#p64786e5d98)" style="fill: none"/>
    <path d="M 404.882 134.33 
L 472.52 134.33 
L 472.52 201.968 
L 404.882 201.968 
L 404.882 134.33 
" clip-path="url(#p64786e5d98)" style="fill: none"/>
    <path d="M 66.692 201.968 
L 134.33 201.968 
L 134.33 269.606 
L 66.692 269.606 
L 66.692 201.968 
" clip-path="url(#p64786e5d98)" style="fill: #6d57a6"/>
    <path d="M 134.33 201.968 
L 201.968 201.968 
L 201.968 269.606 
L 134.33 269.606 
L 134.33 201.968 
" clip-path="url(#p64786e5d98)" style="fill: #bebfdd"/>
    <path d="M 201.968 201.968 
L 269.606 201.968 
L 269.606 269.606 
L 201.968 269.606 
L 201.968 201.968 
" clip-path="url(#p64786e5d98)" style="fill: none"/>
    <path d="M 269.606 201.968 
L 337.244 201.968 
L 337.244 269.606 
L 269.606 269.606 
L 269.606 201.968 
" clip-path="url(#p64786e5d98)" style="fill: none"/>
    <path d="M 337.244 201.968 
L 404.882 201.968 
L 404.882 269.606 
L 337.244 269.606 
L 337.244 201.968 
" clip-path="url(#p64786e5d98)" style="fill: none"/>
    <path d="M 404.882 201.968 
L 472.52 201.968 
L 472.52 269.606 
L 404.882 269.606 
L 404.882 201.968 
" clip-path="url(#p64786e5d98)" style="fill: none"/>
    <path d="M 66.692 269.606 
L 134.33 269.606 
L 134.33 337.244 
L 66.692 337.244 
L 66.692 269.606 
" clip-path="url(#p64786e5d98)" style="fill: #6c54a5"/>
    <path d="M 134.33 269.606 
L 201.968 269.606 
L 201.968 337.244 
L 134.33 337.244 
L 134.33 269.606 
" clip-path="url(#p64786e5d98)" style="fill: #5c3797"/>
    <path d="M 201.968 269.606 
L 269.606 269.606 
L 269.606 337.244 
L 201.968 337.244 
L 201.968 269.606 
" clip-path="url(#p64786e5d98)" style="fill: #b4b4d7"/>
    <path d="M 269.606 269.606 
L 337.244 269.606 
L 337.244 337.244 
L 269.606 337.244 
L 269.606 269.606 
" clip-path="url(#p64786e5d98)" style="fill: none"/>
    <path d="M 337.244 269.606 
L 404.882 269.606 
L 404.882 337.244 
L 337.244 337.244 
L 337.244 269.606 
" clip-path="url(#p64786e5d98)" style="fill: none"/>
    <path d="M 404.882 269.606 
L 472.52 269.606 
L 472.52 337.244 
L 404.882 337.244 
L 404.882 269.606 
" clip-path="url(#p64786e5d98)" style="fill: none"/>
    <path d="M 66.692 337.244 
L 134.33 337.244 
L 134.33 404.882 
L 66.692 404.882 
L 66.692 337.244 
" clip-path="url(#p64786e5d98)" style="fill: #807dba"/>
    <path d="M 134.33 337.244 
L 201.968 337.244 
L 201.968 404.882 
L 134.33 404.882 
L 134.33 337.244 
" clip-path="url(#p64786e5d98)" style="fill: #6e58a7"/>
    <path d="M 201.968 337.244 
L 269.606 337.244 
L 269.606 404.882 
L 201.968 404.882 
L 201.968 337.244 
" clip-path="url(#p64786e5d98)" style="fill: #c8c8e2"/>
    <path d="M 269.606 337.244 
L 337.244 337.244 
L 337.244 404.882 
L 269.606 404.882 
L 269.606 337.244 
" clip-path="url(#p64786e5d98)" style="fill: #470f84"/>
    <path d="M 337.244 337.244 
L 404.882 337.244 
L 404.882 404.882 
L 337.244 404.882 
L 337.244 337.244 
" clip-path="url(#p64786e5d98)" style="fill: none"/>
    <path d="M 404.882 337.244 
L 472.52 337.244 
L 472.52 404.882 
L 404.882 404.882 
L 404.882 337.244 
" clip-path="url(#p64786e5d98)" style="fill: none"/>
    <path d="M 66.692 404.882 
L 134.33 404.882 
L 134.33 472.52 
L 66.692 472.52 
L 66.692 404.882 
" clip-path="url(#p64786e5d98)" style="fill: #8e8ac0"/>
    <path d="M 134.33 404.882 
L 201.968 404.882 
L 201.968 472.52 
L 134.33 472.52 
L 134.33 404.882 
" clip-path="url(#p64786e5d98)" style="fill: #552a90"/>
    <path d="M 201.968 404.882 
L 269.606 404.882 
L 269.606 472.52 
L 201.968 472.52 
L 201.968 404.882 
" clip-path="url(#p64786e5d98)" style="fill: #c3c4e0"/>
    <path d="M 269.606 404.882 
L 337.244 404.882 
L 337.244 472.52 
L 269.606 472.52 
L 269.606 404.882 
" clip-path="url(#p64786e5d98)" style="fill: #481185"/>
    <path d="M 337.244 404.882 
L 404.882 404.882 
L 404.882 472.52 
L 337.244 472.52 
L 337.244 404.882 
" clip-path="url(#p64786e5d98)" style="fill: #53258e"/>
    <path d="M 404.882 404.882 
L 472.52 404.882 
L 472.52 472.52 
L 404.882 472.52 
L 404.882 404.882 
" clip-path="url(#p64786e5d98)" style="fill: none"/>
   </g>
   <g id="QuadMesh_4">
    <path d="M 66.692 66.692 
L 134.33 66.692 
L 134.33 134.33 
L 66.692 134.33 
L 66.692 66.692 
" clip-path="url(#p64786e5d98)"/>
    <path d="M 134.33 66.692 
L 201.968 66.692 
L 201.968 134.33 
L 134.33 134.33 
L 134.33 66.692 
" clip-path="url(#p64786e5d98)" style="fill: none"/>
    <path d="M 201.968 66.692 
L 269.606 66.692 
L 269.606 134.33 
L 201.968 134.33 
L 201.968 66.692 
" clip-path="url(#p64786e5d98)" style="fill: none"/>
    <path d="M 269.606 66.692 
L 337.244 66.692 
L 337.244 134.33 
L 269.606 134.33 
L 269.606 66.692 
" clip-path="url(#p64786e5d98)" style="fill: none"/>
    <path d="M 337.244 66.692 
L 404.882 66.692 
L 404.882 134.33 
L 337.244 134.33 
L 337.244 66.692 
" clip-path="url(#p64786e5d98)" style="fill: none"/>
    <path d="M 404.882 66.692 
L 472.52 66.692 
L 472.52 134.33 
L 404.882 134.33 
L 404.882 66.692 
" clip-path="url(#p64786e5d98)" style="fill: none"/>
    <path d="M 66.692 134.33 
L 134.33 134.33 
L 134.33 201.968 
L 66.692 201.968 
L 66.692 134.33 
" clip-path="url(#p64786e5d98)" style="fill: none"/>
    <path d="M 134.33 134.33 
L 201.968 134.33 
L 201.968 201.968 
L 134.33 201.968 
L 134.33 134.33 
" clip-path="url(#p64786e5d98)"/>
    <path d="M 201.968 134.33 
L 269.606 134.33 
L 269.606 201.968 
L 201.968 201.968 
L 201.968 134.33 
" clip-path="url(#p64786e5d98)" style="fill: none"/>
    <path d="M 269.606 134.33 
L 337.244 134.33 
L 337.244 201.968 
L 269.606 201.968 
L 269.606 134.33 
" clip-path="url(#p64786e5d98)" style="fill: none"/>
    <path d="M 337.244 134.33 
L 404.882 134.33 
L 404.882 201.968 
L 337.244 201.968 
L 337.244 134.33 
" clip-path="url(#p64786e5d98)" style="fill: none"/>
    <path d="M 404.882 134.33 
L 472.52 134.33 
L 472.52 201.968 
L 404.882 201.968 
L 404.882 134.33 
" clip-path="url(#p64786e5d98)" style="fill: none"/>
    <path d="M 66.692 201.968 
L 134.33 201.968 
L 134.33 269.606 
L 66.692 269.606 
L 66.692 201.968 
" clip-path="url(#p64786e5d98)" style="fill: none"/>
    <path d="M 134.33 201.968 
L 201.968 201.968 
L 201.968 269.606 
L 134.33 269.606 
L 134.33 201.968 
" clip-path="url(#p64786e5d98)" style="fill: none"/>
    <path d="M 201.968 201.968 
L 269.606 201.968 
L 269.606 269.606 
L 201.968 269.606 
L 201.968 201.968 
" clip-path="url(#p64786e5d98)"/>
    <path d="M 269.606 201.968 
L 337.244 201.968 
L 337.244 269.606 
L 269.606 269.606 
L 269.606 201.968 
" clip-path="url(#p64786e5d98)" style="fill: none"/>
    <path d="M 337.244 201.968 
L 404.882 201.968 
L 404.882 269.606 
L 337.244 269.606 
L 337.244 201.968 
" clip-path="url(#p64786e5d98)" style="fill: none"/>
    <path d="M 404.882 201.968 
L 472.52 201.968 
L 472.52 269.606 
L 404.882 269.606 
L 404.882 201.968 
" clip-path="url(#p64786e5d98)" style="fill: none"/>
    <path d="M 66.692 269.606 
L 134.33 269.606 
L 134.33 337.244 
L 66.692 337.244 
L 66.692 269.606 
" clip-path="url(#p64786e5d98)" style="fill: none"/>
    <path d="M 134.33 269.606 
L 201.968 269.606 
L 201.968 337.244 
L 134.33 337.244 
L 134.33 269.606 
" clip-path="url(#p64786e5d98)" style="fill: none"/>
    <path d="M 201.968 269.606 
L 269.606 269.606 
L 269.606 337.244 
L 201.968 337.244 
L 201.968 269.606 
" clip-path="url(#p64786e5d98)" style="fill: none"/>
    <path d="M 269.606 269.606 
L 337.244 269.606 
L 337.244 337.244 
L 269.606 337.244 
L 269.606 269.606 
" clip-path="url(#p64786e5d98)"/>
    <path d="M 337.244 269.606 
L 404.882 269.606 
L 404.882 337.244 
L 337.244 337.244 
L 337.244 269.606 
" clip-path="url(#p64786e5d98)" style="fill: none"/>
    <path d="M 404.882 269.606 
L 472.52 269.606 
L 472.52 337.244 
L 404.882 337.244 
L 404.882 269.606 
" clip-path="url(#p64786e5d98)" style="fill: none"/>
    <path d="M 66.692 337.244 
L 134.33 337.244 
L 134.33 404.882 
L 66.692 404.882 
L 66.692 337.244 
" clip-path="url(#p64786e5d98)" style="fill: none"/>
    <path d="M 134.33 337.244 
L 201.968 337.244 
L 201.968 404.882 
L 134.33 404.882 
L 134.33 337.244 
" clip-path="url(#p64786e5d98)" style="fill: none"/>
    <path d="M 201.968 337.244 
L 269.606 337.244 
L 269.606 404.882 
L 201.968 404.882 
L 201.968 337.244 
" clip-path="url(#p64786e5d98)" style="fill: none"/>
    <path d="M 269.606 337.244 
L 337.244 337.244 
L 337.244 404.882 
L 269.606 404.882 
L 269.606 337.244 
" clip-path="url(#p64786e5d98)" style="fill: none"/>
    <path d="M 337.244 337.244 
L 404.882 337.244 
L 404.882 404.882 
L 337.244 404.882 
L 337.244 337.244 
" clip-path="url(#p64786e5d98)"/>
    <path d="M 404.882 337.244 
L 472.52 337.244 
L 472.52 404.882 
L 404.882 404.882 
L 404.882 337.244 
" clip-path="url(#p64786e5d98)" style="fill: none"/>
    <path d="M 66.692 404.882 
L 134.33 404.882 
L 134.33 472.52 
L 66.692 472.52 
L 66.692 404.882 
" clip-path="url(#p64786e5d98)" style="fill: none"/>
    <path d="M 134.33 404.882 
L 201.968 404.882 
L 201.968 472.52 
L 134.33 472.52 
L 134.33 404.882 
" clip-path="url(#p64786e5d98)" style="fill: none"/>
    <path d="M 201.968 404.882 
L 269.606 404.882 
L 269.606 472.52 
L 201.968 472.52 
L 201.968 404.882 
" clip-path="url(#p64786e5d98)" style="fill: none"/>
    <path d="M 269.606 404.882 
L 337.244 404.882 
L 337.244 472.52 
L 269.606 472.52 
L 269.606 404.882 
" clip-path="url(#p64786e5d98)" style="fill: none"/>
    <path d="M 337.244 404.882 
L 404.882 404.882 
L 404.882 472.52 
L 337.244 472.52 
L 337.244 404.882 
" clip-path="url(#p64786e5d98)" style="fill: none"/>
    <path d="M 404.882 404.882 
L 472.52 404.882 
L 472.52 472.52 
L 404.882 472.52 
L 404.882 404.882 
" clip-path="url(#p64786e5d98)"/>
   </g>
   <g id="matplotlib.axis_1">
    <g id="xtick_1">
     <g id="line2d_1">
      <defs>
       <path id="m198770706c" d="M 0 0 
L 0 3.5 
" style="stroke: #000000; stroke-width: 0.8"/>
      </defs>
      <g>
       <use xlink:href="#m198770706c" x="100.511" y="472.52" style="stroke: #000000; stroke-width: 0.8"/>
      </g>
     </g>
     <g id="text_1">
      <text style="font: 14px 'Arial', 'Helvetica', 'DejaVu Sans', sans-serif; text-anchor: middle" x="100.511" y="490.157812" transform="rotate(-0 100.511 490.157812)">HOOK1</text>
     </g>
    </g>
    <g id="xtick_2">
     <g id="line2d_2">
      <g>
       <use xlink:href="#m198770706c" x="168.149" y="472.52" style="stroke: #000000; stroke-width: 0.8"/>
      </g>
     </g>
     <g id="text_2">
      <text style="font: 14px 'Arial', 'Helvetica', 'DejaVu Sans', sans-serif; text-anchor: middle" x="168.149" y="490.157812" transform="rotate(-0 168.149 490.157812)">SPDL1</text>
     </g>
    </g>
    <g id="xtick_3">
     <g id="line2d_3">
      <g>
       <use xlink:href="#m198770706c" x="235.787" y="472.52" style="stroke: #000000; stroke-width: 0.8"/>
      </g>
     </g>
     <g id="text_3">
      <text style="font: 14px 'Arial', 'Helvetica', 'DejaVu Sans', sans-serif; text-anchor: middle" x="235.787" y="490.157812" transform="rotate(-0 235.787 490.157812)">HOOK2</text>
     </g>
    </g>
    <g id="xtick_4">
     <g id="line2d_4">
      <g>
       <use xlink:href="#m198770706c" x="303.425" y="472.52" style="stroke: #000000; stroke-width: 0.8"/>
      </g>
     </g>
     <g id="text_4">
      <text style="font: 14px 'Arial', 'Helvetica', 'DejaVu Sans', sans-serif; text-anchor: middle" x="303.425" y="490.157812" transform="rotate(-0 303.425 490.157812)">NDEL1</text>
     </g>
    </g>
    <g id="xtick_5">
     <g id="line2d_5">
      <g>
       <use xlink:href="#m198770706c" x="371.063" y="472.52" style="stroke: #000000; stroke-width: 0.8"/>
      </g>
     </g>
     <g id="text_5">
      <text style="font: 14px 'Arial', 'Helvetica', 'DejaVu Sans', sans-serif; text-anchor: middle" x="371.063" y="490.157812" transform="rotate(-0 371.063 490.157812)">PAFAH1B1</text>
     </g>
    </g>
    <g id="xtick_6">
     <g id="line2d_6">
      <g>
       <use xlink:href="#m198770706c" x="438.701" y="472.52" style="stroke: #000000; stroke-width: 0.8"/>
      </g>
     </g>
     <g id="text_6">
      <text style="font: 14px 'Arial', 'Helvetica', 'DejaVu Sans', sans-serif; text-anchor: middle" x="438.701" y="490.157812" transform="rotate(-0 438.701 490.157812)">NDE1</text>
     </g>
    </g>
   </g>
   <g id="matplotlib.axis_2">
    <g id="ytick_1">
     <g id="line2d_7">
      <defs>
       <path id="ma34fef2cdd" d="M 0 0 
L 3.5 0 
" style="stroke: #000000; stroke-width: 0.8"/>
      </defs>
      <g>
       <use xlink:href="#ma34fef2cdd" x="472.52" y="100.511" style="stroke: #000000; stroke-width: 0.8"/>
      </g>
     </g>
     <g id="text_7">
      <text style="font: 14px 'Arial', 'Helvetica', 'DejaVu Sans', sans-serif" transform="translate(490.157812 125.840063) rotate(-90)">HOOK1</text>
     </g>
    </g>
    <g id="ytick_2">
     <g id="line2d_8">
      <g>
       <use xlink:href="#ma34fef2cdd" x="472.52" y="168.149" style="stroke: #000000; stroke-width: 0.8"/>
      </g>
     </g>
     <g id="text_8">
      <text style="font: 14px 'Arial', 'Helvetica', 'DejaVu Sans', sans-serif" transform="translate(490.157812 190.55775) rotate(-90)">SPDL1</text>
     </g>
    </g>
    <g id="ytick_3">
     <g id="line2d_9">
      <g>
       <use xlink:href="#ma34fef2cdd" x="472.52" y="235.787" style="stroke: #000000; stroke-width: 0.8"/>
      </g>
     </g>
     <g id="text_9">
      <text style="font: 14px 'Arial', 'Helvetica', 'DejaVu Sans', sans-serif" transform="translate(490.157812 261.116062) rotate(-90)">HOOK2</text>
     </g>
    </g>
    <g id="ytick_4">
     <g id="line2d_10">
      <g>
       <use xlink:href="#ma34fef2cdd" x="472.52" y="303.425" style="stroke: #000000; stroke-width: 0.8"/>
      </g>
     </g>
     <g id="text_10">
      <text style="font: 14px 'Arial', 'Helvetica', 'DejaVu Sans', sans-serif" transform="translate(490.157812 326.829062) rotate(-90)">NDEL1</text>
     </g>
    </g>
    <g id="ytick_5">
     <g id="line2d_11">
      <g>
       <use xlink:href="#ma34fef2cdd" x="472.52" y="371.063" style="stroke: #000000; stroke-width: 0.8"/>
      </g>
     </g>
     <g id="text_11">
      <text style="font: 14px 'Arial', 'Helvetica', 'DejaVu Sans', sans-serif" transform="translate(490.157812 406.776125) rotate(-90)">PAFAH1B1</text>
     </g>
    </g>
    <g id="ytick_6">
     <g id="line2d_12">
      <g>
       <use xlink:href="#ma34fef2cdd" x="472.52" y="438.701" style="stroke: #000000; stroke-width: 0.8"/>
      </g>
     </g>
     <g id="text_12">
      <text style="font: 14px 'Arial', 'Helvetica', 'DejaVu Sans', sans-serif" transform="translate(490.157812 458.20475) rotate(-90)">NDE1</text>
     </g>
    </g>
   </g>
   <g id="text_13">
    <text style="fill: #ffffff; font: 20px 'Arial', 'Helvetica', 'DejaVu Sans', sans-serif; text-anchor: middle" x="168.149" y="106.02975" transform="rotate(-0 168.149 106.02975)">1.00</text>
   </g>
   <g id="text_14">
    <text style="fill: #ffffff; font: 20px 'Arial', 'Helvetica', 'DejaVu Sans', sans-serif; text-anchor: middle" x="235.787" y="106.02975" transform="rotate(-0 235.787 106.02975)">1.00</text>
   </g>
   <g id="text_15">
    <text style="fill: #ffffff; font: 20px 'Arial', 'Helvetica', 'DejaVu Sans', sans-serif; text-anchor: middle" x="303.425" y="106.02975" transform="rotate(-0 303.425 106.02975)">0.00</text>
   </g>
   <g id="text_16">
    <text style="fill: #ffffff; font: 20px 'Arial', 'Helvetica', 'DejaVu Sans', sans-serif; text-anchor: middle" x="371.063" y="106.02975" transform="rotate(-0 371.063 106.02975)">0.00</text>
   </g>
   <g id="text_17">
    <text style="fill: #ffffff; font: 20px 'Arial', 'Helvetica', 'DejaVu Sans', sans-serif; text-anchor: middle" x="438.701" y="106.02975" transform="rotate(-0 438.701 106.02975)">0.00</text>
   </g>
   <g id="text_18">
    <text style="fill: #ffffff; font: 20px 'Arial', 'Helvetica', 'DejaVu Sans', sans-serif; text-anchor: middle" x="235.787" y="173.66775" transform="rotate(-0 235.787 173.66775)">1.00</text>
   </g>
   <g id="text_19">
    <text style="fill: #ffffff; font: 20px 'Arial', 'Helvetica', 'DejaVu Sans', sans-serif; text-anchor: middle" x="303.425" y="173.66775" transform="rotate(-0 303.425 173.66775)">0.00</text>
   </g>
   <g id="text_20">
    <text style="fill: #ffffff; font: 20px 'Arial', 'Helvetica', 'DejaVu Sans', sans-serif; text-anchor: middle" x="371.063" y="173.66775" transform="rotate(-0 371.063 173.66775)">0.00</text>
   </g>
   <g id="text_21">
    <text style="fill: #ffffff; font: 20px 'Arial', 'Helvetica', 'DejaVu Sans', sans-serif; text-anchor: middle" x="438.701" y="173.66775" transform="rotate(-0 438.701 173.66775)">0.00</text>
   </g>
   <g id="text_22">
    <text style="fill: #ffffff; font: 20px 'Arial', 'Helvetica', 'DejaVu Sans', sans-serif; text-anchor: middle" x="303.425" y="241.30575" transform="rotate(-0 303.425 241.30575)">0.00</text>
   </g>
   <g id="text_23">
    <text style="fill: #ffffff; font: 20px 'Arial', 'Helvetica', 'DejaVu Sans', sans-serif; text-anchor: middle" x="371.063" y="241.30575" transform="rotate(-0 371.063 241.30575)">0.00</text>
   </g>
   <g id="text_24">
    <text style="fill: #ffffff; font: 20px 'Arial', 'Helvetica', 'DejaVu Sans', sans-serif; text-anchor: middle" x="438.701" y="241.30575" transform="rotate(-0 438.701 241.30575)">0.00</text>
   </g>
   <g id="text_25">
    <text style="fill: #ffffff; font: 20px 'Arial', 'Helvetica', 'DejaVu Sans', sans-serif; text-anchor: middle" x="371.063" y="308.94375" transform="rotate(-0 371.063 308.94375)">1.00</text>
   </g>
   <g id="text_26">
    <text style="fill: #ffffff; font: 20px 'Arial', 'Helvetica', 'DejaVu Sans', sans-serif; text-anchor: middle" x="438.701" y="308.94375" transform="rotate(-0 438.701 308.94375)">1.00</text>
   </g>
   <g id="text_27">
    <text style="fill: #ffffff; font: 20px 'Arial', 'Helvetica', 'DejaVu Sans', sans-serif; text-anchor: middle" x="438.701" y="376.58175" transform="rotate(-0 438.701 376.58175)">1.00</text>
   </g>
   <g id="text_28">
    <text style="fill: #ffffff; font: 20px 'Arial', 'Helvetica', 'DejaVu Sans', sans-serif; text-anchor: middle" x="100.511" y="173.66775" transform="rotate(-0 100.511 173.66775)">0.61</text>
   </g>
   <g id="text_29">
    <text style="fill: #ffffff; font: 20px 'Arial', 'Helvetica', 'DejaVu Sans', sans-serif; text-anchor: middle" x="100.511" y="241.30575" transform="rotate(-0 100.511 241.30575)">0.73</text>
   </g>
   <g id="text_30">
    <text style="fill: #262626; font: 20px 'Arial', 'Helvetica', 'DejaVu Sans', sans-serif; text-anchor: middle" x="168.149" y="241.30575" transform="rotate(-0 168.149 241.30575)">0.36</text>
   </g>
   <g id="text_31">
    <text style="fill: #ffffff; font: 20px 'Arial', 'Helvetica', 'DejaVu Sans', sans-serif; text-anchor: middle" x="100.511" y="308.94375" transform="rotate(-0 100.511 308.94375)">0.74</text>
   </g>
   <g id="text_32">
    <text style="fill: #ffffff; font: 20px 'Arial', 'Helvetica', 'DejaVu Sans', sans-serif; text-anchor: middle" x="168.149" y="308.94375" transform="rotate(-0 168.149 308.94375)">0.83</text>
   </g>
   <g id="text_33">
    <text style="fill: #262626; font: 20px 'Arial', 'Helvetica', 'DejaVu Sans', sans-serif; text-anchor: middle" x="235.787" y="308.94375" transform="rotate(-0 235.787 308.94375)">0.41</text>
   </g>
   <g id="text_34">
    <text style="fill: #ffffff; font: 20px 'Arial', 'Helvetica', 'DejaVu Sans', sans-serif; text-anchor: middle" x="100.511" y="376.58175" transform="rotate(-0 100.511 376.58175)">0.62</text>
   </g>
   <g id="text_35">
    <text style="fill: #ffffff; font: 20px 'Arial', 'Helvetica', 'DejaVu Sans', sans-serif; text-anchor: middle" x="168.149" y="376.58175" transform="rotate(-0 168.149 376.58175)">0.73</text>
   </g>
   <g id="text_36">
    <text style="fill: #262626; font: 20px 'Arial', 'Helvetica', 'DejaVu Sans', sans-serif; text-anchor: middle" x="235.787" y="376.58175" transform="rotate(-0 235.787 376.58175)">0.33</text>
   </g>
   <g id="text_37">
    <text style="fill: #ffffff; font: 20px 'Arial', 'Helvetica', 'DejaVu Sans', sans-serif; text-anchor: middle" x="303.425" y="376.58175" transform="rotate(-0 303.425 376.58175)">0.95</text>
   </g>
   <g id="text_38">
    <text style="fill: #ffffff; font: 20px 'Arial', 'Helvetica', 'DejaVu Sans', sans-serif; text-anchor: middle" x="100.511" y="444.21975" transform="rotate(-0 100.511 444.21975)">0.57</text>
   </g>
   <g id="text_39">
    <text style="fill: #ffffff; font: 20px 'Arial', 'Helvetica', 'DejaVu Sans', sans-serif; text-anchor: middle" x="168.149" y="444.21975" transform="rotate(-0 168.149 444.21975)">0.87</text>
   </g>
   <g id="text_40">
    <text style="fill: #262626; font: 20px 'Arial', 'Helvetica', 'DejaVu Sans', sans-serif; text-anchor: middle" x="235.787" y="444.21975" transform="rotate(-0 235.787 444.21975)">0.34</text>
   </g>
   <g id="text_41">
    <text style="fill: #ffffff; font: 20px 'Arial', 'Helvetica', 'DejaVu Sans', sans-serif; text-anchor: middle" x="303.425" y="444.21975" transform="rotate(-0 303.425 444.21975)">0.94</text>
   </g>
   <g id="text_42">
    <text style="fill: #ffffff; font: 20px 'Arial', 'Helvetica', 'DejaVu Sans', sans-serif; text-anchor: middle" x="371.063" y="444.21975" transform="rotate(-0 371.063 444.21975)">0.88</text>
   </g>
   <g id="text_43">
    <text style="fill: #ffffff; font: 20px 'Arial', 'Helvetica', 'DejaVu Sans', sans-serif; text-anchor: middle" x="100.511" y="106.02975" transform="rotate(-0 100.511 106.02975)">1</text>
   </g>
   <g id="text_44">
    <text style="fill: #ffffff; font: 20px 'Arial', 'Helvetica', 'DejaVu Sans', sans-serif; text-anchor: middle" x="168.149" y="173.66775" transform="rotate(-0 168.149 173.66775)">1</text>
   </g>
   <g id="text_45">
    <text style="fill: #ffffff; font: 20px 'Arial', 'Helvetica', 'DejaVu Sans', sans-serif; text-anchor: middle" x="235.787" y="241.30575" transform="rotate(-0 235.787 241.30575)">1</text>
   </g>
   <g id="text_46">
    <text style="fill: #ffffff; font: 20px 'Arial', 'Helvetica', 'DejaVu Sans', sans-serif; text-anchor: middle" x="303.425" y="308.94375" transform="rotate(-0 303.425 308.94375)">1</text>
   </g>
   <g id="text_47">
    <text style="fill: #ffffff; font: 20px 'Arial', 'Helvetica', 'DejaVu Sans', sans-serif; text-anchor: middle" x="371.063" y="376.58175" transform="rotate(-0 371.063 376.58175)">1</text>
   </g>
   <g id="text_48">
    <text style="fill: #ffffff; font: 20px 'Arial', 'Helvetica', 'DejaVu Sans', sans-serif; text-anchor: middle" x="438.701" y="444.21975" transform="rotate(-0 438.701 444.21975)">1</text>
   </g>
  </g>
 </g>
 <defs>
  <clipPath id="p50ca7332b6">
   <rect x="10.8" y="66.692" width="45.092" height="405.828"/>
  </clipPath>
  <clipPath id="pd71000b7b4">
   <rect x="66.692" y="10.8" width="405.828" height="45.092"/>
  </clipPath>
  <clipPath id="p64786e5d98">
   <rect x="66.692" y="66.692" width="405.828" height="405.828"/>
  </clipPath>
 </defs>
</svg>
