<?xml version="1.0" encoding="utf-8" standalone="no"?>
<!DOCTYPE svg PUBLIC "-//W3C//DTD SVG 1.1//EN"
  "http://www.w3.org/Graphics/SVG/1.1/DTD/svg11.dtd">
<svg xmlns:xlink="http://www.w3.org/1999/xlink" width="648pt" height="648pt" viewBox="0 0 648 648" xmlns="http://www.w3.org/2000/svg" version="1.1">
 <metadata>
  <rdf:RDF xmlns:dc="http://purl.org/dc/elements/1.1/" xmlns:cc="http://creativecommons.org/ns#" xmlns:rdf="http://www.w3.org/1999/02/22-rdf-syntax-ns#">
   <cc:Work>
    <dc:type rdf:resource="http://purl.org/dc/dcmitype/StillImage"/>
    <dc:date>2025-06-30T13:29:40.840972</dc:date>
    <dc:format>image/svg+xml</dc:format>
    <dc:creator>
     <cc:Agent>
      <dc:title>Matplotlib v3.6.2, https://matplotlib.org/</dc:title>
     </cc:Agent>
    </dc:creator>
   </cc:Work>
  </rdf:RDF>
 </metadata>
 <defs>
  <style type="text/css">*{stroke-linejoin: round; stroke-linecap: butt}</style>
 </defs>
 <g id="figure_1">
  <g id="patch_1">
   <path d="M 0 648 
L 648 648 
L 648 0 
L 0 0 
z
" style="fill: #ffffff"/>
  </g>
  <g id="axes_1">
   <g id="LineCollection_1">
    <path d="M 70.292 181.48475 
L 38.227834 181.48475 
L 38.227834 248.41325 
L 70.292 248.41325 
" clip-path="url(#p29ee93b68e)" style="fill: none; stroke: #333333; stroke-width: 0.5"/>
    <path d="M 70.292 114.55625 
L 23.372876 114.55625 
L 23.372876 214.949 
L 38.227834 214.949 
" clip-path="url(#p29ee93b68e)" style="fill: none; stroke: #333333; stroke-width: 0.5"/>
    <path d="M 70.292 516.12725 
L 42.095634 516.12725 
L 42.095634 583.05575 
L 70.292 583.05575 
" clip-path="url(#p29ee93b68e)" style="fill: none; stroke: #333333; stroke-width: 0.5"/>
    <path d="M 70.292 449.19875 
L 29.029316 449.19875 
L 29.029316 549.5915 
L 42.095634 549.5915 
" clip-path="url(#p29ee93b68e)" style="fill: none; stroke: #333333; stroke-width: 0.5"/>
    <path d="M 70.292 382.27025 
L 27.706369 382.27025 
L 27.706369 499.395125 
L 29.029316 499.395125 
" clip-path="url(#p29ee93b68e)" style="fill: none; stroke: #333333; stroke-width: 0.5"/>
    <path d="M 70.292 315.34175 
L 19.370552 315.34175 
L 19.370552 440.832687 
L 27.706369 440.832687 
" clip-path="url(#p29ee93b68e)" style="fill: none; stroke: #333333; stroke-width: 0.5"/>
    <path d="M 23.372876 164.752625 
L 13.632952 164.752625 
L 13.632952 378.087219 
L 19.370552 378.087219 
" clip-path="url(#p29ee93b68e)" style="fill: none; stroke: #333333; stroke-width: 0.5"/>
   </g>
  </g>
  <g id="axes_2">
   <g id="LineCollection_2">
    <path d="M 181.48475 70.292 
L 181.48475 38.227833 
L 248.41325 38.227833 
L 248.41325 70.292 
" clip-path="url(#pb84d3484d2)" style="fill: none; stroke: #333333; stroke-width: 0.5"/>
    <path d="M 114.55625 70.292 
L 114.55625 23.372876 
L 214.949 23.372876 
L 214.949 38.227833 
" clip-path="url(#pb84d3484d2)" style="fill: none; stroke: #333333; stroke-width: 0.5"/>
    <path d="M 516.12725 70.292 
L 516.12725 42.095634 
L 583.05575 42.095634 
L 583.05575 70.292 
" clip-path="url(#pb84d3484d2)" style="fill: none; stroke: #333333; stroke-width: 0.5"/>
    <path d="M 449.19875 70.292 
L 449.19875 29.029316 
L 549.5915 29.029316 
L 549.5915 42.095634 
" clip-path="url(#pb84d3484d2)" style="fill: none; stroke: #333333; stroke-width: 0.5"/>
    <path d="M 382.27025 70.292 
L 382.27025 27.706369 
L 499.395125 27.706369 
L 499.395125 29.029316 
" clip-path="url(#pb84d3484d2)" style="fill: none; stroke: #333333; stroke-width: 0.5"/>
    <path d="M 315.34175 70.292 
L 315.34175 19.370552 
L 440.832687 19.370552 
L 440.832687 27.706369 
" clip-path="url(#pb84d3484d2)" style="fill: none; stroke: #333333; stroke-width: 0.5"/>
    <path d="M 164.752625 23.372876 
L 164.752625 13.632952 
L 378.087219 13.632952 
L 378.087219 19.370552 
" clip-path="url(#pb84d3484d2)" style="fill: none; stroke: #333333; stroke-width: 0.5"/>
   </g>
  </g>
  <g id="axes_3">
   <g id="patch_2">
    <path d="M 81.092 616.52 
L 616.52 616.52 
L 616.52 81.092 
L 81.092 81.092 
z
" style="fill: #ffffff"/>
   </g>
   <g id="QuadMesh_1">
    <path d="M 81.092 81.092 
L 148.0205 81.092 
L 148.0205 148.0205 
L 81.092 148.0205 
L 81.092 81.092 
" clip-path="url(#pd27c2791b3)" style="fill: #67001f"/>
    <path d="M 148.0205 81.092 
L 214.949 81.092 
L 214.949 148.0205 
L 148.0205 148.0205 
L 148.0205 81.092 
" clip-path="url(#pd27c2791b3)" style="fill: #08366a"/>
    <path d="M 214.949 81.092 
L 281.8775 81.092 
L 281.8775 148.0205 
L 214.949 148.0205 
L 214.949 81.092 
" clip-path="url(#pd27c2791b3)" style="fill: #3681ba"/>
    <path d="M 281.8775 81.092 
L 348.806 81.092 
L 348.806 148.0205 
L 281.8775 148.0205 
L 281.8775 81.092 
" clip-path="url(#pd27c2791b3)" style="fill: #67001f"/>
    <path d="M 348.806 81.092 
L 415.7345 81.092 
L 415.7345 148.0205 
L 348.806 148.0205 
L 348.806 81.092 
" clip-path="url(#pd27c2791b3)" style="fill: #760521"/>
    <path d="M 415.7345 81.092 
L 482.663 81.092 
L 482.663 148.0205 
L 415.7345 148.0205 
L 415.7345 81.092 
" clip-path="url(#pd27c2791b3)" style="fill: #67001f"/>
    <path d="M 482.663 81.092 
L 549.5915 81.092 
L 549.5915 148.0205 
L 482.663 148.0205 
L 482.663 81.092 
" clip-path="url(#pd27c2791b3)" style="fill: #67001f"/>
    <path d="M 549.5915 81.092 
L 616.52 81.092 
L 616.52 148.0205 
L 549.5915 148.0205 
L 549.5915 81.092 
" clip-path="url(#pd27c2791b3)" style="fill: #facab1"/>
    <path d="M 81.092 148.0205 
L 148.0205 148.0205 
L 148.0205 214.949 
L 81.092 214.949 
L 81.092 148.0205 
" clip-path="url(#pd27c2791b3)" style="fill: #08366a"/>
    <path d="M 148.0205 148.0205 
L 214.949 148.0205 
L 214.949 214.949 
L 148.0205 214.949 
L 148.0205 148.0205 
" clip-path="url(#pd27c2791b3)" style="fill: #67001f"/>
    <path d="M 214.949 148.0205 
L 281.8775 148.0205 
L 281.8775 214.949 
L 214.949 214.949 
L 214.949 148.0205 
" clip-path="url(#pd27c2791b3)" style="fill: #f5ac8b"/>
    <path d="M 281.8775 148.0205 
L 348.806 148.0205 
L 348.806 214.949 
L 281.8775 214.949 
L 281.8775 148.0205 
" clip-path="url(#pd27c2791b3)" style="fill: #67001f"/>
    <path d="M 348.806 148.0205 
L 415.7345 148.0205 
L 415.7345 214.949 
L 348.806 214.949 
L 348.806 148.0205 
" clip-path="url(#pd27c2791b3)" style="fill: #810823"/>
    <path d="M 415.7345 148.0205 
L 482.663 148.0205 
L 482.663 214.949 
L 415.7345 214.949 
L 415.7345 148.0205 
" clip-path="url(#pd27c2791b3)" style="fill: #67001f"/>
    <path d="M 482.663 148.0205 
L 549.5915 148.0205 
L 549.5915 214.949 
L 482.663 214.949 
L 482.663 148.0205 
" clip-path="url(#pd27c2791b3)" style="fill: #67001f"/>
    <path d="M 549.5915 148.0205 
L 616.52 148.0205 
L 616.52 214.949 
L 549.5915 214.949 
L 549.5915 148.0205 
" clip-path="url(#pd27c2791b3)" style="fill: #8a0b25"/>
    <path d="M 81.092 214.949 
L 148.0205 214.949 
L 148.0205 281.8775 
L 81.092 281.8775 
L 81.092 214.949 
" clip-path="url(#pd27c2791b3)" style="fill: #3681ba"/>
    <path d="M 148.0205 214.949 
L 214.949 214.949 
L 214.949 281.8775 
L 148.0205 281.8775 
L 148.0205 214.949 
" clip-path="url(#pd27c2791b3)" style="fill: #f5ac8b"/>
    <path d="M 214.949 214.949 
L 281.8775 214.949 
L 281.8775 281.8775 
L 214.949 281.8775 
L 214.949 214.949 
" clip-path="url(#pd27c2791b3)" style="fill: #67001f"/>
    <path d="M 281.8775 214.949 
L 348.806 214.949 
L 348.806 281.8775 
L 281.8775 281.8775 
L 281.8775 214.949 
" clip-path="url(#pd27c2791b3)" style="fill: #960f27"/>
    <path d="M 348.806 214.949 
L 415.7345 214.949 
L 415.7345 281.8775 
L 348.806 281.8775 
L 348.806 214.949 
" clip-path="url(#pd27c2791b3)" style="fill: #f6f7f7"/>
    <path d="M 415.7345 214.949 
L 482.663 214.949 
L 482.663 281.8775 
L 415.7345 281.8775 
L 415.7345 214.949 
" clip-path="url(#pd27c2791b3)" style="fill: #a51429"/>
    <path d="M 482.663 214.949 
L 549.5915 214.949 
L 549.5915 281.8775 
L 482.663 281.8775 
L 482.663 214.949 
" clip-path="url(#pd27c2791b3)" style="fill: #d7634f"/>
    <path d="M 549.5915 214.949 
L 616.52 214.949 
L 616.52 281.8775 
L 549.5915 281.8775 
L 549.5915 214.949 
" clip-path="url(#pd27c2791b3)" style="fill: #3a87bd"/>
    <path d="M 81.092 281.8775 
L 148.0205 281.8775 
L 148.0205 348.806 
L 81.092 348.806 
L 81.092 281.8775 
" clip-path="url(#pd27c2791b3)" style="fill: #67001f"/>
    <path d="M 148.0205 281.8775 
L 214.949 281.8775 
L 214.949 348.806 
L 148.0205 348.806 
L 148.0205 281.8775 
" clip-path="url(#pd27c2791b3)" style="fill: #67001f"/>
    <path d="M 214.949 281.8775 
L 281.8775 281.8775 
L 281.8775 348.806 
L 214.949 348.806 
L 214.949 281.8775 
" clip-path="url(#pd27c2791b3)" style="fill: #960f27"/>
    <path d="M 281.8775 281.8775 
L 348.806 281.8775 
L 348.806 348.806 
L 281.8775 348.806 
L 281.8775 281.8775 
" clip-path="url(#pd27c2791b3)" style="fill: #67001f"/>
    <path d="M 348.806 281.8775 
L 415.7345 281.8775 
L 415.7345 348.806 
L 348.806 348.806 
L 348.806 281.8775 
" clip-path="url(#pd27c2791b3)" style="fill: #073467"/>
    <path d="M 415.7345 281.8775 
L 482.663 281.8775 
L 482.663 348.806 
L 415.7345 348.806 
L 415.7345 281.8775 
" clip-path="url(#pd27c2791b3)" style="fill: #053061"/>
    <path d="M 482.663 281.8775 
L 549.5915 281.8775 
L 549.5915 348.806 
L 482.663 348.806 
L 482.663 281.8775 
" clip-path="url(#pd27c2791b3)" style="fill: #053061"/>
    <path d="M 549.5915 281.8775 
L 616.52 281.8775 
L 616.52 348.806 
L 549.5915 348.806 
L 549.5915 281.8775 
" clip-path="url(#pd27c2791b3)" style="fill: #09386d"/>
    <path d="M 81.092 348.806 
L 148.0205 348.806 
L 148.0205 415.7345 
L 81.092 415.7345 
L 81.092 348.806 
" clip-path="url(#pd27c2791b3)" style="fill: #760521"/>
    <path d="M 148.0205 348.806 
L 214.949 348.806 
L 214.949 415.7345 
L 148.0205 415.7345 
L 148.0205 348.806 
" clip-path="url(#pd27c2791b3)" style="fill: #810823"/>
    <path d="M 214.949 348.806 
L 281.8775 348.806 
L 281.8775 415.7345 
L 214.949 415.7345 
L 214.949 348.806 
" clip-path="url(#pd27c2791b3)" style="fill: #f6f7f7"/>
    <path d="M 281.8775 348.806 
L 348.806 348.806 
L 348.806 415.7345 
L 281.8775 415.7345 
L 281.8775 348.806 
" clip-path="url(#pd27c2791b3)" style="fill: #073467"/>
    <path d="M 348.806 348.806 
L 415.7345 348.806 
L 415.7345 415.7345 
L 348.806 415.7345 
L 348.806 348.806 
" clip-path="url(#pd27c2791b3)" style="fill: #67001f"/>
    <path d="M 415.7345 348.806 
L 482.663 348.806 
L 482.663 415.7345 
L 415.7345 415.7345 
L 415.7345 348.806 
" clip-path="url(#pd27c2791b3)" style="fill: #175290"/>
    <path d="M 482.663 348.806 
L 549.5915 348.806 
L 549.5915 415.7345 
L 482.663 415.7345 
L 482.663 348.806 
" clip-path="url(#pd27c2791b3)" style="fill: #063264"/>
    <path d="M 549.5915 348.806 
L 616.52 348.806 
L 616.52 415.7345 
L 549.5915 415.7345 
L 549.5915 348.806 
" clip-path="url(#pd27c2791b3)" style="fill: #f9f0eb"/>
    <path d="M 81.092 415.7345 
L 148.0205 415.7345 
L 148.0205 482.663 
L 81.092 482.663 
L 81.092 415.7345 
" clip-path="url(#pd27c2791b3)" style="fill: #67001f"/>
    <path d="M 148.0205 415.7345 
L 214.949 415.7345 
L 214.949 482.663 
L 148.0205 482.663 
L 148.0205 415.7345 
" clip-path="url(#pd27c2791b3)" style="fill: #67001f"/>
    <path d="M 214.949 415.7345 
L 281.8775 415.7345 
L 281.8775 482.663 
L 214.949 482.663 
L 214.949 415.7345 
" clip-path="url(#pd27c2791b3)" style="fill: #a51429"/>
    <path d="M 281.8775 415.7345 
L 348.806 415.7345 
L 348.806 482.663 
L 281.8775 482.663 
L 281.8775 415.7345 
" clip-path="url(#pd27c2791b3)" style="fill: #053061"/>
    <path d="M 348.806 415.7345 
L 415.7345 415.7345 
L 415.7345 482.663 
L 348.806 482.663 
L 348.806 415.7345 
" clip-path="url(#pd27c2791b3)" style="fill: #175290"/>
    <path d="M 415.7345 415.7345 
L 482.663 415.7345 
L 482.663 482.663 
L 415.7345 482.663 
L 415.7345 415.7345 
" clip-path="url(#pd27c2791b3)" style="fill: #67001f"/>
    <path d="M 482.663 415.7345 
L 549.5915 415.7345 
L 549.5915 482.663 
L 482.663 482.663 
L 482.663 415.7345 
" clip-path="url(#pd27c2791b3)" style="fill: #a9d1e5"/>
    <path d="M 549.5915 415.7345 
L 616.52 415.7345 
L 616.52 482.663 
L 549.5915 482.663 
L 549.5915 415.7345 
" clip-path="url(#pd27c2791b3)" style="fill: #569fc9"/>
    <path d="M 81.092 482.663 
L 148.0205 482.663 
L 148.0205 549.5915 
L 81.092 549.5915 
L 81.092 482.663 
" clip-path="url(#pd27c2791b3)" style="fill: #67001f"/>
    <path d="M 148.0205 482.663 
L 214.949 482.663 
L 214.949 549.5915 
L 148.0205 549.5915 
L 148.0205 482.663 
" clip-path="url(#pd27c2791b3)" style="fill: #67001f"/>
    <path d="M 214.949 482.663 
L 281.8775 482.663 
L 281.8775 549.5915 
L 214.949 549.5915 
L 214.949 482.663 
" clip-path="url(#pd27c2791b3)" style="fill: #d7634f"/>
    <path d="M 281.8775 482.663 
L 348.806 482.663 
L 348.806 549.5915 
L 281.8775 549.5915 
L 281.8775 482.663 
" clip-path="url(#pd27c2791b3)" style="fill: #053061"/>
    <path d="M 348.806 482.663 
L 415.7345 482.663 
L 415.7345 549.5915 
L 348.806 549.5915 
L 348.806 482.663 
" clip-path="url(#pd27c2791b3)" style="fill: #063264"/>
    <path d="M 415.7345 482.663 
L 482.663 482.663 
L 482.663 549.5915 
L 415.7345 549.5915 
L 415.7345 482.663 
" clip-path="url(#pd27c2791b3)" style="fill: #a9d1e5"/>
    <path d="M 482.663 482.663 
L 549.5915 482.663 
L 549.5915 549.5915 
L 482.663 549.5915 
L 482.663 482.663 
" clip-path="url(#pd27c2791b3)" style="fill: #67001f"/>
    <path d="M 549.5915 482.663 
L 616.52 482.663 
L 616.52 549.5915 
L 549.5915 549.5915 
L 549.5915 482.663 
" clip-path="url(#pd27c2791b3)" style="fill: #be3036"/>
    <path d="M 81.092 549.5915 
L 148.0205 549.5915 
L 148.0205 616.52 
L 81.092 616.52 
L 81.092 549.5915 
" clip-path="url(#pd27c2791b3)" style="fill: #facab1"/>
    <path d="M 148.0205 549.5915 
L 214.949 549.5915 
L 214.949 616.52 
L 148.0205 616.52 
L 148.0205 549.5915 
" clip-path="url(#pd27c2791b3)" style="fill: #8a0b25"/>
    <path d="M 214.949 549.5915 
L 281.8775 549.5915 
L 281.8775 616.52 
L 214.949 616.52 
L 214.949 549.5915 
" clip-path="url(#pd27c2791b3)" style="fill: #3a87bd"/>
    <path d="M 281.8775 549.5915 
L 348.806 549.5915 
L 348.806 616.52 
L 281.8775 616.52 
L 281.8775 549.5915 
" clip-path="url(#pd27c2791b3)" style="fill: #09386d"/>
    <path d="M 348.806 549.5915 
L 415.7345 549.5915 
L 415.7345 616.52 
L 348.806 616.52 
L 348.806 549.5915 
" clip-path="url(#pd27c2791b3)" style="fill: #f9f0eb"/>
    <path d="M 415.7345 549.5915 
L 482.663 549.5915 
L 482.663 616.52 
L 415.7345 616.52 
L 415.7345 549.5915 
" clip-path="url(#pd27c2791b3)" style="fill: #569fc9"/>
    <path d="M 482.663 549.5915 
L 549.5915 549.5915 
L 549.5915 616.52 
L 482.663 616.52 
L 482.663 549.5915 
" clip-path="url(#pd27c2791b3)" style="fill: #be3036"/>
    <path d="M 549.5915 549.5915 
L 616.52 549.5915 
L 616.52 616.52 
L 549.5915 616.52 
L 549.5915 549.5915 
" clip-path="url(#pd27c2791b3)" style="fill: #67001f"/>
   </g>
   <g id="QuadMesh_2">
    <path d="M 81.092 81.092 
L 148.0205 81.092 
L 148.0205 148.0205 
L 81.092 148.0205 
L 81.092 81.092 
" clip-path="url(#pd27c2791b3)" style="fill: none"/>
    <path d="M 148.0205 81.092 
L 214.949 81.092 
L 214.949 148.0205 
L 148.0205 148.0205 
L 148.0205 81.092 
" clip-path="url(#pd27c2791b3)" style="fill: #08366a"/>
    <path d="M 214.949 81.092 
L 281.8775 81.092 
L 281.8775 148.0205 
L 214.949 148.0205 
L 214.949 81.092 
" clip-path="url(#pd27c2791b3)" style="fill: #3681ba"/>
    <path d="M 281.8775 81.092 
L 348.806 81.092 
L 348.806 148.0205 
L 281.8775 148.0205 
L 281.8775 81.092 
" clip-path="url(#pd27c2791b3)" style="fill: #67001f"/>
    <path d="M 348.806 81.092 
L 415.7345 81.092 
L 415.7345 148.0205 
L 348.806 148.0205 
L 348.806 81.092 
" clip-path="url(#pd27c2791b3)" style="fill: #760521"/>
    <path d="M 415.7345 81.092 
L 482.663 81.092 
L 482.663 148.0205 
L 415.7345 148.0205 
L 415.7345 81.092 
" clip-path="url(#pd27c2791b3)" style="fill: #67001f"/>
    <path d="M 482.663 81.092 
L 549.5915 81.092 
L 549.5915 148.0205 
L 482.663 148.0205 
L 482.663 81.092 
" clip-path="url(#pd27c2791b3)" style="fill: #67001f"/>
    <path d="M 549.5915 81.092 
L 616.52 81.092 
L 616.52 148.0205 
L 549.5915 148.0205 
L 549.5915 81.092 
" clip-path="url(#pd27c2791b3)" style="fill: #facab1"/>
    <path d="M 81.092 148.0205 
L 148.0205 148.0205 
L 148.0205 214.949 
L 81.092 214.949 
L 81.092 148.0205 
" clip-path="url(#pd27c2791b3)" style="fill: none"/>
    <path d="M 148.0205 148.0205 
L 214.949 148.0205 
L 214.949 214.949 
L 148.0205 214.949 
L 148.0205 148.0205 
" clip-path="url(#pd27c2791b3)" style="fill: none"/>
    <path d="M 214.949 148.0205 
L 281.8775 148.0205 
L 281.8775 214.949 
L 214.949 214.949 
L 214.949 148.0205 
" clip-path="url(#pd27c2791b3)" style="fill: #f5ac8b"/>
    <path d="M 281.8775 148.0205 
L 348.806 148.0205 
L 348.806 214.949 
L 281.8775 214.949 
L 281.8775 148.0205 
" clip-path="url(#pd27c2791b3)" style="fill: #67001f"/>
    <path d="M 348.806 148.0205 
L 415.7345 148.0205 
L 415.7345 214.949 
L 348.806 214.949 
L 348.806 148.0205 
" clip-path="url(#pd27c2791b3)" style="fill: #810823"/>
    <path d="M 415.7345 148.0205 
L 482.663 148.0205 
L 482.663 214.949 
L 415.7345 214.949 
L 415.7345 148.0205 
" clip-path="url(#pd27c2791b3)" style="fill: #67001f"/>
    <path d="M 482.663 148.0205 
L 549.5915 148.0205 
L 549.5915 214.949 
L 482.663 214.949 
L 482.663 148.0205 
" clip-path="url(#pd27c2791b3)" style="fill: #67001f"/>
    <path d="M 549.5915 148.0205 
L 616.52 148.0205 
L 616.52 214.949 
L 549.5915 214.949 
L 549.5915 148.0205 
" clip-path="url(#pd27c2791b3)" style="fill: #8a0b25"/>
    <path d="M 81.092 214.949 
L 148.0205 214.949 
L 148.0205 281.8775 
L 81.092 281.8775 
L 81.092 214.949 
" clip-path="url(#pd27c2791b3)" style="fill: none"/>
    <path d="M 148.0205 214.949 
L 214.949 214.949 
L 214.949 281.8775 
L 148.0205 281.8775 
L 148.0205 214.949 
" clip-path="url(#pd27c2791b3)" style="fill: none"/>
    <path d="M 214.949 214.949 
L 281.8775 214.949 
L 281.8775 281.8775 
L 214.949 281.8775 
L 214.949 214.949 
" clip-path="url(#pd27c2791b3)" style="fill: none"/>
    <path d="M 281.8775 214.949 
L 348.806 214.949 
L 348.806 281.8775 
L 281.8775 281.8775 
L 281.8775 214.949 
" clip-path="url(#pd27c2791b3)" style="fill: #960f27"/>
    <path d="M 348.806 214.949 
L 415.7345 214.949 
L 415.7345 281.8775 
L 348.806 281.8775 
L 348.806 214.949 
" clip-path="url(#pd27c2791b3)" style="fill: #f6f7f7"/>
    <path d="M 415.7345 214.949 
L 482.663 214.949 
L 482.663 281.8775 
L 415.7345 281.8775 
L 415.7345 214.949 
" clip-path="url(#pd27c2791b3)" style="fill: #a51429"/>
    <path d="M 482.663 214.949 
L 549.5915 214.949 
L 549.5915 281.8775 
L 482.663 281.8775 
L 482.663 214.949 
" clip-path="url(#pd27c2791b3)" style="fill: #d7634f"/>
    <path d="M 549.5915 214.949 
L 616.52 214.949 
L 616.52 281.8775 
L 549.5915 281.8775 
L 549.5915 214.949 
" clip-path="url(#pd27c2791b3)" style="fill: #3a87bd"/>
    <path d="M 81.092 281.8775 
L 148.0205 281.8775 
L 148.0205 348.806 
L 81.092 348.806 
L 81.092 281.8775 
" clip-path="url(#pd27c2791b3)" style="fill: none"/>
    <path d="M 148.0205 281.8775 
L 214.949 281.8775 
L 214.949 348.806 
L 148.0205 348.806 
L 148.0205 281.8775 
" clip-path="url(#pd27c2791b3)" style="fill: none"/>
    <path d="M 214.949 281.8775 
L 281.8775 281.8775 
L 281.8775 348.806 
L 214.949 348.806 
L 214.949 281.8775 
" clip-path="url(#pd27c2791b3)" style="fill: none"/>
    <path d="M 281.8775 281.8775 
L 348.806 281.8775 
L 348.806 348.806 
L 281.8775 348.806 
L 281.8775 281.8775 
" clip-path="url(#pd27c2791b3)" style="fill: none"/>
    <path d="M 348.806 281.8775 
L 415.7345 281.8775 
L 415.7345 348.806 
L 348.806 348.806 
L 348.806 281.8775 
" clip-path="url(#pd27c2791b3)" style="fill: #073467"/>
    <path d="M 415.7345 281.8775 
L 482.663 281.8775 
L 482.663 348.806 
L 415.7345 348.806 
L 415.7345 281.8775 
" clip-path="url(#pd27c2791b3)" style="fill: #053061"/>
    <path d="M 482.663 281.8775 
L 549.5915 281.8775 
L 549.5915 348.806 
L 482.663 348.806 
L 482.663 281.8775 
" clip-path="url(#pd27c2791b3)" style="fill: #053061"/>
    <path d="M 549.5915 281.8775 
L 616.52 281.8775 
L 616.52 348.806 
L 549.5915 348.806 
L 549.5915 281.8775 
" clip-path="url(#pd27c2791b3)" style="fill: #09386d"/>
    <path d="M 81.092 348.806 
L 148.0205 348.806 
L 148.0205 415.7345 
L 81.092 415.7345 
L 81.092 348.806 
" clip-path="url(#pd27c2791b3)" style="fill: none"/>
    <path d="M 148.0205 348.806 
L 214.949 348.806 
L 214.949 415.7345 
L 148.0205 415.7345 
L 148.0205 348.806 
" clip-path="url(#pd27c2791b3)" style="fill: none"/>
    <path d="M 214.949 348.806 
L 281.8775 348.806 
L 281.8775 415.7345 
L 214.949 415.7345 
L 214.949 348.806 
" clip-path="url(#pd27c2791b3)" style="fill: none"/>
    <path d="M 281.8775 348.806 
L 348.806 348.806 
L 348.806 415.7345 
L 281.8775 415.7345 
L 281.8775 348.806 
" clip-path="url(#pd27c2791b3)" style="fill: none"/>
    <path d="M 348.806 348.806 
L 415.7345 348.806 
L 415.7345 415.7345 
L 348.806 415.7345 
L 348.806 348.806 
" clip-path="url(#pd27c2791b3)" style="fill: none"/>
    <path d="M 415.7345 348.806 
L 482.663 348.806 
L 482.663 415.7345 
L 415.7345 415.7345 
L 415.7345 348.806 
" clip-path="url(#pd27c2791b3)" style="fill: #175290"/>
    <path d="M 482.663 348.806 
L 549.5915 348.806 
L 549.5915 415.7345 
L 482.663 415.7345 
L 482.663 348.806 
" clip-path="url(#pd27c2791b3)" style="fill: #063264"/>
    <path d="M 549.5915 348.806 
L 616.52 348.806 
L 616.52 415.7345 
L 549.5915 415.7345 
L 549.5915 348.806 
" clip-path="url(#pd27c2791b3)" style="fill: #f9f0eb"/>
    <path d="M 81.092 415.7345 
L 148.0205 415.7345 
L 148.0205 482.663 
L 81.092 482.663 
L 81.092 415.7345 
" clip-path="url(#pd27c2791b3)" style="fill: none"/>
    <path d="M 148.0205 415.7345 
L 214.949 415.7345 
L 214.949 482.663 
L 148.0205 482.663 
L 148.0205 415.7345 
" clip-path="url(#pd27c2791b3)" style="fill: none"/>
    <path d="M 214.949 415.7345 
L 281.8775 415.7345 
L 281.8775 482.663 
L 214.949 482.663 
L 214.949 415.7345 
" clip-path="url(#pd27c2791b3)" style="fill: none"/>
    <path d="M 281.8775 415.7345 
L 348.806 415.7345 
L 348.806 482.663 
L 281.8775 482.663 
L 281.8775 415.7345 
" clip-path="url(#pd27c2791b3)" style="fill: none"/>
    <path d="M 348.806 415.7345 
L 415.7345 415.7345 
L 415.7345 482.663 
L 348.806 482.663 
L 348.806 415.7345 
" clip-path="url(#pd27c2791b3)" style="fill: none"/>
    <path d="M 415.7345 415.7345 
L 482.663 415.7345 
L 482.663 482.663 
L 415.7345 482.663 
L 415.7345 415.7345 
" clip-path="url(#pd27c2791b3)" style="fill: none"/>
    <path d="M 482.663 415.7345 
L 549.5915 415.7345 
L 549.5915 482.663 
L 482.663 482.663 
L 482.663 415.7345 
" clip-path="url(#pd27c2791b3)" style="fill: #a9d1e5"/>
    <path d="M 549.5915 415.7345 
L 616.52 415.7345 
L 616.52 482.663 
L 549.5915 482.663 
L 549.5915 415.7345 
" clip-path="url(#pd27c2791b3)" style="fill: #569fc9"/>
    <path d="M 81.092 482.663 
L 148.0205 482.663 
L 148.0205 549.5915 
L 81.092 549.5915 
L 81.092 482.663 
" clip-path="url(#pd27c2791b3)" style="fill: none"/>
    <path d="M 148.0205 482.663 
L 214.949 482.663 
L 214.949 549.5915 
L 148.0205 549.5915 
L 148.0205 482.663 
" clip-path="url(#pd27c2791b3)" style="fill: none"/>
    <path d="M 214.949 482.663 
L 281.8775 482.663 
L 281.8775 549.5915 
L 214.949 549.5915 
L 214.949 482.663 
" clip-path="url(#pd27c2791b3)" style="fill: none"/>
    <path d="M 281.8775 482.663 
L 348.806 482.663 
L 348.806 549.5915 
L 281.8775 549.5915 
L 281.8775 482.663 
" clip-path="url(#pd27c2791b3)" style="fill: none"/>
    <path d="M 348.806 482.663 
L 415.7345 482.663 
L 415.7345 549.5915 
L 348.806 549.5915 
L 348.806 482.663 
" clip-path="url(#pd27c2791b3)" style="fill: none"/>
    <path d="M 415.7345 482.663 
L 482.663 482.663 
L 482.663 549.5915 
L 415.7345 549.5915 
L 415.7345 482.663 
" clip-path="url(#pd27c2791b3)" style="fill: none"/>
    <path d="M 482.663 482.663 
L 549.5915 482.663 
L 549.5915 549.5915 
L 482.663 549.5915 
L 482.663 482.663 
" clip-path="url(#pd27c2791b3)" style="fill: none"/>
    <path d="M 549.5915 482.663 
L 616.52 482.663 
L 616.52 549.5915 
L 549.5915 549.5915 
L 549.5915 482.663 
" clip-path="url(#pd27c2791b3)" style="fill: #be3036"/>
    <path d="M 81.092 549.5915 
L 148.0205 549.5915 
L 148.0205 616.52 
L 81.092 616.52 
L 81.092 549.5915 
" clip-path="url(#pd27c2791b3)" style="fill: none"/>
    <path d="M 148.0205 549.5915 
L 214.949 549.5915 
L 214.949 616.52 
L 148.0205 616.52 
L 148.0205 549.5915 
" clip-path="url(#pd27c2791b3)" style="fill: none"/>
    <path d="M 214.949 549.5915 
L 281.8775 549.5915 
L 281.8775 616.52 
L 214.949 616.52 
L 214.949 549.5915 
" clip-path="url(#pd27c2791b3)" style="fill: none"/>
    <path d="M 281.8775 549.5915 
L 348.806 549.5915 
L 348.806 616.52 
L 281.8775 616.52 
L 281.8775 549.5915 
" clip-path="url(#pd27c2791b3)" style="fill: none"/>
    <path d="M 348.806 549.5915 
L 415.7345 549.5915 
L 415.7345 616.52 
L 348.806 616.52 
L 348.806 549.5915 
" clip-path="url(#pd27c2791b3)" style="fill: none"/>
    <path d="M 415.7345 549.5915 
L 482.663 549.5915 
L 482.663 616.52 
L 415.7345 616.52 
L 415.7345 549.5915 
" clip-path="url(#pd27c2791b3)" style="fill: none"/>
    <path d="M 482.663 549.5915 
L 549.5915 549.5915 
L 549.5915 616.52 
L 482.663 616.52 
L 482.663 549.5915 
" clip-path="url(#pd27c2791b3)" style="fill: none"/>
    <path d="M 549.5915 549.5915 
L 616.52 549.5915 
L 616.52 616.52 
L 549.5915 616.52 
L 549.5915 549.5915 
" clip-path="url(#pd27c2791b3)" style="fill: none"/>
   </g>
   <g id="QuadMesh_3">
    <path d="M 81.092 81.092 
L 148.0205 81.092 
L 148.0205 148.0205 
L 81.092 148.0205 
L 81.092 81.092 
" clip-path="url(#pd27c2791b3)" style="fill: none"/>
    <path d="M 148.0205 81.092 
L 214.949 81.092 
L 214.949 148.0205 
L 148.0205 148.0205 
L 148.0205 81.092 
" clip-path="url(#pd27c2791b3)" style="fill: none"/>
    <path d="M 214.949 81.092 
L 281.8775 81.092 
L 281.8775 148.0205 
L 214.949 148.0205 
L 214.949 81.092 
" clip-path="url(#pd27c2791b3)" style="fill: none"/>
    <path d="M 281.8775 81.092 
L 348.806 81.092 
L 348.806 148.0205 
L 281.8775 148.0205 
L 281.8775 81.092 
" clip-path="url(#pd27c2791b3)" style="fill: none"/>
    <path d="M 348.806 81.092 
L 415.7345 81.092 
L 415.7345 148.0205 
L 348.806 148.0205 
L 348.806 81.092 
" clip-path="url(#pd27c2791b3)" style="fill: none"/>
    <path d="M 415.7345 81.092 
L 482.663 81.092 
L 482.663 148.0205 
L 415.7345 148.0205 
L 415.7345 81.092 
" clip-path="url(#pd27c2791b3)" style="fill: none"/>
    <path d="M 482.663 81.092 
L 549.5915 81.092 
L 549.5915 148.0205 
L 482.663 148.0205 
L 482.663 81.092 
" clip-path="url(#pd27c2791b3)" style="fill: none"/>
    <path d="M 549.5915 81.092 
L 616.52 81.092 
L 616.52 148.0205 
L 549.5915 148.0205 
L 549.5915 81.092 
" clip-path="url(#pd27c2791b3)" style="fill: none"/>
    <path d="M 81.092 148.0205 
L 148.0205 148.0205 
L 148.0205 214.949 
L 81.092 214.949 
L 81.092 148.0205 
" clip-path="url(#pd27c2791b3)" style="fill: #dfdfed"/>
    <path d="M 148.0205 148.0205 
L 214.949 148.0205 
L 214.949 214.949 
L 148.0205 214.949 
L 148.0205 148.0205 
" clip-path="url(#pd27c2791b3)" style="fill: none"/>
    <path d="M 214.949 148.0205 
L 281.8775 148.0205 
L 281.8775 214.949 
L 214.949 214.949 
L 214.949 148.0205 
" clip-path="url(#pd27c2791b3)" style="fill: none"/>
    <path d="M 281.8775 148.0205 
L 348.806 148.0205 
L 348.806 214.949 
L 281.8775 214.949 
L 281.8775 148.0205 
" clip-path="url(#pd27c2791b3)" style="fill: none"/>
    <path d="M 348.806 148.0205 
L 415.7345 148.0205 
L 415.7345 214.949 
L 348.806 214.949 
L 348.806 148.0205 
" clip-path="url(#pd27c2791b3)" style="fill: none"/>
    <path d="M 415.7345 148.0205 
L 482.663 148.0205 
L 482.663 214.949 
L 415.7345 214.949 
L 415.7345 148.0205 
" clip-path="url(#pd27c2791b3)" style="fill: none"/>
    <path d="M 482.663 148.0205 
L 549.5915 148.0205 
L 549.5915 214.949 
L 482.663 214.949 
L 482.663 148.0205 
" clip-path="url(#pd27c2791b3)" style="fill: none"/>
    <path d="M 549.5915 148.0205 
L 616.52 148.0205 
L 616.52 214.949 
L 549.5915 214.949 
L 549.5915 148.0205 
" clip-path="url(#pd27c2791b3)" style="fill: none"/>
    <path d="M 81.092 214.949 
L 148.0205 214.949 
L 148.0205 281.8775 
L 81.092 281.8775 
L 81.092 214.949 
" clip-path="url(#pd27c2791b3)" style="fill: #efedf5"/>
    <path d="M 148.0205 214.949 
L 214.949 214.949 
L 214.949 281.8775 
L 148.0205 281.8775 
L 148.0205 214.949 
" clip-path="url(#pd27c2791b3)" style="fill: #ecebf4"/>
    <path d="M 214.949 214.949 
L 281.8775 214.949 
L 281.8775 281.8775 
L 214.949 281.8775 
L 214.949 214.949 
" clip-path="url(#pd27c2791b3)" style="fill: none"/>
    <path d="M 281.8775 214.949 
L 348.806 214.949 
L 348.806 281.8775 
L 281.8775 281.8775 
L 281.8775 214.949 
" clip-path="url(#pd27c2791b3)" style="fill: none"/>
    <path d="M 348.806 214.949 
L 415.7345 214.949 
L 415.7345 281.8775 
L 348.806 281.8775 
L 348.806 214.949 
" clip-path="url(#pd27c2791b3)" style="fill: none"/>
    <path d="M 415.7345 214.949 
L 482.663 214.949 
L 482.663 281.8775 
L 415.7345 281.8775 
L 415.7345 214.949 
" clip-path="url(#pd27c2791b3)" style="fill: none"/>
    <path d="M 482.663 214.949 
L 549.5915 214.949 
L 549.5915 281.8775 
L 482.663 281.8775 
L 482.663 214.949 
" clip-path="url(#pd27c2791b3)" style="fill: none"/>
    <path d="M 549.5915 214.949 
L 616.52 214.949 
L 616.52 281.8775 
L 549.5915 281.8775 
L 549.5915 214.949 
" clip-path="url(#pd27c2791b3)" style="fill: none"/>
    <path d="M 81.092 281.8775 
L 148.0205 281.8775 
L 148.0205 348.806 
L 81.092 348.806 
L 81.092 281.8775 
" clip-path="url(#pd27c2791b3)" style="fill: #dbdbec"/>
    <path d="M 148.0205 281.8775 
L 214.949 281.8775 
L 214.949 348.806 
L 148.0205 348.806 
L 148.0205 281.8775 
" clip-path="url(#pd27c2791b3)" style="fill: #4c1888"/>
    <path d="M 214.949 281.8775 
L 281.8775 281.8775 
L 281.8775 348.806 
L 214.949 348.806 
L 214.949 281.8775 
" clip-path="url(#pd27c2791b3)" style="fill: #c8c8e2"/>
    <path d="M 281.8775 281.8775 
L 348.806 281.8775 
L 348.806 348.806 
L 281.8775 348.806 
L 281.8775 281.8775 
" clip-path="url(#pd27c2791b3)" style="fill: none"/>
    <path d="M 348.806 281.8775 
L 415.7345 281.8775 
L 415.7345 348.806 
L 348.806 348.806 
L 348.806 281.8775 
" clip-path="url(#pd27c2791b3)" style="fill: none"/>
    <path d="M 415.7345 281.8775 
L 482.663 281.8775 
L 482.663 348.806 
L 415.7345 348.806 
L 415.7345 281.8775 
" clip-path="url(#pd27c2791b3)" style="fill: none"/>
    <path d="M 482.663 281.8775 
L 549.5915 281.8775 
L 549.5915 348.806 
L 482.663 348.806 
L 482.663 281.8775 
" clip-path="url(#pd27c2791b3)" style="fill: none"/>
    <path d="M 549.5915 281.8775 
L 616.52 281.8775 
L 616.52 348.806 
L 549.5915 348.806 
L 549.5915 281.8775 
" clip-path="url(#pd27c2791b3)" style="fill: none"/>
    <path d="M 81.092 348.806 
L 148.0205 348.806 
L 148.0205 415.7345 
L 81.092 415.7345 
L 81.092 348.806 
" clip-path="url(#pd27c2791b3)" style="fill: #e1e0ee"/>
    <path d="M 148.0205 348.806 
L 214.949 348.806 
L 214.949 415.7345 
L 148.0205 415.7345 
L 148.0205 348.806 
" clip-path="url(#pd27c2791b3)" style="fill: #d8d8ea"/>
    <path d="M 214.949 348.806 
L 281.8775 348.806 
L 281.8775 415.7345 
L 214.949 415.7345 
L 214.949 348.806 
" clip-path="url(#pd27c2791b3)" style="fill: #908dc2"/>
    <path d="M 281.8775 348.806 
L 348.806 348.806 
L 348.806 415.7345 
L 281.8775 415.7345 
L 281.8775 348.806 
" clip-path="url(#pd27c2791b3)" style="fill: #c1c2df"/>
    <path d="M 348.806 348.806 
L 415.7345 348.806 
L 415.7345 415.7345 
L 348.806 415.7345 
L 348.806 348.806 
" clip-path="url(#pd27c2791b3)" style="fill: none"/>
    <path d="M 415.7345 348.806 
L 482.663 348.806 
L 482.663 415.7345 
L 415.7345 415.7345 
L 415.7345 348.806 
" clip-path="url(#pd27c2791b3)" style="fill: none"/>
    <path d="M 482.663 348.806 
L 549.5915 348.806 
L 549.5915 415.7345 
L 482.663 415.7345 
L 482.663 348.806 
" clip-path="url(#pd27c2791b3)" style="fill: none"/>
    <path d="M 549.5915 348.806 
L 616.52 348.806 
L 616.52 415.7345 
L 549.5915 415.7345 
L 549.5915 348.806 
" clip-path="url(#pd27c2791b3)" style="fill: none"/>
    <path d="M 81.092 415.7345 
L 148.0205 415.7345 
L 148.0205 482.663 
L 81.092 482.663 
L 81.092 415.7345 
" clip-path="url(#pd27c2791b3)" style="fill: #dcdcec"/>
    <path d="M 148.0205 415.7345 
L 214.949 415.7345 
L 214.949 482.663 
L 148.0205 482.663 
L 148.0205 415.7345 
" clip-path="url(#pd27c2791b3)" style="fill: #51218c"/>
    <path d="M 214.949 415.7345 
L 281.8775 415.7345 
L 281.8775 482.663 
L 214.949 482.663 
L 214.949 415.7345 
" clip-path="url(#pd27c2791b3)" style="fill: #cecee5"/>
    <path d="M 281.8775 415.7345 
L 348.806 415.7345 
L 348.806 482.663 
L 281.8775 482.663 
L 281.8775 415.7345 
" clip-path="url(#pd27c2791b3)" style="fill: #4f1f8b"/>
    <path d="M 348.806 415.7345 
L 415.7345 415.7345 
L 415.7345 482.663 
L 348.806 482.663 
L 348.806 415.7345 
" clip-path="url(#pd27c2791b3)" style="fill: #cdcde4"/>
    <path d="M 415.7345 415.7345 
L 482.663 415.7345 
L 482.663 482.663 
L 415.7345 482.663 
L 415.7345 415.7345 
" clip-path="url(#pd27c2791b3)" style="fill: none"/>
    <path d="M 482.663 415.7345 
L 549.5915 415.7345 
L 549.5915 482.663 
L 482.663 482.663 
L 482.663 415.7345 
" clip-path="url(#pd27c2791b3)" style="fill: none"/>
    <path d="M 549.5915 415.7345 
L 616.52 415.7345 
L 616.52 482.663 
L 549.5915 482.663 
L 549.5915 415.7345 
" clip-path="url(#pd27c2791b3)" style="fill: none"/>
    <path d="M 81.092 482.663 
L 148.0205 482.663 
L 148.0205 549.5915 
L 81.092 549.5915 
L 81.092 482.663 
" clip-path="url(#pd27c2791b3)" style="fill: #e4e3f0"/>
    <path d="M 148.0205 482.663 
L 214.949 482.663 
L 214.949 549.5915 
L 148.0205 549.5915 
L 148.0205 482.663 
" clip-path="url(#pd27c2791b3)" style="fill: #52238d"/>
    <path d="M 214.949 482.663 
L 281.8775 482.663 
L 281.8775 549.5915 
L 214.949 549.5915 
L 214.949 482.663 
" clip-path="url(#pd27c2791b3)" style="fill: #b2b2d5"/>
    <path d="M 281.8775 482.663 
L 348.806 482.663 
L 348.806 549.5915 
L 281.8775 549.5915 
L 281.8775 482.663 
" clip-path="url(#pd27c2791b3)" style="fill: #9c98c7"/>
    <path d="M 348.806 482.663 
L 415.7345 482.663 
L 415.7345 549.5915 
L 348.806 549.5915 
L 348.806 482.663 
" clip-path="url(#pd27c2791b3)" style="fill: #c2c3df"/>
    <path d="M 415.7345 482.663 
L 482.663 482.663 
L 482.663 549.5915 
L 415.7345 549.5915 
L 415.7345 482.663 
" clip-path="url(#pd27c2791b3)" style="fill: #674ca1"/>
    <path d="M 482.663 482.663 
L 549.5915 482.663 
L 549.5915 549.5915 
L 482.663 549.5915 
L 482.663 482.663 
" clip-path="url(#pd27c2791b3)" style="fill: none"/>
    <path d="M 549.5915 482.663 
L 616.52 482.663 
L 616.52 549.5915 
L 549.5915 549.5915 
L 549.5915 482.663 
" clip-path="url(#pd27c2791b3)" style="fill: none"/>
    <path d="M 81.092 549.5915 
L 148.0205 549.5915 
L 148.0205 616.52 
L 81.092 616.52 
L 81.092 549.5915 
" clip-path="url(#pd27c2791b3)" style="fill: #f0eef6"/>
    <path d="M 148.0205 549.5915 
L 214.949 549.5915 
L 214.949 616.52 
L 148.0205 616.52 
L 148.0205 549.5915 
" clip-path="url(#pd27c2791b3)" style="fill: #d6d6e9"/>
    <path d="M 214.949 549.5915 
L 281.8775 549.5915 
L 281.8775 616.52 
L 214.949 616.52 
L 214.949 549.5915 
" clip-path="url(#pd27c2791b3)" style="fill: #e1e0ee"/>
    <path d="M 281.8775 549.5915 
L 348.806 549.5915 
L 348.806 616.52 
L 281.8775 616.52 
L 281.8775 549.5915 
" clip-path="url(#pd27c2791b3)" style="fill: #e2e2ef"/>
    <path d="M 348.806 549.5915 
L 415.7345 549.5915 
L 415.7345 616.52 
L 348.806 616.52 
L 348.806 549.5915 
" clip-path="url(#pd27c2791b3)" style="fill: #e6e5f1"/>
    <path d="M 415.7345 549.5915 
L 482.663 549.5915 
L 482.663 616.52 
L 415.7345 616.52 
L 415.7345 549.5915 
" clip-path="url(#pd27c2791b3)" style="fill: #e6e5f1"/>
    <path d="M 482.663 549.5915 
L 549.5915 549.5915 
L 549.5915 616.52 
L 482.663 616.52 
L 482.663 549.5915 
" clip-path="url(#pd27c2791b3)" style="fill: #dcdcec"/>
    <path d="M 549.5915 549.5915 
L 616.52 549.5915 
L 616.52 616.52 
L 549.5915 616.52 
L 549.5915 549.5915 
" clip-path="url(#pd27c2791b3)" style="fill: none"/>
   </g>
   <g id="QuadMesh_4">
    <path d="M 81.092 81.092 
L 148.0205 81.092 
L 148.0205 148.0205 
L 81.092 148.0205 
L 81.092 81.092 
" clip-path="url(#pd27c2791b3)"/>
    <path d="M 148.0205 81.092 
L 214.949 81.092 
L 214.949 148.0205 
L 148.0205 148.0205 
L 148.0205 81.092 
" clip-path="url(#pd27c2791b3)" style="fill: none"/>
    <path d="M 214.949 81.092 
L 281.8775 81.092 
L 281.8775 148.0205 
L 214.949 148.0205 
L 214.949 81.092 
" clip-path="url(#pd27c2791b3)" style="fill: none"/>
    <path d="M 281.8775 81.092 
L 348.806 81.092 
L 348.806 148.0205 
L 281.8775 148.0205 
L 281.8775 81.092 
" clip-path="url(#pd27c2791b3)" style="fill: none"/>
    <path d="M 348.806 81.092 
L 415.7345 81.092 
L 415.7345 148.0205 
L 348.806 148.0205 
L 348.806 81.092 
" clip-path="url(#pd27c2791b3)" style="fill: none"/>
    <path d="M 415.7345 81.092 
L 482.663 81.092 
L 482.663 148.0205 
L 415.7345 148.0205 
L 415.7345 81.092 
" clip-path="url(#pd27c2791b3)" style="fill: none"/>
    <path d="M 482.663 81.092 
L 549.5915 81.092 
L 549.5915 148.0205 
L 482.663 148.0205 
L 482.663 81.092 
" clip-path="url(#pd27c2791b3)" style="fill: none"/>
    <path d="M 549.5915 81.092 
L 616.52 81.092 
L 616.52 148.0205 
L 549.5915 148.0205 
L 549.5915 81.092 
" clip-path="url(#pd27c2791b3)" style="fill: none"/>
    <path d="M 81.092 148.0205 
L 148.0205 148.0205 
L 148.0205 214.949 
L 81.092 214.949 
L 81.092 148.0205 
" clip-path="url(#pd27c2791b3)" style="fill: none"/>
    <path d="M 148.0205 148.0205 
L 214.949 148.0205 
L 214.949 214.949 
L 148.0205 214.949 
L 148.0205 148.0205 
" clip-path="url(#pd27c2791b3)"/>
    <path d="M 214.949 148.0205 
L 281.8775 148.0205 
L 281.8775 214.949 
L 214.949 214.949 
L 214.949 148.0205 
" clip-path="url(#pd27c2791b3)" style="fill: none"/>
    <path d="M 281.8775 148.0205 
L 348.806 148.0205 
L 348.806 214.949 
L 281.8775 214.949 
L 281.8775 148.0205 
" clip-path="url(#pd27c2791b3)" style="fill: none"/>
    <path d="M 348.806 148.0205 
L 415.7345 148.0205 
L 415.7345 214.949 
L 348.806 214.949 
L 348.806 148.0205 
" clip-path="url(#pd27c2791b3)" style="fill: none"/>
    <path d="M 415.7345 148.0205 
L 482.663 148.0205 
L 482.663 214.949 
L 415.7345 214.949 
L 415.7345 148.0205 
" clip-path="url(#pd27c2791b3)" style="fill: none"/>
    <path d="M 482.663 148.0205 
L 549.5915 148.0205 
L 549.5915 214.949 
L 482.663 214.949 
L 482.663 148.0205 
" clip-path="url(#pd27c2791b3)" style="fill: none"/>
    <path d="M 549.5915 148.0205 
L 616.52 148.0205 
L 616.52 214.949 
L 549.5915 214.949 
L 549.5915 148.0205 
" clip-path="url(#pd27c2791b3)" style="fill: none"/>
    <path d="M 81.092 214.949 
L 148.0205 214.949 
L 148.0205 281.8775 
L 81.092 281.8775 
L 81.092 214.949 
" clip-path="url(#pd27c2791b3)" style="fill: none"/>
    <path d="M 148.0205 214.949 
L 214.949 214.949 
L 214.949 281.8775 
L 148.0205 281.8775 
L 148.0205 214.949 
" clip-path="url(#pd27c2791b3)" style="fill: none"/>
    <path d="M 214.949 214.949 
L 281.8775 214.949 
L 281.8775 281.8775 
L 214.949 281.8775 
L 214.949 214.949 
" clip-path="url(#pd27c2791b3)"/>
    <path d="M 281.8775 214.949 
L 348.806 214.949 
L 348.806 281.8775 
L 281.8775 281.8775 
L 281.8775 214.949 
" clip-path="url(#pd27c2791b3)" style="fill: none"/>
    <path d="M 348.806 214.949 
L 415.7345 214.949 
L 415.7345 281.8775 
L 348.806 281.8775 
L 348.806 214.949 
" clip-path="url(#pd27c2791b3)" style="fill: none"/>
    <path d="M 415.7345 214.949 
L 482.663 214.949 
L 482.663 281.8775 
L 415.7345 281.8775 
L 415.7345 214.949 
" clip-path="url(#pd27c2791b3)" style="fill: none"/>
    <path d="M 482.663 214.949 
L 549.5915 214.949 
L 549.5915 281.8775 
L 482.663 281.8775 
L 482.663 214.949 
" clip-path="url(#pd27c2791b3)" style="fill: none"/>
    <path d="M 549.5915 214.949 
L 616.52 214.949 
L 616.52 281.8775 
L 549.5915 281.8775 
L 549.5915 214.949 
" clip-path="url(#pd27c2791b3)" style="fill: none"/>
    <path d="M 81.092 281.8775 
L 148.0205 281.8775 
L 148.0205 348.806 
L 81.092 348.806 
L 81.092 281.8775 
" clip-path="url(#pd27c2791b3)" style="fill: none"/>
    <path d="M 148.0205 281.8775 
L 214.949 281.8775 
L 214.949 348.806 
L 148.0205 348.806 
L 148.0205 281.8775 
" clip-path="url(#pd27c2791b3)" style="fill: none"/>
    <path d="M 214.949 281.8775 
L 281.8775 281.8775 
L 281.8775 348.806 
L 214.949 348.806 
L 214.949 281.8775 
" clip-path="url(#pd27c2791b3)" style="fill: none"/>
    <path d="M 281.8775 281.8775 
L 348.806 281.8775 
L 348.806 348.806 
L 281.8775 348.806 
L 281.8775 281.8775 
" clip-path="url(#pd27c2791b3)"/>
    <path d="M 348.806 281.8775 
L 415.7345 281.8775 
L 415.7345 348.806 
L 348.806 348.806 
L 348.806 281.8775 
" clip-path="url(#pd27c2791b3)" style="fill: none"/>
    <path d="M 415.7345 281.8775 
L 482.663 281.8775 
L 482.663 348.806 
L 415.7345 348.806 
L 415.7345 281.8775 
" clip-path="url(#pd27c2791b3)" style="fill: none"/>
    <path d="M 482.663 281.8775 
L 549.5915 281.8775 
L 549.5915 348.806 
L 482.663 348.806 
L 482.663 281.8775 
" clip-path="url(#pd27c2791b3)" style="fill: none"/>
    <path d="M 549.5915 281.8775 
L 616.52 281.8775 
L 616.52 348.806 
L 549.5915 348.806 
L 549.5915 281.8775 
" clip-path="url(#pd27c2791b3)" style="fill: none"/>
    <path d="M 81.092 348.806 
L 148.0205 348.806 
L 148.0205 415.7345 
L 81.092 415.7345 
L 81.092 348.806 
" clip-path="url(#pd27c2791b3)" style="fill: none"/>
    <path d="M 148.0205 348.806 
L 214.949 348.806 
L 214.949 415.7345 
L 148.0205 415.7345 
L 148.0205 348.806 
" clip-path="url(#pd27c2791b3)" style="fill: none"/>
    <path d="M 214.949 348.806 
L 281.8775 348.806 
L 281.8775 415.7345 
L 214.949 415.7345 
L 214.949 348.806 
" clip-path="url(#pd27c2791b3)" style="fill: none"/>
    <path d="M 281.8775 348.806 
L 348.806 348.806 
L 348.806 415.7345 
L 281.8775 415.7345 
L 281.8775 348.806 
" clip-path="url(#pd27c2791b3)" style="fill: none"/>
    <path d="M 348.806 348.806 
L 415.7345 348.806 
L 415.7345 415.7345 
L 348.806 415.7345 
L 348.806 348.806 
" clip-path="url(#pd27c2791b3)"/>
    <path d="M 415.7345 348.806 
L 482.663 348.806 
L 482.663 415.7345 
L 415.7345 415.7345 
L 415.7345 348.806 
" clip-path="url(#pd27c2791b3)" style="fill: none"/>
    <path d="M 482.663 348.806 
L 549.5915 348.806 
L 549.5915 415.7345 
L 482.663 415.7345 
L 482.663 348.806 
" clip-path="url(#pd27c2791b3)" style="fill: none"/>
    <path d="M 549.5915 348.806 
L 616.52 348.806 
L 616.52 415.7345 
L 549.5915 415.7345 
L 549.5915 348.806 
" clip-path="url(#pd27c2791b3)" style="fill: none"/>
    <path d="M 81.092 415.7345 
L 148.0205 415.7345 
L 148.0205 482.663 
L 81.092 482.663 
L 81.092 415.7345 
" clip-path="url(#pd27c2791b3)" style="fill: none"/>
    <path d="M 148.0205 415.7345 
L 214.949 415.7345 
L 214.949 482.663 
L 148.0205 482.663 
L 148.0205 415.7345 
" clip-path="url(#pd27c2791b3)" style="fill: none"/>
    <path d="M 214.949 415.7345 
L 281.8775 415.7345 
L 281.8775 482.663 
L 214.949 482.663 
L 214.949 415.7345 
" clip-path="url(#pd27c2791b3)" style="fill: none"/>
    <path d="M 281.8775 415.7345 
L 348.806 415.7345 
L 348.806 482.663 
L 281.8775 482.663 
L 281.8775 415.7345 
" clip-path="url(#pd27c2791b3)" style="fill: none"/>
    <path d="M 348.806 415.7345 
L 415.7345 415.7345 
L 415.7345 482.663 
L 348.806 482.663 
L 348.806 415.7345 
" clip-path="url(#pd27c2791b3)" style="fill: none"/>
    <path d="M 415.7345 415.7345 
L 482.663 415.7345 
L 482.663 482.663 
L 415.7345 482.663 
L 415.7345 415.7345 
" clip-path="url(#pd27c2791b3)"/>
    <path d="M 482.663 415.7345 
L 549.5915 415.7345 
L 549.5915 482.663 
L 482.663 482.663 
L 482.663 415.7345 
" clip-path="url(#pd27c2791b3)" style="fill: none"/>
    <path d="M 549.5915 415.7345 
L 616.52 415.7345 
L 616.52 482.663 
L 549.5915 482.663 
L 549.5915 415.7345 
" clip-path="url(#pd27c2791b3)" style="fill: none"/>
    <path d="M 81.092 482.663 
L 148.0205 482.663 
L 148.0205 549.5915 
L 81.092 549.5915 
L 81.092 482.663 
" clip-path="url(#pd27c2791b3)" style="fill: none"/>
    <path d="M 148.0205 482.663 
L 214.949 482.663 
L 214.949 549.5915 
L 148.0205 549.5915 
L 148.0205 482.663 
" clip-path="url(#pd27c2791b3)" style="fill: none"/>
    <path d="M 214.949 482.663 
L 281.8775 482.663 
L 281.8775 549.5915 
L 214.949 549.5915 
L 214.949 482.663 
" clip-path="url(#pd27c2791b3)" style="fill: none"/>
    <path d="M 281.8775 482.663 
L 348.806 482.663 
L 348.806 549.5915 
L 281.8775 549.5915 
L 281.8775 482.663 
" clip-path="url(#pd27c2791b3)" style="fill: none"/>
    <path d="M 348.806 482.663 
L 415.7345 482.663 
L 415.7345 549.5915 
L 348.806 549.5915 
L 348.806 482.663 
" clip-path="url(#pd27c2791b3)" style="fill: none"/>
    <path d="M 415.7345 482.663 
L 482.663 482.663 
L 482.663 549.5915 
L 415.7345 549.5915 
L 415.7345 482.663 
" clip-path="url(#pd27c2791b3)" style="fill: none"/>
    <path d="M 482.663 482.663 
L 549.5915 482.663 
L 549.5915 549.5915 
L 482.663 549.5915 
L 482.663 482.663 
" clip-path="url(#pd27c2791b3)"/>
    <path d="M 549.5915 482.663 
L 616.52 482.663 
L 616.52 549.5915 
L 549.5915 549.5915 
L 549.5915 482.663 
" clip-path="url(#pd27c2791b3)" style="fill: none"/>
    <path d="M 81.092 549.5915 
L 148.0205 549.5915 
L 148.0205 616.52 
L 81.092 616.52 
L 81.092 549.5915 
" clip-path="url(#pd27c2791b3)" style="fill: none"/>
    <path d="M 148.0205 549.5915 
L 214.949 549.5915 
L 214.949 616.52 
L 148.0205 616.52 
L 148.0205 549.5915 
" clip-path="url(#pd27c2791b3)" style="fill: none"/>
    <path d="M 214.949 549.5915 
L 281.8775 549.5915 
L 281.8775 616.52 
L 214.949 616.52 
L 214.949 549.5915 
" clip-path="url(#pd27c2791b3)" style="fill: none"/>
    <path d="M 281.8775 549.5915 
L 348.806 549.5915 
L 348.806 616.52 
L 281.8775 616.52 
L 281.8775 549.5915 
" clip-path="url(#pd27c2791b3)" style="fill: none"/>
    <path d="M 348.806 549.5915 
L 415.7345 549.5915 
L 415.7345 616.52 
L 348.806 616.52 
L 348.806 549.5915 
" clip-path="url(#pd27c2791b3)" style="fill: none"/>
    <path d="M 415.7345 549.5915 
L 482.663 549.5915 
L 482.663 616.52 
L 415.7345 616.52 
L 415.7345 549.5915 
" clip-path="url(#pd27c2791b3)" style="fill: none"/>
    <path d="M 482.663 549.5915 
L 549.5915 549.5915 
L 549.5915 616.52 
L 482.663 616.52 
L 482.663 549.5915 
" clip-path="url(#pd27c2791b3)" style="fill: none"/>
    <path d="M 549.5915 549.5915 
L 616.52 549.5915 
L 616.52 616.52 
L 549.5915 616.52 
L 549.5915 549.5915 
" clip-path="url(#pd27c2791b3)"/>
   </g>
   <g id="matplotlib.axis_1">
    <g id="xtick_1">
     <g id="line2d_1">
      <defs>
       <path id="md8165a1802" d="M 0 0 
L 0 3.5 
" style="stroke: #000000; stroke-width: 0.8"/>
      </defs>
      <g>
       <use xlink:href="#md8165a1802" x="114.55625" y="616.52" style="stroke: #000000; stroke-width: 0.8"/>
      </g>
     </g>
     <g id="text_1">
      <text style="font: 14px 'Arial', 'Helvetica', 'DejaVu Sans', sans-serif; text-anchor: middle" x="114.55625" y="634.157812" transform="rotate(-0 114.55625 634.157812)">VGLL4</text>
     </g>
    </g>
    <g id="xtick_2">
     <g id="line2d_2">
      <g>
       <use xlink:href="#md8165a1802" x="181.48475" y="616.52" style="stroke: #000000; stroke-width: 0.8"/>
      </g>
     </g>
     <g id="text_2">
      <text style="font: 14px 'Arial', 'Helvetica', 'DejaVu Sans', sans-serif; text-anchor: middle" x="181.48475" y="634.157812" transform="rotate(-0 181.48475 634.157812)">STK3</text>
     </g>
    </g>
    <g id="xtick_3">
     <g id="line2d_3">
      <g>
       <use xlink:href="#md8165a1802" x="248.41325" y="616.52" style="stroke: #000000; stroke-width: 0.8"/>
      </g>
     </g>
     <g id="text_3">
      <text style="font: 14px 'Arial', 'Helvetica', 'DejaVu Sans', sans-serif; text-anchor: middle" x="248.41325" y="634.157812" transform="rotate(-0 248.41325 634.157812)">IL20RB</text>
     </g>
    </g>
    <g id="xtick_4">
     <g id="line2d_4">
      <g>
       <use xlink:href="#md8165a1802" x="315.34175" y="616.52" style="stroke: #000000; stroke-width: 0.8"/>
      </g>
     </g>
     <g id="text_4">
      <text style="font: 14px 'Arial', 'Helvetica', 'DejaVu Sans', sans-serif; text-anchor: middle" x="315.34175" y="634.157812" transform="rotate(-0 315.34175 634.157812)">YAP1</text>
     </g>
    </g>
    <g id="xtick_5">
     <g id="line2d_5">
      <g>
       <use xlink:href="#md8165a1802" x="382.27025" y="616.52" style="stroke: #000000; stroke-width: 0.8"/>
      </g>
     </g>
     <g id="text_5">
      <text style="font: 14px 'Arial', 'Helvetica', 'DejaVu Sans', sans-serif; text-anchor: middle" x="382.27025" y="634.157812" transform="rotate(-0 382.27025 634.157812)">CEP72</text>
     </g>
    </g>
    <g id="xtick_6">
     <g id="line2d_6">
      <g>
       <use xlink:href="#md8165a1802" x="449.19875" y="616.52" style="stroke: #000000; stroke-width: 0.8"/>
      </g>
     </g>
     <g id="text_6">
      <text style="font: 14px 'Arial', 'Helvetica', 'DejaVu Sans', sans-serif; text-anchor: middle" x="449.19875" y="634.157812" transform="rotate(-0 449.19875 634.157812)">WWTR1</text>
     </g>
    </g>
    <g id="xtick_7">
     <g id="line2d_7">
      <g>
       <use xlink:href="#md8165a1802" x="516.12725" y="616.52" style="stroke: #000000; stroke-width: 0.8"/>
      </g>
     </g>
     <g id="text_7">
      <text style="font: 14px 'Arial', 'Helvetica', 'DejaVu Sans', sans-serif; text-anchor: middle" x="516.12725" y="634.157812" transform="rotate(-0 516.12725 634.157812)">PRKCE</text>
     </g>
    </g>
    <g id="xtick_8">
     <g id="line2d_8">
      <g>
       <use xlink:href="#md8165a1802" x="583.05575" y="616.52" style="stroke: #000000; stroke-width: 0.8"/>
      </g>
     </g>
     <g id="text_8">
      <text style="font: 14px 'Arial', 'Helvetica', 'DejaVu Sans', sans-serif; text-anchor: middle" x="583.05575" y="634.157812" transform="rotate(-0 583.05575 634.157812)">MTMR9</text>
     </g>
    </g>
   </g>
   <g id="matplotlib.axis_2">
    <g id="ytick_1">
     <g id="line2d_9">
      <defs>
       <path id="m78bc45b37c" d="M 0 0 
L 3.5 0 
" style="stroke: #000000; stroke-width: 0.8"/>
      </defs>
      <g>
       <use xlink:href="#m78bc45b37c" x="616.52" y="114.55625" style="stroke: #000000; stroke-width: 0.8"/>
      </g>
     </g>
     <g id="text_9">
      <text style="font: 14px 'Arial', 'Helvetica', 'DejaVu Sans', sans-serif" transform="translate(634.157812 137.022969) rotate(-90)">VGLL4</text>
     </g>
    </g>
    <g id="ytick_2">
     <g id="line2d_10">
      <g>
       <use xlink:href="#m78bc45b37c" x="616.52" y="181.48475" style="stroke: #000000; stroke-width: 0.8"/>
      </g>
     </g>
     <g id="text_10">
      <text style="font: 14px 'Arial', 'Helvetica', 'DejaVu Sans', sans-serif" transform="translate(634.157812 199.248344) rotate(-90)">STK3</text>
     </g>
    </g>
    <g id="ytick_3">
     <g id="line2d_11">
      <g>
       <use xlink:href="#m78bc45b37c" x="616.52" y="248.41325" style="stroke: #000000; stroke-width: 0.8"/>
      </g>
     </g>
     <g id="text_11">
      <text style="font: 14px 'Arial', 'Helvetica', 'DejaVu Sans', sans-serif" transform="translate(634.157812 272.952625) rotate(-90)">IL20RB</text>
     </g>
    </g>
    <g id="ytick_4">
     <g id="line2d_12">
      <g>
       <use xlink:href="#m78bc45b37c" x="616.52" y="315.34175" style="stroke: #000000; stroke-width: 0.8"/>
      </g>
     </g>
     <g id="text_12">
      <text style="font: 14px 'Arial', 'Helvetica', 'DejaVu Sans', sans-serif" transform="translate(634.157812 332.537688) rotate(-90)">YAP1</text>
     </g>
    </g>
    <g id="ytick_5">
     <g id="line2d_13">
      <g>
       <use xlink:href="#m78bc45b37c" x="616.52" y="382.27025" style="stroke: #000000; stroke-width: 0.8"/>
      </g>
     </g>
     <g id="text_13">
      <text style="font: 14px 'Arial', 'Helvetica', 'DejaVu Sans', sans-serif" transform="translate(634.157812 404.709625) rotate(-90)">CEP72</text>
     </g>
    </g>
    <g id="ytick_6">
     <g id="line2d_14">
      <g>
       <use xlink:href="#m78bc45b37c" x="616.52" y="449.19875" style="stroke: #000000; stroke-width: 0.8"/>
      </g>
     </g>
     <g id="text_14">
      <text style="font: 14px 'Arial', 'Helvetica', 'DejaVu Sans', sans-serif" transform="translate(634.157812 476.634375) rotate(-90)">WWTR1</text>
     </g>
    </g>
    <g id="ytick_7">
     <g id="line2d_15">
      <g>
       <use xlink:href="#m78bc45b37c" x="616.52" y="516.12725" style="stroke: #000000; stroke-width: 0.8"/>
      </g>
     </g>
     <g id="text_15">
      <text style="font: 14px 'Arial', 'Helvetica', 'DejaVu Sans', sans-serif" transform="translate(634.157812 538.7285) rotate(-90)">PRKCE</text>
     </g>
    </g>
    <g id="ytick_8">
     <g id="line2d_16">
      <g>
       <use xlink:href="#m78bc45b37c" x="616.52" y="583.05575" style="stroke: #000000; stroke-width: 0.8"/>
      </g>
     </g>
     <g id="text_16">
      <text style="font: 14px 'Arial', 'Helvetica', 'DejaVu Sans', sans-serif" transform="translate(634.157812 608.72825) rotate(-90)">MTMR9</text>
     </g>
    </g>
   </g>
   <g id="text_17">
    <text style="fill: #ffffff; font: 20px 'Arial', 'Helvetica', 'DejaVu Sans', sans-serif; text-anchor: middle" x="181.48475" y="120.075" transform="rotate(-0 181.48475 120.075)">0.99</text>
   </g>
   <g id="text_18">
    <text style="fill: #ffffff; font: 20px 'Arial', 'Helvetica', 'DejaVu Sans', sans-serif; text-anchor: middle" x="248.41325" y="120.075" transform="rotate(-0 248.41325 120.075)">0.84</text>
   </g>
   <g id="text_19">
    <text style="fill: #ffffff; font: 20px 'Arial', 'Helvetica', 'DejaVu Sans', sans-serif; text-anchor: middle" x="315.34175" y="120.075" transform="rotate(-0 315.34175 120.075)">0.00</text>
   </g>
   <g id="text_20">
    <text style="fill: #ffffff; font: 20px 'Arial', 'Helvetica', 'DejaVu Sans', sans-serif; text-anchor: middle" x="382.27025" y="120.075" transform="rotate(-0 382.27025 120.075)">0.02</text>
   </g>
   <g id="text_21">
    <text style="fill: #ffffff; font: 20px 'Arial', 'Helvetica', 'DejaVu Sans', sans-serif; text-anchor: middle" x="449.19875" y="120.075" transform="rotate(-0 449.19875 120.075)">0.00</text>
   </g>
   <g id="text_22">
    <text style="fill: #ffffff; font: 20px 'Arial', 'Helvetica', 'DejaVu Sans', sans-serif; text-anchor: middle" x="516.12725" y="120.075" transform="rotate(-0 516.12725 120.075)">0.00</text>
   </g>
   <g id="text_23">
    <text style="fill: #262626; font: 20px 'Arial', 'Helvetica', 'DejaVu Sans', sans-serif; text-anchor: middle" x="583.05575" y="120.075" transform="rotate(-0 583.05575 120.075)">0.37</text>
   </g>
   <g id="text_24">
    <text style="fill: #262626; font: 20px 'Arial', 'Helvetica', 'DejaVu Sans', sans-serif; text-anchor: middle" x="248.41325" y="187.0035" transform="rotate(-0 248.41325 187.0035)">0.32</text>
   </g>
   <g id="text_25">
    <text style="fill: #ffffff; font: 20px 'Arial', 'Helvetica', 'DejaVu Sans', sans-serif; text-anchor: middle" x="315.34175" y="187.0035" transform="rotate(-0 315.34175 187.0035)">0.00</text>
   </g>
   <g id="text_26">
    <text style="fill: #ffffff; font: 20px 'Arial', 'Helvetica', 'DejaVu Sans', sans-serif; text-anchor: middle" x="382.27025" y="187.0035" transform="rotate(-0 382.27025 187.0035)">0.04</text>
   </g>
   <g id="text_27">
    <text style="fill: #ffffff; font: 20px 'Arial', 'Helvetica', 'DejaVu Sans', sans-serif; text-anchor: middle" x="449.19875" y="187.0035" transform="rotate(-0 449.19875 187.0035)">0.00</text>
   </g>
   <g id="text_28">
    <text style="fill: #ffffff; font: 20px 'Arial', 'Helvetica', 'DejaVu Sans', sans-serif; text-anchor: middle" x="516.12725" y="187.0035" transform="rotate(-0 516.12725 187.0035)">0.00</text>
   </g>
   <g id="text_29">
    <text style="fill: #ffffff; font: 20px 'Arial', 'Helvetica', 'DejaVu Sans', sans-serif; text-anchor: middle" x="583.05575" y="187.0035" transform="rotate(-0 583.05575 187.0035)">0.05</text>
   </g>
   <g id="text_30">
    <text style="fill: #ffffff; font: 20px 'Arial', 'Helvetica', 'DejaVu Sans', sans-serif; text-anchor: middle" x="315.34175" y="253.932" transform="rotate(-0 315.34175 253.932)">0.06</text>
   </g>
   <g id="text_31">
    <text style="fill: #262626; font: 20px 'Arial', 'Helvetica', 'DejaVu Sans', sans-serif; text-anchor: middle" x="382.27025" y="253.932" transform="rotate(-0 382.27025 253.932)">0.50</text>
   </g>
   <g id="text_32">
    <text style="fill: #ffffff; font: 20px 'Arial', 'Helvetica', 'DejaVu Sans', sans-serif; text-anchor: middle" x="449.19875" y="253.932" transform="rotate(-0 449.19875 253.932)">0.08</text>
   </g>
   <g id="text_33">
    <text style="fill: #ffffff; font: 20px 'Arial', 'Helvetica', 'DejaVu Sans', sans-serif; text-anchor: middle" x="516.12725" y="253.932" transform="rotate(-0 516.12725 253.932)">0.21</text>
   </g>
   <g id="text_34">
    <text style="fill: #ffffff; font: 20px 'Arial', 'Helvetica', 'DejaVu Sans', sans-serif; text-anchor: middle" x="583.05575" y="253.932" transform="rotate(-0 583.05575 253.932)">0.83</text>
   </g>
   <g id="text_35">
    <text style="fill: #ffffff; font: 20px 'Arial', 'Helvetica', 'DejaVu Sans', sans-serif; text-anchor: middle" x="382.27025" y="320.8605" transform="rotate(-0 382.27025 320.8605)">0.99</text>
   </g>
   <g id="text_36">
    <text style="fill: #ffffff; font: 20px 'Arial', 'Helvetica', 'DejaVu Sans', sans-serif; text-anchor: middle" x="449.19875" y="320.8605" transform="rotate(-0 449.19875 320.8605)">1.00</text>
   </g>
   <g id="text_37">
    <text style="fill: #ffffff; font: 20px 'Arial', 'Helvetica', 'DejaVu Sans', sans-serif; text-anchor: middle" x="516.12725" y="320.8605" transform="rotate(-0 516.12725 320.8605)">1.00</text>
   </g>
   <g id="text_38">
    <text style="fill: #ffffff; font: 20px 'Arial', 'Helvetica', 'DejaVu Sans', sans-serif; text-anchor: middle" x="583.05575" y="320.8605" transform="rotate(-0 583.05575 320.8605)">0.98</text>
   </g>
   <g id="text_39">
    <text style="fill: #ffffff; font: 20px 'Arial', 'Helvetica', 'DejaVu Sans', sans-serif; text-anchor: middle" x="449.19875" y="387.789" transform="rotate(-0 449.19875 387.789)">0.94</text>
   </g>
   <g id="text_40">
    <text style="fill: #ffffff; font: 20px 'Arial', 'Helvetica', 'DejaVu Sans', sans-serif; text-anchor: middle" x="516.12725" y="387.789" transform="rotate(-0 516.12725 387.789)">0.99</text>
   </g>
   <g id="text_41">
    <text style="fill: #262626; font: 20px 'Arial', 'Helvetica', 'DejaVu Sans', sans-serif; text-anchor: middle" x="583.05575" y="387.789" transform="rotate(-0 583.05575 387.789)">0.47</text>
   </g>
   <g id="text_42">
    <text style="fill: #262626; font: 20px 'Arial', 'Helvetica', 'DejaVu Sans', sans-serif; text-anchor: middle" x="516.12725" y="454.7175" transform="rotate(-0 516.12725 454.7175)">0.66</text>
   </g>
   <g id="text_43">
    <text style="fill: #ffffff; font: 20px 'Arial', 'Helvetica', 'DejaVu Sans', sans-serif; text-anchor: middle" x="583.05575" y="454.7175" transform="rotate(-0 583.05575 454.7175)">0.78</text>
   </g>
   <g id="text_44">
    <text style="fill: #ffffff; font: 20px 'Arial', 'Helvetica', 'DejaVu Sans', sans-serif; text-anchor: middle" x="583.05575" y="521.646" transform="rotate(-0 583.05575 521.646)">0.13</text>
   </g>
   <g id="text_45">
    <text style="fill: #262626; font: 20px 'Arial', 'Helvetica', 'DejaVu Sans', sans-serif; text-anchor: middle" x="114.55625" y="187.0035" transform="rotate(-0 114.55625 187.0035)">0.22</text>
   </g>
   <g id="text_46">
    <text style="fill: #262626; font: 20px 'Arial', 'Helvetica', 'DejaVu Sans', sans-serif; text-anchor: middle" x="114.55625" y="253.932" transform="rotate(-0 114.55625 253.932)">0.12</text>
   </g>
   <g id="text_47">
    <text style="fill: #262626; font: 20px 'Arial', 'Helvetica', 'DejaVu Sans', sans-serif; text-anchor: middle" x="181.48475" y="253.932" transform="rotate(-0 181.48475 253.932)">0.14</text>
   </g>
   <g id="text_48">
    <text style="fill: #262626; font: 20px 'Arial', 'Helvetica', 'DejaVu Sans', sans-serif; text-anchor: middle" x="114.55625" y="320.8605" transform="rotate(-0 114.55625 320.8605)">0.24</text>
   </g>
   <g id="text_49">
    <text style="fill: #ffffff; font: 20px 'Arial', 'Helvetica', 'DejaVu Sans', sans-serif; text-anchor: middle" x="181.48475" y="320.8605" transform="rotate(-0 181.48475 320.8605)">0.92</text>
   </g>
   <g id="text_50">
    <text style="fill: #262626; font: 20px 'Arial', 'Helvetica', 'DejaVu Sans', sans-serif; text-anchor: middle" x="248.41325" y="320.8605" transform="rotate(-0 248.41325 320.8605)">0.33</text>
   </g>
   <g id="text_51">
    <text style="fill: #262626; font: 20px 'Arial', 'Helvetica', 'DejaVu Sans', sans-serif; text-anchor: middle" x="114.55625" y="387.789" transform="rotate(-0 114.55625 387.789)">0.21</text>
   </g>
   <g id="text_52">
    <text style="fill: #262626; font: 20px 'Arial', 'Helvetica', 'DejaVu Sans', sans-serif; text-anchor: middle" x="181.48475" y="387.789" transform="rotate(-0 181.48475 387.789)">0.26</text>
   </g>
   <g id="text_53">
    <text style="fill: #ffffff; font: 20px 'Arial', 'Helvetica', 'DejaVu Sans', sans-serif; text-anchor: middle" x="248.41325" y="387.789" transform="rotate(-0 248.41325 387.789)">0.56</text>
   </g>
   <g id="text_54">
    <text style="fill: #262626; font: 20px 'Arial', 'Helvetica', 'DejaVu Sans', sans-serif; text-anchor: middle" x="315.34175" y="387.789" transform="rotate(-0 315.34175 387.789)">0.35</text>
   </g>
   <g id="text_55">
    <text style="fill: #262626; font: 20px 'Arial', 'Helvetica', 'DejaVu Sans', sans-serif; text-anchor: middle" x="114.55625" y="454.7175" transform="rotate(-0 114.55625 454.7175)">0.24</text>
   </g>
   <g id="text_56">
    <text style="fill: #ffffff; font: 20px 'Arial', 'Helvetica', 'DejaVu Sans', sans-serif; text-anchor: middle" x="181.48475" y="454.7175" transform="rotate(-0 181.48475 454.7175)">0.89</text>
   </g>
   <g id="text_57">
    <text style="fill: #262626; font: 20px 'Arial', 'Helvetica', 'DejaVu Sans', sans-serif; text-anchor: middle" x="248.41325" y="454.7175" transform="rotate(-0 248.41325 454.7175)">0.30</text>
   </g>
   <g id="text_58">
    <text style="fill: #ffffff; font: 20px 'Arial', 'Helvetica', 'DejaVu Sans', sans-serif; text-anchor: middle" x="315.34175" y="454.7175" transform="rotate(-0 315.34175 454.7175)">0.90</text>
   </g>
   <g id="text_59">
    <text style="fill: #262626; font: 20px 'Arial', 'Helvetica', 'DejaVu Sans', sans-serif; text-anchor: middle" x="382.27025" y="454.7175" transform="rotate(-0 382.27025 454.7175)">0.31</text>
   </g>
   <g id="text_60">
    <text style="fill: #262626; font: 20px 'Arial', 'Helvetica', 'DejaVu Sans', sans-serif; text-anchor: middle" x="114.55625" y="521.646" transform="rotate(-0 114.55625 521.646)">0.19</text>
   </g>
   <g id="text_61">
    <text style="fill: #ffffff; font: 20px 'Arial', 'Helvetica', 'DejaVu Sans', sans-serif; text-anchor: middle" x="181.48475" y="521.646" transform="rotate(-0 181.48475 521.646)">0.89</text>
   </g>
   <g id="text_62">
    <text style="fill: #262626; font: 20px 'Arial', 'Helvetica', 'DejaVu Sans', sans-serif; text-anchor: middle" x="248.41325" y="521.646" transform="rotate(-0 248.41325 521.646)">0.42</text>
   </g>
   <g id="text_63">
    <text style="fill: #ffffff; font: 20px 'Arial', 'Helvetica', 'DejaVu Sans', sans-serif; text-anchor: middle" x="315.34175" y="521.646" transform="rotate(-0 315.34175 521.646)">0.51</text>
   </g>
   <g id="text_64">
    <text style="fill: #262626; font: 20px 'Arial', 'Helvetica', 'DejaVu Sans', sans-serif; text-anchor: middle" x="382.27025" y="521.646" transform="rotate(-0 382.27025 521.646)">0.35</text>
   </g>
   <g id="text_65">
    <text style="fill: #ffffff; font: 20px 'Arial', 'Helvetica', 'DejaVu Sans', sans-serif; text-anchor: middle" x="449.19875" y="521.646" transform="rotate(-0 449.19875 521.646)">0.76</text>
   </g>
   <g id="text_66">
    <text style="fill: #262626; font: 20px 'Arial', 'Helvetica', 'DejaVu Sans', sans-serif; text-anchor: middle" x="114.55625" y="588.5745" transform="rotate(-0 114.55625 588.5745)">0.12</text>
   </g>
   <g id="text_67">
    <text style="fill: #262626; font: 20px 'Arial', 'Helvetica', 'DejaVu Sans', sans-serif; text-anchor: middle" x="181.48475" y="588.5745" transform="rotate(-0 181.48475 588.5745)">0.27</text>
   </g>
   <g id="text_68">
    <text style="fill: #262626; font: 20px 'Arial', 'Helvetica', 'DejaVu Sans', sans-serif; text-anchor: middle" x="248.41325" y="588.5745" transform="rotate(-0 248.41325 588.5745)">0.21</text>
   </g>
   <g id="text_69">
    <text style="fill: #262626; font: 20px 'Arial', 'Helvetica', 'DejaVu Sans', sans-serif; text-anchor: middle" x="315.34175" y="588.5745" transform="rotate(-0 315.34175 588.5745)">0.20</text>
   </g>
   <g id="text_70">
    <text style="fill: #262626; font: 20px 'Arial', 'Helvetica', 'DejaVu Sans', sans-serif; text-anchor: middle" x="382.27025" y="588.5745" transform="rotate(-0 382.27025 588.5745)">0.18</text>
   </g>
   <g id="text_71">
    <text style="fill: #262626; font: 20px 'Arial', 'Helvetica', 'DejaVu Sans', sans-serif; text-anchor: middle" x="449.19875" y="588.5745" transform="rotate(-0 449.19875 588.5745)">0.18</text>
   </g>
   <g id="text_72">
    <text style="fill: #262626; font: 20px 'Arial', 'Helvetica', 'DejaVu Sans', sans-serif; text-anchor: middle" x="516.12725" y="588.5745" transform="rotate(-0 516.12725 588.5745)">0.24</text>
   </g>
   <g id="text_73">
    <text style="fill: #ffffff; font: 20px 'Arial', 'Helvetica', 'DejaVu Sans', sans-serif; text-anchor: middle" x="114.55625" y="120.075" transform="rotate(-0 114.55625 120.075)">1</text>
   </g>
   <g id="text_74">
    <text style="fill: #ffffff; font: 20px 'Arial', 'Helvetica', 'DejaVu Sans', sans-serif; text-anchor: middle" x="181.48475" y="187.0035" transform="rotate(-0 181.48475 187.0035)">1</text>
   </g>
   <g id="text_75">
    <text style="fill: #ffffff; font: 20px 'Arial', 'Helvetica', 'DejaVu Sans', sans-serif; text-anchor: middle" x="248.41325" y="253.932" transform="rotate(-0 248.41325 253.932)">1</text>
   </g>
   <g id="text_76">
    <text style="fill: #ffffff; font: 20px 'Arial', 'Helvetica', 'DejaVu Sans', sans-serif; text-anchor: middle" x="315.34175" y="320.8605" transform="rotate(-0 315.34175 320.8605)">1</text>
   </g>
   <g id="text_77">
    <text style="fill: #ffffff; font: 20px 'Arial', 'Helvetica', 'DejaVu Sans', sans-serif; text-anchor: middle" x="382.27025" y="387.789" transform="rotate(-0 382.27025 387.789)">1</text>
   </g>
   <g id="text_78">
    <text style="fill: #ffffff; font: 20px 'Arial', 'Helvetica', 'DejaVu Sans', sans-serif; text-anchor: middle" x="449.19875" y="454.7175" transform="rotate(-0 449.19875 454.7175)">1</text>
   </g>
   <g id="text_79">
    <text style="fill: #ffffff; font: 20px 'Arial', 'Helvetica', 'DejaVu Sans', sans-serif; text-anchor: middle" x="516.12725" y="521.646" transform="rotate(-0 516.12725 521.646)">1</text>
   </g>
   <g id="text_80">
    <text style="fill: #ffffff; font: 20px 'Arial', 'Helvetica', 'DejaVu Sans', sans-serif; text-anchor: middle" x="583.05575" y="588.5745" transform="rotate(-0 583.05575 588.5745)">1</text>
   </g>
  </g>
 </g>
 <defs>
  <clipPath id="p29ee93b68e">
   <rect x="10.8" y="81.092" width="59.492" height="535.428"/>
  </clipPath>
  <clipPath id="pb84d3484d2">
   <rect x="81.092" y="10.8" width="535.428" height="59.492"/>
  </clipPath>
  <clipPath id="pd27c2791b3">
   <rect x="81.092" y="81.092" width="535.428" height="535.428"/>
  </clipPath>
 </defs>
</svg>
