<?xml version="1.0" encoding="utf-8" standalone="no"?>
<!DOCTYPE svg PUBLIC "-//W3C//DTD SVG 1.1//EN"
  "http://www.w3.org/Graphics/SVG/1.1/DTD/svg11.dtd">
<svg xmlns:xlink="http://www.w3.org/1999/xlink" width="576pt" height="576pt" viewBox="0 0 576 576" xmlns="http://www.w3.org/2000/svg" version="1.1">
 <metadata>
  <rdf:RDF xmlns:dc="http://purl.org/dc/elements/1.1/" xmlns:cc="http://creativecommons.org/ns#" xmlns:rdf="http://www.w3.org/1999/02/22-rdf-syntax-ns#">
   <cc:Work>
    <dc:type rdf:resource="http://purl.org/dc/dcmitype/StillImage"/>
    <dc:date>2025-06-30T13:29:40.302937</dc:date>
    <dc:format>image/svg+xml</dc:format>
    <dc:creator>
     <cc:Agent>
      <dc:title>Matplotlib v3.6.2, https://matplotlib.org/</dc:title>
     </cc:Agent>
    </dc:creator>
   </cc:Work>
  </rdf:RDF>
 </metadata>
 <defs>
  <style type="text/css">*{stroke-linejoin: round; stroke-linecap: butt}</style>
 </defs>
 <g id="figure_1">
  <g id="patch_1">
   <path d="M 0 576 
L 576 576 
L 576 0 
L 0 0 
z
" style="fill: #ffffff"/>
  </g>
  <g id="axes_1">
   <g id="LineCollection_1">
    <path d="M 63.092 107.508286 
L 31.711304 107.508286 
L 31.711304 174.740857 
L 63.092 174.740857 
" clip-path="url(#p0f223f9f8d)" style="fill: none; stroke: #333333; stroke-width: 0.5"/>
    <path d="M 63.092 241.973429 
L 31.596092 241.973429 
L 31.596092 309.206 
L 63.092 309.206 
" clip-path="url(#p0f223f9f8d)" style="fill: none; stroke: #333333; stroke-width: 0.5"/>
    <path d="M 31.711304 141.124571 
L 31.530436 141.124571 
L 31.530436 275.589714 
L 31.596092 275.589714 
" clip-path="url(#p0f223f9f8d)" style="fill: none; stroke: #333333; stroke-width: 0.5"/>
    <path d="M 63.092 443.671143 
L 31.455694 443.671143 
L 31.455694 510.903714 
L 63.092 510.903714 
" clip-path="url(#p0f223f9f8d)" style="fill: none; stroke: #333333; stroke-width: 0.5"/>
    <path d="M 63.092 376.438571 
L 31.449746 376.438571 
L 31.449746 477.287429 
L 31.455694 477.287429 
" clip-path="url(#p0f223f9f8d)" style="fill: none; stroke: #333333; stroke-width: 0.5"/>
    <path d="M 31.530436 208.357143 
L 13.290095 208.357143 
L 13.290095 426.863 
L 31.449746 426.863 
" clip-path="url(#p0f223f9f8d)" style="fill: none; stroke: #333333; stroke-width: 0.5"/>
   </g>
  </g>
  <g id="axes_2">
   <g id="LineCollection_2">
    <path d="M 107.508286 63.092 
L 107.508286 31.711304 
L 174.740857 31.711304 
L 174.740857 63.092 
" clip-path="url(#p5f01051050)" style="fill: none; stroke: #333333; stroke-width: 0.5"/>
    <path d="M 241.973429 63.092 
L 241.973429 31.596092 
L 309.206 31.596092 
L 309.206 63.092 
" clip-path="url(#p5f01051050)" style="fill: none; stroke: #333333; stroke-width: 0.5"/>
    <path d="M 141.124571 31.711304 
L 141.124571 31.530436 
L 275.589714 31.530436 
L 275.589714 31.596092 
" clip-path="url(#p5f01051050)" style="fill: none; stroke: #333333; stroke-width: 0.5"/>
    <path d="M 443.671143 63.092 
L 443.671143 31.455694 
L 510.903714 31.455694 
L 510.903714 63.092 
" clip-path="url(#p5f01051050)" style="fill: none; stroke: #333333; stroke-width: 0.5"/>
    <path d="M 376.438571 63.092 
L 376.438571 31.449746 
L 477.287429 31.449746 
L 477.287429 31.455694 
" clip-path="url(#p5f01051050)" style="fill: none; stroke: #333333; stroke-width: 0.5"/>
    <path d="M 208.357143 31.530436 
L 208.357143 13.290095 
L 426.863 13.290095 
L 426.863 31.449746 
" clip-path="url(#p5f01051050)" style="fill: none; stroke: #333333; stroke-width: 0.5"/>
   </g>
  </g>
  <g id="axes_3">
   <g id="patch_2">
    <path d="M 73.892 544.52 
L 544.52 544.52 
L 544.52 73.892 
L 73.892 73.892 
z
" style="fill: #ffffff"/>
   </g>
   <g id="QuadMesh_1">
    <path d="M 73.892 73.892 
L 141.124571 73.892 
L 141.124571 141.124571 
L 73.892 141.124571 
L 73.892 73.892 
" clip-path="url(#p282f2ecc9c)" style="fill: #67001f"/>
    <path d="M 141.124571 73.892 
L 208.357143 73.892 
L 208.357143 141.124571 
L 141.124571 141.124571 
L 141.124571 73.892 
" clip-path="url(#p282f2ecc9c)" style="fill: #073467"/>
    <path d="M 208.357143 73.892 
L 275.589714 73.892 
L 275.589714 141.124571 
L 208.357143 141.124571 
L 208.357143 73.892 
" clip-path="url(#p282f2ecc9c)" style="fill: #063264"/>
    <path d="M 275.589714 73.892 
L 342.822286 73.892 
L 342.822286 141.124571 
L 275.589714 141.124571 
L 275.589714 73.892 
" clip-path="url(#p282f2ecc9c)" style="fill: #053061"/>
    <path d="M 342.822286 73.892 
L 410.054857 73.892 
L 410.054857 141.124571 
L 342.822286 141.124571 
L 342.822286 73.892 
" clip-path="url(#p282f2ecc9c)" style="fill: #67001f"/>
    <path d="M 410.054857 73.892 
L 477.287429 73.892 
L 477.287429 141.124571 
L 410.054857 141.124571 
L 410.054857 73.892 
" clip-path="url(#p282f2ecc9c)" style="fill: #67001f"/>
    <path d="M 477.287429 73.892 
L 544.52 73.892 
L 544.52 141.124571 
L 477.287429 141.124571 
L 477.287429 73.892 
" clip-path="url(#p282f2ecc9c)" style="fill: #67001f"/>
    <path d="M 73.892 141.124571 
L 141.124571 141.124571 
L 141.124571 208.357143 
L 73.892 208.357143 
L 73.892 141.124571 
" clip-path="url(#p282f2ecc9c)" style="fill: #073467"/>
    <path d="M 141.124571 141.124571 
L 208.357143 141.124571 
L 208.357143 208.357143 
L 141.124571 208.357143 
L 141.124571 141.124571 
" clip-path="url(#p282f2ecc9c)" style="fill: #67001f"/>
    <path d="M 208.357143 141.124571 
L 275.589714 141.124571 
L 275.589714 208.357143 
L 208.357143 208.357143 
L 208.357143 141.124571 
" clip-path="url(#p282f2ecc9c)" style="fill: #053061"/>
    <path d="M 275.589714 141.124571 
L 342.822286 141.124571 
L 342.822286 208.357143 
L 275.589714 208.357143 
L 275.589714 141.124571 
" clip-path="url(#p282f2ecc9c)" style="fill: #063264"/>
    <path d="M 342.822286 141.124571 
L 410.054857 141.124571 
L 410.054857 208.357143 
L 342.822286 208.357143 
L 342.822286 141.124571 
" clip-path="url(#p282f2ecc9c)" style="fill: #67001f"/>
    <path d="M 410.054857 141.124571 
L 477.287429 141.124571 
L 477.287429 208.357143 
L 410.054857 208.357143 
L 410.054857 141.124571 
" clip-path="url(#p282f2ecc9c)" style="fill: #67001f"/>
    <path d="M 477.287429 141.124571 
L 544.52 141.124571 
L 544.52 208.357143 
L 477.287429 208.357143 
L 477.287429 141.124571 
" clip-path="url(#p282f2ecc9c)" style="fill: #67001f"/>
    <path d="M 73.892 208.357143 
L 141.124571 208.357143 
L 141.124571 275.589714 
L 73.892 275.589714 
L 73.892 208.357143 
" clip-path="url(#p282f2ecc9c)" style="fill: #063264"/>
    <path d="M 141.124571 208.357143 
L 208.357143 208.357143 
L 208.357143 275.589714 
L 141.124571 275.589714 
L 141.124571 208.357143 
" clip-path="url(#p282f2ecc9c)" style="fill: #053061"/>
    <path d="M 208.357143 208.357143 
L 275.589714 208.357143 
L 275.589714 275.589714 
L 208.357143 275.589714 
L 208.357143 208.357143 
" clip-path="url(#p282f2ecc9c)" style="fill: #67001f"/>
    <path d="M 275.589714 208.357143 
L 342.822286 208.357143 
L 342.822286 275.589714 
L 275.589714 275.589714 
L 275.589714 208.357143 
" clip-path="url(#p282f2ecc9c)" style="fill: #063264"/>
    <path d="M 342.822286 208.357143 
L 410.054857 208.357143 
L 410.054857 275.589714 
L 342.822286 275.589714 
L 342.822286 208.357143 
" clip-path="url(#p282f2ecc9c)" style="fill: #67001f"/>
    <path d="M 410.054857 208.357143 
L 477.287429 208.357143 
L 477.287429 275.589714 
L 410.054857 275.589714 
L 410.054857 208.357143 
" clip-path="url(#p282f2ecc9c)" style="fill: #67001f"/>
    <path d="M 477.287429 208.357143 
L 544.52 208.357143 
L 544.52 275.589714 
L 477.287429 275.589714 
L 477.287429 208.357143 
" clip-path="url(#p282f2ecc9c)" style="fill: #67001f"/>
    <path d="M 73.892 275.589714 
L 141.124571 275.589714 
L 141.124571 342.822286 
L 73.892 342.822286 
L 73.892 275.589714 
" clip-path="url(#p282f2ecc9c)" style="fill: #053061"/>
    <path d="M 141.124571 275.589714 
L 208.357143 275.589714 
L 208.357143 342.822286 
L 141.124571 342.822286 
L 141.124571 275.589714 
" clip-path="url(#p282f2ecc9c)" style="fill: #063264"/>
    <path d="M 208.357143 275.589714 
L 275.589714 275.589714 
L 275.589714 342.822286 
L 208.357143 342.822286 
L 208.357143 275.589714 
" clip-path="url(#p282f2ecc9c)" style="fill: #063264"/>
    <path d="M 275.589714 275.589714 
L 342.822286 275.589714 
L 342.822286 342.822286 
L 275.589714 342.822286 
L 275.589714 275.589714 
" clip-path="url(#p282f2ecc9c)" style="fill: #67001f"/>
    <path d="M 342.822286 275.589714 
L 410.054857 275.589714 
L 410.054857 342.822286 
L 342.822286 342.822286 
L 342.822286 275.589714 
" clip-path="url(#p282f2ecc9c)" style="fill: #6a011f"/>
    <path d="M 410.054857 275.589714 
L 477.287429 275.589714 
L 477.287429 342.822286 
L 410.054857 342.822286 
L 410.054857 275.589714 
" clip-path="url(#p282f2ecc9c)" style="fill: #700320"/>
    <path d="M 477.287429 275.589714 
L 544.52 275.589714 
L 544.52 342.822286 
L 477.287429 342.822286 
L 477.287429 275.589714 
" clip-path="url(#p282f2ecc9c)" style="fill: #67001f"/>
    <path d="M 73.892 342.822286 
L 141.124571 342.822286 
L 141.124571 410.054857 
L 73.892 410.054857 
L 73.892 342.822286 
" clip-path="url(#p282f2ecc9c)" style="fill: #67001f"/>
    <path d="M 141.124571 342.822286 
L 208.357143 342.822286 
L 208.357143 410.054857 
L 141.124571 410.054857 
L 141.124571 342.822286 
" clip-path="url(#p282f2ecc9c)" style="fill: #67001f"/>
    <path d="M 208.357143 342.822286 
L 275.589714 342.822286 
L 275.589714 410.054857 
L 208.357143 410.054857 
L 208.357143 342.822286 
" clip-path="url(#p282f2ecc9c)" style="fill: #67001f"/>
    <path d="M 275.589714 342.822286 
L 342.822286 342.822286 
L 342.822286 410.054857 
L 275.589714 410.054857 
L 275.589714 342.822286 
" clip-path="url(#p282f2ecc9c)" style="fill: #6a011f"/>
    <path d="M 342.822286 342.822286 
L 410.054857 342.822286 
L 410.054857 410.054857 
L 342.822286 410.054857 
L 342.822286 342.822286 
" clip-path="url(#p282f2ecc9c)" style="fill: #67001f"/>
    <path d="M 410.054857 342.822286 
L 477.287429 342.822286 
L 477.287429 410.054857 
L 410.054857 410.054857 
L 410.054857 342.822286 
" clip-path="url(#p282f2ecc9c)" style="fill: #053061"/>
    <path d="M 477.287429 342.822286 
L 544.52 342.822286 
L 544.52 410.054857 
L 477.287429 410.054857 
L 477.287429 342.822286 
" clip-path="url(#p282f2ecc9c)" style="fill: #053061"/>
    <path d="M 73.892 410.054857 
L 141.124571 410.054857 
L 141.124571 477.287429 
L 73.892 477.287429 
L 73.892 410.054857 
" clip-path="url(#p282f2ecc9c)" style="fill: #67001f"/>
    <path d="M 141.124571 410.054857 
L 208.357143 410.054857 
L 208.357143 477.287429 
L 141.124571 477.287429 
L 141.124571 410.054857 
" clip-path="url(#p282f2ecc9c)" style="fill: #67001f"/>
    <path d="M 208.357143 410.054857 
L 275.589714 410.054857 
L 275.589714 477.287429 
L 208.357143 477.287429 
L 208.357143 410.054857 
" clip-path="url(#p282f2ecc9c)" style="fill: #67001f"/>
    <path d="M 275.589714 410.054857 
L 342.822286 410.054857 
L 342.822286 477.287429 
L 275.589714 477.287429 
L 275.589714 410.054857 
" clip-path="url(#p282f2ecc9c)" style="fill: #700320"/>
    <path d="M 342.822286 410.054857 
L 410.054857 410.054857 
L 410.054857 477.287429 
L 342.822286 477.287429 
L 342.822286 410.054857 
" clip-path="url(#p282f2ecc9c)" style="fill: #053061"/>
    <path d="M 410.054857 410.054857 
L 477.287429 410.054857 
L 477.287429 477.287429 
L 410.054857 477.287429 
L 410.054857 410.054857 
" clip-path="url(#p282f2ecc9c)" style="fill: #67001f"/>
    <path d="M 477.287429 410.054857 
L 544.52 410.054857 
L 544.52 477.287429 
L 477.287429 477.287429 
L 477.287429 410.054857 
" clip-path="url(#p282f2ecc9c)" style="fill: #053061"/>
    <path d="M 73.892 477.287429 
L 141.124571 477.287429 
L 141.124571 544.52 
L 73.892 544.52 
L 73.892 477.287429 
" clip-path="url(#p282f2ecc9c)" style="fill: #67001f"/>
    <path d="M 141.124571 477.287429 
L 208.357143 477.287429 
L 208.357143 544.52 
L 141.124571 544.52 
L 141.124571 477.287429 
" clip-path="url(#p282f2ecc9c)" style="fill: #67001f"/>
    <path d="M 208.357143 477.287429 
L 275.589714 477.287429 
L 275.589714 544.52 
L 208.357143 544.52 
L 208.357143 477.287429 
" clip-path="url(#p282f2ecc9c)" style="fill: #67001f"/>
    <path d="M 275.589714 477.287429 
L 342.822286 477.287429 
L 342.822286 544.52 
L 275.589714 544.52 
L 275.589714 477.287429 
" clip-path="url(#p282f2ecc9c)" style="fill: #67001f"/>
    <path d="M 342.822286 477.287429 
L 410.054857 477.287429 
L 410.054857 544.52 
L 342.822286 544.52 
L 342.822286 477.287429 
" clip-path="url(#p282f2ecc9c)" style="fill: #053061"/>
    <path d="M 410.054857 477.287429 
L 477.287429 477.287429 
L 477.287429 544.52 
L 410.054857 544.52 
L 410.054857 477.287429 
" clip-path="url(#p282f2ecc9c)" style="fill: #053061"/>
    <path d="M 477.287429 477.287429 
L 544.52 477.287429 
L 544.52 544.52 
L 477.287429 544.52 
L 477.287429 477.287429 
" clip-path="url(#p282f2ecc9c)" style="fill: #67001f"/>
   </g>
   <g id="QuadMesh_2">
    <path d="M 73.892 73.892 
L 141.124571 73.892 
L 141.124571 141.124571 
L 73.892 141.124571 
L 73.892 73.892 
" clip-path="url(#p282f2ecc9c)" style="fill: none"/>
    <path d="M 141.124571 73.892 
L 208.357143 73.892 
L 208.357143 141.124571 
L 141.124571 141.124571 
L 141.124571 73.892 
" clip-path="url(#p282f2ecc9c)" style="fill: #073467"/>
    <path d="M 208.357143 73.892 
L 275.589714 73.892 
L 275.589714 141.124571 
L 208.357143 141.124571 
L 208.357143 73.892 
" clip-path="url(#p282f2ecc9c)" style="fill: #063264"/>
    <path d="M 275.589714 73.892 
L 342.822286 73.892 
L 342.822286 141.124571 
L 275.589714 141.124571 
L 275.589714 73.892 
" clip-path="url(#p282f2ecc9c)" style="fill: #053061"/>
    <path d="M 342.822286 73.892 
L 410.054857 73.892 
L 410.054857 141.124571 
L 342.822286 141.124571 
L 342.822286 73.892 
" clip-path="url(#p282f2ecc9c)" style="fill: #67001f"/>
    <path d="M 410.054857 73.892 
L 477.287429 73.892 
L 477.287429 141.124571 
L 410.054857 141.124571 
L 410.054857 73.892 
" clip-path="url(#p282f2ecc9c)" style="fill: #67001f"/>
    <path d="M 477.287429 73.892 
L 544.52 73.892 
L 544.52 141.124571 
L 477.287429 141.124571 
L 477.287429 73.892 
" clip-path="url(#p282f2ecc9c)" style="fill: #67001f"/>
    <path d="M 73.892 141.124571 
L 141.124571 141.124571 
L 141.124571 208.357143 
L 73.892 208.357143 
L 73.892 141.124571 
" clip-path="url(#p282f2ecc9c)" style="fill: none"/>
    <path d="M 141.124571 141.124571 
L 208.357143 141.124571 
L 208.357143 208.357143 
L 141.124571 208.357143 
L 141.124571 141.124571 
" clip-path="url(#p282f2ecc9c)" style="fill: none"/>
    <path d="M 208.357143 141.124571 
L 275.589714 141.124571 
L 275.589714 208.357143 
L 208.357143 208.357143 
L 208.357143 141.124571 
" clip-path="url(#p282f2ecc9c)" style="fill: #053061"/>
    <path d="M 275.589714 141.124571 
L 342.822286 141.124571 
L 342.822286 208.357143 
L 275.589714 208.357143 
L 275.589714 141.124571 
" clip-path="url(#p282f2ecc9c)" style="fill: #063264"/>
    <path d="M 342.822286 141.124571 
L 410.054857 141.124571 
L 410.054857 208.357143 
L 342.822286 208.357143 
L 342.822286 141.124571 
" clip-path="url(#p282f2ecc9c)" style="fill: #67001f"/>
    <path d="M 410.054857 141.124571 
L 477.287429 141.124571 
L 477.287429 208.357143 
L 410.054857 208.357143 
L 410.054857 141.124571 
" clip-path="url(#p282f2ecc9c)" style="fill: #67001f"/>
    <path d="M 477.287429 141.124571 
L 544.52 141.124571 
L 544.52 208.357143 
L 477.287429 208.357143 
L 477.287429 141.124571 
" clip-path="url(#p282f2ecc9c)" style="fill: #67001f"/>
    <path d="M 73.892 208.357143 
L 141.124571 208.357143 
L 141.124571 275.589714 
L 73.892 275.589714 
L 73.892 208.357143 
" clip-path="url(#p282f2ecc9c)" style="fill: none"/>
    <path d="M 141.124571 208.357143 
L 208.357143 208.357143 
L 208.357143 275.589714 
L 141.124571 275.589714 
L 141.124571 208.357143 
" clip-path="url(#p282f2ecc9c)" style="fill: none"/>
    <path d="M 208.357143 208.357143 
L 275.589714 208.357143 
L 275.589714 275.589714 
L 208.357143 275.589714 
L 208.357143 208.357143 
" clip-path="url(#p282f2ecc9c)" style="fill: none"/>
    <path d="M 275.589714 208.357143 
L 342.822286 208.357143 
L 342.822286 275.589714 
L 275.589714 275.589714 
L 275.589714 208.357143 
" clip-path="url(#p282f2ecc9c)" style="fill: #063264"/>
    <path d="M 342.822286 208.357143 
L 410.054857 208.357143 
L 410.054857 275.589714 
L 342.822286 275.589714 
L 342.822286 208.357143 
" clip-path="url(#p282f2ecc9c)" style="fill: #67001f"/>
    <path d="M 410.054857 208.357143 
L 477.287429 208.357143 
L 477.287429 275.589714 
L 410.054857 275.589714 
L 410.054857 208.357143 
" clip-path="url(#p282f2ecc9c)" style="fill: #67001f"/>
    <path d="M 477.287429 208.357143 
L 544.52 208.357143 
L 544.52 275.589714 
L 477.287429 275.589714 
L 477.287429 208.357143 
" clip-path="url(#p282f2ecc9c)" style="fill: #67001f"/>
    <path d="M 73.892 275.589714 
L 141.124571 275.589714 
L 141.124571 342.822286 
L 73.892 342.822286 
L 73.892 275.589714 
" clip-path="url(#p282f2ecc9c)" style="fill: none"/>
    <path d="M 141.124571 275.589714 
L 208.357143 275.589714 
L 208.357143 342.822286 
L 141.124571 342.822286 
L 141.124571 275.589714 
" clip-path="url(#p282f2ecc9c)" style="fill: none"/>
    <path d="M 208.357143 275.589714 
L 275.589714 275.589714 
L 275.589714 342.822286 
L 208.357143 342.822286 
L 208.357143 275.589714 
" clip-path="url(#p282f2ecc9c)" style="fill: none"/>
    <path d="M 275.589714 275.589714 
L 342.822286 275.589714 
L 342.822286 342.822286 
L 275.589714 342.822286 
L 275.589714 275.589714 
" clip-path="url(#p282f2ecc9c)" style="fill: none"/>
    <path d="M 342.822286 275.589714 
L 410.054857 275.589714 
L 410.054857 342.822286 
L 342.822286 342.822286 
L 342.822286 275.589714 
" clip-path="url(#p282f2ecc9c)" style="fill: #6a011f"/>
    <path d="M 410.054857 275.589714 
L 477.287429 275.589714 
L 477.287429 342.822286 
L 410.054857 342.822286 
L 410.054857 275.589714 
" clip-path="url(#p282f2ecc9c)" style="fill: #700320"/>
    <path d="M 477.287429 275.589714 
L 544.52 275.589714 
L 544.52 342.822286 
L 477.287429 342.822286 
L 477.287429 275.589714 
" clip-path="url(#p282f2ecc9c)" style="fill: #67001f"/>
    <path d="M 73.892 342.822286 
L 141.124571 342.822286 
L 141.124571 410.054857 
L 73.892 410.054857 
L 73.892 342.822286 
" clip-path="url(#p282f2ecc9c)" style="fill: none"/>
    <path d="M 141.124571 342.822286 
L 208.357143 342.822286 
L 208.357143 410.054857 
L 141.124571 410.054857 
L 141.124571 342.822286 
" clip-path="url(#p282f2ecc9c)" style="fill: none"/>
    <path d="M 208.357143 342.822286 
L 275.589714 342.822286 
L 275.589714 410.054857 
L 208.357143 410.054857 
L 208.357143 342.822286 
" clip-path="url(#p282f2ecc9c)" style="fill: none"/>
    <path d="M 275.589714 342.822286 
L 342.822286 342.822286 
L 342.822286 410.054857 
L 275.589714 410.054857 
L 275.589714 342.822286 
" clip-path="url(#p282f2ecc9c)" style="fill: none"/>
    <path d="M 342.822286 342.822286 
L 410.054857 342.822286 
L 410.054857 410.054857 
L 342.822286 410.054857 
L 342.822286 342.822286 
" clip-path="url(#p282f2ecc9c)" style="fill: none"/>
    <path d="M 410.054857 342.822286 
L 477.287429 342.822286 
L 477.287429 410.054857 
L 410.054857 410.054857 
L 410.054857 342.822286 
" clip-path="url(#p282f2ecc9c)" style="fill: #053061"/>
    <path d="M 477.287429 342.822286 
L 544.52 342.822286 
L 544.52 410.054857 
L 477.287429 410.054857 
L 477.287429 342.822286 
" clip-path="url(#p282f2ecc9c)" style="fill: #053061"/>
    <path d="M 73.892 410.054857 
L 141.124571 410.054857 
L 141.124571 477.287429 
L 73.892 477.287429 
L 73.892 410.054857 
" clip-path="url(#p282f2ecc9c)" style="fill: none"/>
    <path d="M 141.124571 410.054857 
L 208.357143 410.054857 
L 208.357143 477.287429 
L 141.124571 477.287429 
L 141.124571 410.054857 
" clip-path="url(#p282f2ecc9c)" style="fill: none"/>
    <path d="M 208.357143 410.054857 
L 275.589714 410.054857 
L 275.589714 477.287429 
L 208.357143 477.287429 
L 208.357143 410.054857 
" clip-path="url(#p282f2ecc9c)" style="fill: none"/>
    <path d="M 275.589714 410.054857 
L 342.822286 410.054857 
L 342.822286 477.287429 
L 275.589714 477.287429 
L 275.589714 410.054857 
" clip-path="url(#p282f2ecc9c)" style="fill: none"/>
    <path d="M 342.822286 410.054857 
L 410.054857 410.054857 
L 410.054857 477.287429 
L 342.822286 477.287429 
L 342.822286 410.054857 
" clip-path="url(#p282f2ecc9c)" style="fill: none"/>
    <path d="M 410.054857 410.054857 
L 477.287429 410.054857 
L 477.287429 477.287429 
L 410.054857 477.287429 
L 410.054857 410.054857 
" clip-path="url(#p282f2ecc9c)" style="fill: none"/>
    <path d="M 477.287429 410.054857 
L 544.52 410.054857 
L 544.52 477.287429 
L 477.287429 477.287429 
L 477.287429 410.054857 
" clip-path="url(#p282f2ecc9c)" style="fill: #053061"/>
    <path d="M 73.892 477.287429 
L 141.124571 477.287429 
L 141.124571 544.52 
L 73.892 544.52 
L 73.892 477.287429 
" clip-path="url(#p282f2ecc9c)" style="fill: none"/>
    <path d="M 141.124571 477.287429 
L 208.357143 477.287429 
L 208.357143 544.52 
L 141.124571 544.52 
L 141.124571 477.287429 
" clip-path="url(#p282f2ecc9c)" style="fill: none"/>
    <path d="M 208.357143 477.287429 
L 275.589714 477.287429 
L 275.589714 544.52 
L 208.357143 544.52 
L 208.357143 477.287429 
" clip-path="url(#p282f2ecc9c)" style="fill: none"/>
    <path d="M 275.589714 477.287429 
L 342.822286 477.287429 
L 342.822286 544.52 
L 275.589714 544.52 
L 275.589714 477.287429 
" clip-path="url(#p282f2ecc9c)" style="fill: none"/>
    <path d="M 342.822286 477.287429 
L 410.054857 477.287429 
L 410.054857 544.52 
L 342.822286 544.52 
L 342.822286 477.287429 
" clip-path="url(#p282f2ecc9c)" style="fill: none"/>
    <path d="M 410.054857 477.287429 
L 477.287429 477.287429 
L 477.287429 544.52 
L 410.054857 544.52 
L 410.054857 477.287429 
" clip-path="url(#p282f2ecc9c)" style="fill: none"/>
    <path d="M 477.287429 477.287429 
L 544.52 477.287429 
L 544.52 544.52 
L 477.287429 544.52 
L 477.287429 477.287429 
" clip-path="url(#p282f2ecc9c)" style="fill: none"/>
   </g>
   <g id="QuadMesh_3">
    <path d="M 73.892 73.892 
L 141.124571 73.892 
L 141.124571 141.124571 
L 73.892 141.124571 
L 73.892 73.892 
" clip-path="url(#p282f2ecc9c)" style="fill: none"/>
    <path d="M 141.124571 73.892 
L 208.357143 73.892 
L 208.357143 141.124571 
L 141.124571 141.124571 
L 141.124571 73.892 
" clip-path="url(#p282f2ecc9c)" style="fill: none"/>
    <path d="M 208.357143 73.892 
L 275.589714 73.892 
L 275.589714 141.124571 
L 208.357143 141.124571 
L 208.357143 73.892 
" clip-path="url(#p282f2ecc9c)" style="fill: none"/>
    <path d="M 275.589714 73.892 
L 342.822286 73.892 
L 342.822286 141.124571 
L 275.589714 141.124571 
L 275.589714 73.892 
" clip-path="url(#p282f2ecc9c)" style="fill: none"/>
    <path d="M 342.822286 73.892 
L 410.054857 73.892 
L 410.054857 141.124571 
L 342.822286 141.124571 
L 342.822286 73.892 
" clip-path="url(#p282f2ecc9c)" style="fill: none"/>
    <path d="M 410.054857 73.892 
L 477.287429 73.892 
L 477.287429 141.124571 
L 410.054857 141.124571 
L 410.054857 73.892 
" clip-path="url(#p282f2ecc9c)" style="fill: none"/>
    <path d="M 477.287429 73.892 
L 544.52 73.892 
L 544.52 141.124571 
L 477.287429 141.124571 
L 477.287429 73.892 
" clip-path="url(#p282f2ecc9c)" style="fill: none"/>
    <path d="M 73.892 141.124571 
L 141.124571 141.124571 
L 141.124571 208.357143 
L 73.892 208.357143 
L 73.892 141.124571 
" clip-path="url(#p282f2ecc9c)" style="fill: #e8e7f2"/>
    <path d="M 141.124571 141.124571 
L 208.357143 141.124571 
L 208.357143 208.357143 
L 141.124571 208.357143 
L 141.124571 141.124571 
" clip-path="url(#p282f2ecc9c)" style="fill: none"/>
    <path d="M 208.357143 141.124571 
L 275.589714 141.124571 
L 275.589714 208.357143 
L 208.357143 208.357143 
L 208.357143 141.124571 
" clip-path="url(#p282f2ecc9c)" style="fill: none"/>
    <path d="M 275.589714 141.124571 
L 342.822286 141.124571 
L 342.822286 208.357143 
L 275.589714 208.357143 
L 275.589714 141.124571 
" clip-path="url(#p282f2ecc9c)" style="fill: none"/>
    <path d="M 342.822286 141.124571 
L 410.054857 141.124571 
L 410.054857 208.357143 
L 342.822286 208.357143 
L 342.822286 141.124571 
" clip-path="url(#p282f2ecc9c)" style="fill: none"/>
    <path d="M 410.054857 141.124571 
L 477.287429 141.124571 
L 477.287429 208.357143 
L 410.054857 208.357143 
L 410.054857 141.124571 
" clip-path="url(#p282f2ecc9c)" style="fill: none"/>
    <path d="M 477.287429 141.124571 
L 544.52 141.124571 
L 544.52 208.357143 
L 477.287429 208.357143 
L 477.287429 141.124571 
" clip-path="url(#p282f2ecc9c)" style="fill: none"/>
    <path d="M 73.892 208.357143 
L 141.124571 208.357143 
L 141.124571 275.589714 
L 73.892 275.589714 
L 73.892 208.357143 
" clip-path="url(#p282f2ecc9c)" style="fill: #d3d3e8"/>
    <path d="M 141.124571 208.357143 
L 208.357143 208.357143 
L 208.357143 275.589714 
L 141.124571 275.589714 
L 141.124571 208.357143 
" clip-path="url(#p282f2ecc9c)" style="fill: #ecebf4"/>
    <path d="M 208.357143 208.357143 
L 275.589714 208.357143 
L 275.589714 275.589714 
L 208.357143 275.589714 
L 208.357143 208.357143 
" clip-path="url(#p282f2ecc9c)" style="fill: none"/>
    <path d="M 275.589714 208.357143 
L 342.822286 208.357143 
L 342.822286 275.589714 
L 275.589714 275.589714 
L 275.589714 208.357143 
" clip-path="url(#p282f2ecc9c)" style="fill: none"/>
    <path d="M 342.822286 208.357143 
L 410.054857 208.357143 
L 410.054857 275.589714 
L 342.822286 275.589714 
L 342.822286 208.357143 
" clip-path="url(#p282f2ecc9c)" style="fill: none"/>
    <path d="M 410.054857 208.357143 
L 477.287429 208.357143 
L 477.287429 275.589714 
L 410.054857 275.589714 
L 410.054857 208.357143 
" clip-path="url(#p282f2ecc9c)" style="fill: none"/>
    <path d="M 477.287429 208.357143 
L 544.52 208.357143 
L 544.52 275.589714 
L 477.287429 275.589714 
L 477.287429 208.357143 
" clip-path="url(#p282f2ecc9c)" style="fill: none"/>
    <path d="M 73.892 275.589714 
L 141.124571 275.589714 
L 141.124571 342.822286 
L 73.892 342.822286 
L 73.892 275.589714 
" clip-path="url(#p282f2ecc9c)" style="fill: #cecee5"/>
    <path d="M 141.124571 275.589714 
L 208.357143 275.589714 
L 208.357143 342.822286 
L 141.124571 342.822286 
L 141.124571 275.589714 
" clip-path="url(#p282f2ecc9c)" style="fill: #d5d5e9"/>
    <path d="M 208.357143 275.589714 
L 275.589714 275.589714 
L 275.589714 342.822286 
L 208.357143 342.822286 
L 208.357143 275.589714 
" clip-path="url(#p282f2ecc9c)" style="fill: #c2c3df"/>
    <path d="M 275.589714 275.589714 
L 342.822286 275.589714 
L 342.822286 342.822286 
L 275.589714 342.822286 
L 275.589714 275.589714 
" clip-path="url(#p282f2ecc9c)" style="fill: none"/>
    <path d="M 342.822286 275.589714 
L 410.054857 275.589714 
L 410.054857 342.822286 
L 342.822286 342.822286 
L 342.822286 275.589714 
" clip-path="url(#p282f2ecc9c)" style="fill: none"/>
    <path d="M 410.054857 275.589714 
L 477.287429 275.589714 
L 477.287429 342.822286 
L 410.054857 342.822286 
L 410.054857 275.589714 
" clip-path="url(#p282f2ecc9c)" style="fill: none"/>
    <path d="M 477.287429 275.589714 
L 544.52 275.589714 
L 544.52 342.822286 
L 477.287429 342.822286 
L 477.287429 275.589714 
" clip-path="url(#p282f2ecc9c)" style="fill: none"/>
    <path d="M 73.892 342.822286 
L 141.124571 342.822286 
L 141.124571 410.054857 
L 73.892 410.054857 
L 73.892 342.822286 
" clip-path="url(#p282f2ecc9c)" style="fill: #c0c1de"/>
    <path d="M 141.124571 342.822286 
L 208.357143 342.822286 
L 208.357143 410.054857 
L 141.124571 410.054857 
L 141.124571 342.822286 
" clip-path="url(#p282f2ecc9c)" style="fill: #e1e0ee"/>
    <path d="M 208.357143 342.822286 
L 275.589714 342.822286 
L 275.589714 410.054857 
L 208.357143 410.054857 
L 208.357143 342.822286 
" clip-path="url(#p282f2ecc9c)" style="fill: #e7e6f1"/>
    <path d="M 275.589714 342.822286 
L 342.822286 342.822286 
L 342.822286 410.054857 
L 275.589714 410.054857 
L 275.589714 342.822286 
" clip-path="url(#p282f2ecc9c)" style="fill: #a09dca"/>
    <path d="M 342.822286 342.822286 
L 410.054857 342.822286 
L 410.054857 410.054857 
L 342.822286 410.054857 
L 342.822286 342.822286 
" clip-path="url(#p282f2ecc9c)" style="fill: none"/>
    <path d="M 410.054857 342.822286 
L 477.287429 342.822286 
L 477.287429 410.054857 
L 410.054857 410.054857 
L 410.054857 342.822286 
" clip-path="url(#p282f2ecc9c)" style="fill: none"/>
    <path d="M 477.287429 342.822286 
L 544.52 342.822286 
L 544.52 410.054857 
L 477.287429 410.054857 
L 477.287429 342.822286 
" clip-path="url(#p282f2ecc9c)" style="fill: none"/>
    <path d="M 73.892 410.054857 
L 141.124571 410.054857 
L 141.124571 477.287429 
L 73.892 477.287429 
L 73.892 410.054857 
" clip-path="url(#p282f2ecc9c)" style="fill: #c4c5e0"/>
    <path d="M 141.124571 410.054857 
L 208.357143 410.054857 
L 208.357143 477.287429 
L 141.124571 477.287429 
L 141.124571 410.054857 
" clip-path="url(#p282f2ecc9c)" style="fill: #e8e7f2"/>
    <path d="M 208.357143 410.054857 
L 275.589714 410.054857 
L 275.589714 477.287429 
L 208.357143 477.287429 
L 208.357143 410.054857 
" clip-path="url(#p282f2ecc9c)" style="fill: #e3e2ef"/>
    <path d="M 275.589714 410.054857 
L 342.822286 410.054857 
L 342.822286 477.287429 
L 275.589714 477.287429 
L 275.589714 410.054857 
" clip-path="url(#p282f2ecc9c)" style="fill: #dfdfed"/>
    <path d="M 342.822286 410.054857 
L 410.054857 410.054857 
L 410.054857 477.287429 
L 342.822286 477.287429 
L 342.822286 410.054857 
" clip-path="url(#p282f2ecc9c)" style="fill: #e4e3f0"/>
    <path d="M 410.054857 410.054857 
L 477.287429 410.054857 
L 477.287429 477.287429 
L 410.054857 477.287429 
L 410.054857 410.054857 
" clip-path="url(#p282f2ecc9c)" style="fill: none"/>
    <path d="M 477.287429 410.054857 
L 544.52 410.054857 
L 544.52 477.287429 
L 477.287429 477.287429 
L 477.287429 410.054857 
" clip-path="url(#p282f2ecc9c)" style="fill: none"/>
    <path d="M 73.892 477.287429 
L 141.124571 477.287429 
L 141.124571 544.52 
L 73.892 544.52 
L 73.892 477.287429 
" clip-path="url(#p282f2ecc9c)" style="fill: #cfd0e6"/>
    <path d="M 141.124571 477.287429 
L 208.357143 477.287429 
L 208.357143 544.52 
L 141.124571 544.52 
L 141.124571 477.287429 
" clip-path="url(#p282f2ecc9c)" style="fill: #e9e8f2"/>
    <path d="M 208.357143 477.287429 
L 275.589714 477.287429 
L 275.589714 544.52 
L 208.357143 544.52 
L 208.357143 477.287429 
" clip-path="url(#p282f2ecc9c)" style="fill: #f0eef6"/>
    <path d="M 275.589714 477.287429 
L 342.822286 477.287429 
L 342.822286 544.52 
L 275.589714 544.52 
L 275.589714 477.287429 
" clip-path="url(#p282f2ecc9c)" style="fill: #e8e7f2"/>
    <path d="M 342.822286 477.287429 
L 410.054857 477.287429 
L 410.054857 544.52 
L 342.822286 544.52 
L 342.822286 477.287429 
" clip-path="url(#p282f2ecc9c)" style="fill: #e8e7f2"/>
    <path d="M 410.054857 477.287429 
L 477.287429 477.287429 
L 477.287429 544.52 
L 410.054857 544.52 
L 410.054857 477.287429 
" clip-path="url(#p282f2ecc9c)" style="fill: #9591c4"/>
    <path d="M 477.287429 477.287429 
L 544.52 477.287429 
L 544.52 544.52 
L 477.287429 544.52 
L 477.287429 477.287429 
" clip-path="url(#p282f2ecc9c)" style="fill: none"/>
   </g>
   <g id="QuadMesh_4">
    <path d="M 73.892 73.892 
L 141.124571 73.892 
L 141.124571 141.124571 
L 73.892 141.124571 
L 73.892 73.892 
" clip-path="url(#p282f2ecc9c)"/>
    <path d="M 141.124571 73.892 
L 208.357143 73.892 
L 208.357143 141.124571 
L 141.124571 141.124571 
L 141.124571 73.892 
" clip-path="url(#p282f2ecc9c)" style="fill: none"/>
    <path d="M 208.357143 73.892 
L 275.589714 73.892 
L 275.589714 141.124571 
L 208.357143 141.124571 
L 208.357143 73.892 
" clip-path="url(#p282f2ecc9c)" style="fill: none"/>
    <path d="M 275.589714 73.892 
L 342.822286 73.892 
L 342.822286 141.124571 
L 275.589714 141.124571 
L 275.589714 73.892 
" clip-path="url(#p282f2ecc9c)" style="fill: none"/>
    <path d="M 342.822286 73.892 
L 410.054857 73.892 
L 410.054857 141.124571 
L 342.822286 141.124571 
L 342.822286 73.892 
" clip-path="url(#p282f2ecc9c)" style="fill: none"/>
    <path d="M 410.054857 73.892 
L 477.287429 73.892 
L 477.287429 141.124571 
L 410.054857 141.124571 
L 410.054857 73.892 
" clip-path="url(#p282f2ecc9c)" style="fill: none"/>
    <path d="M 477.287429 73.892 
L 544.52 73.892 
L 544.52 141.124571 
L 477.287429 141.124571 
L 477.287429 73.892 
" clip-path="url(#p282f2ecc9c)" style="fill: none"/>
    <path d="M 73.892 141.124571 
L 141.124571 141.124571 
L 141.124571 208.357143 
L 73.892 208.357143 
L 73.892 141.124571 
" clip-path="url(#p282f2ecc9c)" style="fill: none"/>
    <path d="M 141.124571 141.124571 
L 208.357143 141.124571 
L 208.357143 208.357143 
L 141.124571 208.357143 
L 141.124571 141.124571 
" clip-path="url(#p282f2ecc9c)"/>
    <path d="M 208.357143 141.124571 
L 275.589714 141.124571 
L 275.589714 208.357143 
L 208.357143 208.357143 
L 208.357143 141.124571 
" clip-path="url(#p282f2ecc9c)" style="fill: none"/>
    <path d="M 275.589714 141.124571 
L 342.822286 141.124571 
L 342.822286 208.357143 
L 275.589714 208.357143 
L 275.589714 141.124571 
" clip-path="url(#p282f2ecc9c)" style="fill: none"/>
    <path d="M 342.822286 141.124571 
L 410.054857 141.124571 
L 410.054857 208.357143 
L 342.822286 208.357143 
L 342.822286 141.124571 
" clip-path="url(#p282f2ecc9c)" style="fill: none"/>
    <path d="M 410.054857 141.124571 
L 477.287429 141.124571 
L 477.287429 208.357143 
L 410.054857 208.357143 
L 410.054857 141.124571 
" clip-path="url(#p282f2ecc9c)" style="fill: none"/>
    <path d="M 477.287429 141.124571 
L 544.52 141.124571 
L 544.52 208.357143 
L 477.287429 208.357143 
L 477.287429 141.124571 
" clip-path="url(#p282f2ecc9c)" style="fill: none"/>
    <path d="M 73.892 208.357143 
L 141.124571 208.357143 
L 141.124571 275.589714 
L 73.892 275.589714 
L 73.892 208.357143 
" clip-path="url(#p282f2ecc9c)" style="fill: none"/>
    <path d="M 141.124571 208.357143 
L 208.357143 208.357143 
L 208.357143 275.589714 
L 141.124571 275.589714 
L 141.124571 208.357143 
" clip-path="url(#p282f2ecc9c)" style="fill: none"/>
    <path d="M 208.357143 208.357143 
L 275.589714 208.357143 
L 275.589714 275.589714 
L 208.357143 275.589714 
L 208.357143 208.357143 
" clip-path="url(#p282f2ecc9c)"/>
    <path d="M 275.589714 208.357143 
L 342.822286 208.357143 
L 342.822286 275.589714 
L 275.589714 275.589714 
L 275.589714 208.357143 
" clip-path="url(#p282f2ecc9c)" style="fill: none"/>
    <path d="M 342.822286 208.357143 
L 410.054857 208.357143 
L 410.054857 275.589714 
L 342.822286 275.589714 
L 342.822286 208.357143 
" clip-path="url(#p282f2ecc9c)" style="fill: none"/>
    <path d="M 410.054857 208.357143 
L 477.287429 208.357143 
L 477.287429 275.589714 
L 410.054857 275.589714 
L 410.054857 208.357143 
" clip-path="url(#p282f2ecc9c)" style="fill: none"/>
    <path d="M 477.287429 208.357143 
L 544.52 208.357143 
L 544.52 275.589714 
L 477.287429 275.589714 
L 477.287429 208.357143 
" clip-path="url(#p282f2ecc9c)" style="fill: none"/>
    <path d="M 73.892 275.589714 
L 141.124571 275.589714 
L 141.124571 342.822286 
L 73.892 342.822286 
L 73.892 275.589714 
" clip-path="url(#p282f2ecc9c)" style="fill: none"/>
    <path d="M 141.124571 275.589714 
L 208.357143 275.589714 
L 208.357143 342.822286 
L 141.124571 342.822286 
L 141.124571 275.589714 
" clip-path="url(#p282f2ecc9c)" style="fill: none"/>
    <path d="M 208.357143 275.589714 
L 275.589714 275.589714 
L 275.589714 342.822286 
L 208.357143 342.822286 
L 208.357143 275.589714 
" clip-path="url(#p282f2ecc9c)" style="fill: none"/>
    <path d="M 275.589714 275.589714 
L 342.822286 275.589714 
L 342.822286 342.822286 
L 275.589714 342.822286 
L 275.589714 275.589714 
" clip-path="url(#p282f2ecc9c)"/>
    <path d="M 342.822286 275.589714 
L 410.054857 275.589714 
L 410.054857 342.822286 
L 342.822286 342.822286 
L 342.822286 275.589714 
" clip-path="url(#p282f2ecc9c)" style="fill: none"/>
    <path d="M 410.054857 275.589714 
L 477.287429 275.589714 
L 477.287429 342.822286 
L 410.054857 342.822286 
L 410.054857 275.589714 
" clip-path="url(#p282f2ecc9c)" style="fill: none"/>
    <path d="M 477.287429 275.589714 
L 544.52 275.589714 
L 544.52 342.822286 
L 477.287429 342.822286 
L 477.287429 275.589714 
" clip-path="url(#p282f2ecc9c)" style="fill: none"/>
    <path d="M 73.892 342.822286 
L 141.124571 342.822286 
L 141.124571 410.054857 
L 73.892 410.054857 
L 73.892 342.822286 
" clip-path="url(#p282f2ecc9c)" style="fill: none"/>
    <path d="M 141.124571 342.822286 
L 208.357143 342.822286 
L 208.357143 410.054857 
L 141.124571 410.054857 
L 141.124571 342.822286 
" clip-path="url(#p282f2ecc9c)" style="fill: none"/>
    <path d="M 208.357143 342.822286 
L 275.589714 342.822286 
L 275.589714 410.054857 
L 208.357143 410.054857 
L 208.357143 342.822286 
" clip-path="url(#p282f2ecc9c)" style="fill: none"/>
    <path d="M 275.589714 342.822286 
L 342.822286 342.822286 
L 342.822286 410.054857 
L 275.589714 410.054857 
L 275.589714 342.822286 
" clip-path="url(#p282f2ecc9c)" style="fill: none"/>
    <path d="M 342.822286 342.822286 
L 410.054857 342.822286 
L 410.054857 410.054857 
L 342.822286 410.054857 
L 342.822286 342.822286 
" clip-path="url(#p282f2ecc9c)"/>
    <path d="M 410.054857 342.822286 
L 477.287429 342.822286 
L 477.287429 410.054857 
L 410.054857 410.054857 
L 410.054857 342.822286 
" clip-path="url(#p282f2ecc9c)" style="fill: none"/>
    <path d="M 477.287429 342.822286 
L 544.52 342.822286 
L 544.52 410.054857 
L 477.287429 410.054857 
L 477.287429 342.822286 
" clip-path="url(#p282f2ecc9c)" style="fill: none"/>
    <path d="M 73.892 410.054857 
L 141.124571 410.054857 
L 141.124571 477.287429 
L 73.892 477.287429 
L 73.892 410.054857 
" clip-path="url(#p282f2ecc9c)" style="fill: none"/>
    <path d="M 141.124571 410.054857 
L 208.357143 410.054857 
L 208.357143 477.287429 
L 141.124571 477.287429 
L 141.124571 410.054857 
" clip-path="url(#p282f2ecc9c)" style="fill: none"/>
    <path d="M 208.357143 410.054857 
L 275.589714 410.054857 
L 275.589714 477.287429 
L 208.357143 477.287429 
L 208.357143 410.054857 
" clip-path="url(#p282f2ecc9c)" style="fill: none"/>
    <path d="M 275.589714 410.054857 
L 342.822286 410.054857 
L 342.822286 477.287429 
L 275.589714 477.287429 
L 275.589714 410.054857 
" clip-path="url(#p282f2ecc9c)" style="fill: none"/>
    <path d="M 342.822286 410.054857 
L 410.054857 410.054857 
L 410.054857 477.287429 
L 342.822286 477.287429 
L 342.822286 410.054857 
" clip-path="url(#p282f2ecc9c)" style="fill: none"/>
    <path d="M 410.054857 410.054857 
L 477.287429 410.054857 
L 477.287429 477.287429 
L 410.054857 477.287429 
L 410.054857 410.054857 
" clip-path="url(#p282f2ecc9c)"/>
    <path d="M 477.287429 410.054857 
L 544.52 410.054857 
L 544.52 477.287429 
L 477.287429 477.287429 
L 477.287429 410.054857 
" clip-path="url(#p282f2ecc9c)" style="fill: none"/>
    <path d="M 73.892 477.287429 
L 141.124571 477.287429 
L 141.124571 544.52 
L 73.892 544.52 
L 73.892 477.287429 
" clip-path="url(#p282f2ecc9c)" style="fill: none"/>
    <path d="M 141.124571 477.287429 
L 208.357143 477.287429 
L 208.357143 544.52 
L 141.124571 544.52 
L 141.124571 477.287429 
" clip-path="url(#p282f2ecc9c)" style="fill: none"/>
    <path d="M 208.357143 477.287429 
L 275.589714 477.287429 
L 275.589714 544.52 
L 208.357143 544.52 
L 208.357143 477.287429 
" clip-path="url(#p282f2ecc9c)" style="fill: none"/>
    <path d="M 275.589714 477.287429 
L 342.822286 477.287429 
L 342.822286 544.52 
L 275.589714 544.52 
L 275.589714 477.287429 
" clip-path="url(#p282f2ecc9c)" style="fill: none"/>
    <path d="M 342.822286 477.287429 
L 410.054857 477.287429 
L 410.054857 544.52 
L 342.822286 544.52 
L 342.822286 477.287429 
" clip-path="url(#p282f2ecc9c)" style="fill: none"/>
    <path d="M 410.054857 477.287429 
L 477.287429 477.287429 
L 477.287429 544.52 
L 410.054857 544.52 
L 410.054857 477.287429 
" clip-path="url(#p282f2ecc9c)" style="fill: none"/>
    <path d="M 477.287429 477.287429 
L 544.52 477.287429 
L 544.52 544.52 
L 477.287429 544.52 
L 477.287429 477.287429 
" clip-path="url(#p282f2ecc9c)"/>
   </g>
   <g id="matplotlib.axis_1">
    <g id="xtick_1">
     <g id="line2d_1">
      <defs>
       <path id="m792f101f56" d="M 0 0 
L 0 3.5 
" style="stroke: #000000; stroke-width: 0.8"/>
      </defs>
      <g>
       <use xlink:href="#m792f101f56" x="107.508286" y="544.52" style="stroke: #000000; stroke-width: 0.8"/>
      </g>
     </g>
     <g id="text_1">
      <text style="font: 14px 'Arial', 'Helvetica', 'DejaVu Sans', sans-serif; text-anchor: middle" x="107.508286" y="562.157813" transform="rotate(-0 107.508286 562.157813)">PIK3R3</text>
     </g>
    </g>
    <g id="xtick_2">
     <g id="line2d_2">
      <g>
       <use xlink:href="#m792f101f56" x="174.740857" y="544.52" style="stroke: #000000; stroke-width: 0.8"/>
      </g>
     </g>
     <g id="text_2">
      <text style="font: 14px 'Arial', 'Helvetica', 'DejaVu Sans', sans-serif; text-anchor: middle" x="174.740857" y="562.157813" transform="rotate(-0 174.740857 562.157813)">INSYN1</text>
     </g>
    </g>
    <g id="xtick_3">
     <g id="line2d_3">
      <g>
       <use xlink:href="#m792f101f56" x="241.973429" y="544.52" style="stroke: #000000; stroke-width: 0.8"/>
      </g>
     </g>
     <g id="text_3">
      <text style="font: 14px 'Arial', 'Helvetica', 'DejaVu Sans', sans-serif; text-anchor: middle" x="241.973429" y="562.157813" transform="rotate(-0 241.973429 562.157813)">ZFP36L1</text>
     </g>
    </g>
    <g id="xtick_4">
     <g id="line2d_4">
      <g>
       <use xlink:href="#m792f101f56" x="309.206" y="544.52" style="stroke: #000000; stroke-width: 0.8"/>
      </g>
     </g>
     <g id="text_4">
      <text style="font: 14px 'Arial', 'Helvetica', 'DejaVu Sans', sans-serif; text-anchor: middle" x="309.206" y="562.157813" transform="rotate(-0 309.206 562.157813)">HOXC8</text>
     </g>
    </g>
    <g id="xtick_5">
     <g id="line2d_5">
      <g>
       <use xlink:href="#m792f101f56" x="376.438571" y="544.52" style="stroke: #000000; stroke-width: 0.8"/>
      </g>
     </g>
     <g id="text_5">
      <text style="font: 14px 'Arial', 'Helvetica', 'DejaVu Sans', sans-serif; text-anchor: middle" x="376.438571" y="562.157813" transform="rotate(-0 376.438571 562.157813)">NRBP1</text>
     </g>
    </g>
    <g id="xtick_6">
     <g id="line2d_6">
      <g>
       <use xlink:href="#m792f101f56" x="443.671143" y="544.52" style="stroke: #000000; stroke-width: 0.8"/>
      </g>
     </g>
     <g id="text_6">
      <text style="font: 14px 'Arial', 'Helvetica', 'DejaVu Sans', sans-serif; text-anchor: middle" x="443.671143" y="562.157813" transform="rotate(-0 443.671143 562.157813)">RAB40C</text>
     </g>
    </g>
    <g id="xtick_7">
     <g id="line2d_7">
      <g>
       <use xlink:href="#m792f101f56" x="510.903714" y="544.52" style="stroke: #000000; stroke-width: 0.8"/>
      </g>
     </g>
     <g id="text_7">
      <text style="font: 14px 'Arial', 'Helvetica', 'DejaVu Sans', sans-serif; text-anchor: middle" x="510.903714" y="562.157813" transform="rotate(-0 510.903714 562.157813)">RAB40B</text>
     </g>
    </g>
   </g>
   <g id="matplotlib.axis_2">
    <g id="ytick_1">
     <g id="line2d_8">
      <defs>
       <path id="m2ac4bd8e7f" d="M 0 0 
L 3.5 0 
" style="stroke: #000000; stroke-width: 0.8"/>
      </defs>
      <g>
       <use xlink:href="#m2ac4bd8e7f" x="544.52" y="107.508286" style="stroke: #000000; stroke-width: 0.8"/>
      </g>
     </g>
     <g id="text_8">
      <text style="font: 14px 'Arial', 'Helvetica', 'DejaVu Sans', sans-serif" transform="translate(562.157813 132.155942) rotate(-90)">PIK3R3</text>
     </g>
    </g>
    <g id="ytick_2">
     <g id="line2d_9">
      <g>
       <use xlink:href="#m2ac4bd8e7f" x="544.52" y="174.740857" style="stroke: #000000; stroke-width: 0.8"/>
      </g>
     </g>
     <g id="text_9">
      <text style="font: 14px 'Arial', 'Helvetica', 'DejaVu Sans', sans-serif" transform="translate(562.157813 200.452732) rotate(-90)">INSYN1</text>
     </g>
    </g>
    <g id="ytick_3">
     <g id="line2d_10">
      <g>
       <use xlink:href="#m2ac4bd8e7f" x="544.52" y="241.973429" style="stroke: #000000; stroke-width: 0.8"/>
      </g>
     </g>
     <g id="text_10">
      <text style="font: 14px 'Arial', 'Helvetica', 'DejaVu Sans', sans-serif" transform="translate(562.157813 272.276866) rotate(-90)">ZFP36L1</text>
     </g>
    </g>
    <g id="ytick_4">
     <g id="line2d_11">
      <g>
       <use xlink:href="#m2ac4bd8e7f" x="544.52" y="309.206" style="stroke: #000000; stroke-width: 0.8"/>
      </g>
     </g>
     <g id="text_11">
      <text style="font: 14px 'Arial', 'Helvetica', 'DejaVu Sans', sans-serif" transform="translate(562.157813 333.1635) rotate(-90)">HOXC8</text>
     </g>
    </g>
    <g id="ytick_5">
     <g id="line2d_12">
      <g>
       <use xlink:href="#m2ac4bd8e7f" x="544.52" y="376.438571" style="stroke: #000000; stroke-width: 0.8"/>
      </g>
     </g>
     <g id="text_12">
      <text style="font: 14px 'Arial', 'Helvetica', 'DejaVu Sans', sans-serif" transform="translate(562.157813 400.01654) rotate(-90)">NRBP1</text>
     </g>
    </g>
    <g id="ytick_6">
     <g id="line2d_13">
      <g>
       <use xlink:href="#m2ac4bd8e7f" x="544.52" y="443.671143" style="stroke: #000000; stroke-width: 0.8"/>
      </g>
     </g>
     <g id="text_13">
      <text style="font: 14px 'Arial', 'Helvetica', 'DejaVu Sans', sans-serif" transform="translate(562.157813 471.641612) rotate(-90)">RAB40C</text>
     </g>
    </g>
    <g id="ytick_7">
     <g id="line2d_14">
      <g>
       <use xlink:href="#m2ac4bd8e7f" x="544.52" y="510.903714" style="stroke: #000000; stroke-width: 0.8"/>
      </g>
     </g>
     <g id="text_14">
      <text style="font: 14px 'Arial', 'Helvetica', 'DejaVu Sans', sans-serif" transform="translate(562.157813 538.788871) rotate(-90)">RAB40B</text>
     </g>
    </g>
   </g>
   <g id="text_15">
    <text style="fill: #ffffff; font: 20px 'Arial', 'Helvetica', 'DejaVu Sans', sans-serif; text-anchor: middle" x="174.740857" y="113.027036" transform="rotate(-0 174.740857 113.027036)">0.99</text>
   </g>
   <g id="text_16">
    <text style="fill: #ffffff; font: 20px 'Arial', 'Helvetica', 'DejaVu Sans', sans-serif; text-anchor: middle" x="241.973429" y="113.027036" transform="rotate(-0 241.973429 113.027036)">0.99</text>
   </g>
   <g id="text_17">
    <text style="fill: #ffffff; font: 20px 'Arial', 'Helvetica', 'DejaVu Sans', sans-serif; text-anchor: middle" x="309.206" y="113.027036" transform="rotate(-0 309.206 113.027036)">1.00</text>
   </g>
   <g id="text_18">
    <text style="fill: #ffffff; font: 20px 'Arial', 'Helvetica', 'DejaVu Sans', sans-serif; text-anchor: middle" x="376.438571" y="113.027036" transform="rotate(-0 376.438571 113.027036)">0.00</text>
   </g>
   <g id="text_19">
    <text style="fill: #ffffff; font: 20px 'Arial', 'Helvetica', 'DejaVu Sans', sans-serif; text-anchor: middle" x="443.671143" y="113.027036" transform="rotate(-0 443.671143 113.027036)">0.00</text>
   </g>
   <g id="text_20">
    <text style="fill: #ffffff; font: 20px 'Arial', 'Helvetica', 'DejaVu Sans', sans-serif; text-anchor: middle" x="510.903714" y="113.027036" transform="rotate(-0 510.903714 113.027036)">0.00</text>
   </g>
   <g id="text_21">
    <text style="fill: #ffffff; font: 20px 'Arial', 'Helvetica', 'DejaVu Sans', sans-serif; text-anchor: middle" x="241.973429" y="180.259607" transform="rotate(-0 241.973429 180.259607)">1.00</text>
   </g>
   <g id="text_22">
    <text style="fill: #ffffff; font: 20px 'Arial', 'Helvetica', 'DejaVu Sans', sans-serif; text-anchor: middle" x="309.206" y="180.259607" transform="rotate(-0 309.206 180.259607)">0.99</text>
   </g>
   <g id="text_23">
    <text style="fill: #ffffff; font: 20px 'Arial', 'Helvetica', 'DejaVu Sans', sans-serif; text-anchor: middle" x="376.438571" y="180.259607" transform="rotate(-0 376.438571 180.259607)">0.00</text>
   </g>
   <g id="text_24">
    <text style="fill: #ffffff; font: 20px 'Arial', 'Helvetica', 'DejaVu Sans', sans-serif; text-anchor: middle" x="443.671143" y="180.259607" transform="rotate(-0 443.671143 180.259607)">0.00</text>
   </g>
   <g id="text_25">
    <text style="fill: #ffffff; font: 20px 'Arial', 'Helvetica', 'DejaVu Sans', sans-serif; text-anchor: middle" x="510.903714" y="180.259607" transform="rotate(-0 510.903714 180.259607)">0.00</text>
   </g>
   <g id="text_26">
    <text style="fill: #ffffff; font: 20px 'Arial', 'Helvetica', 'DejaVu Sans', sans-serif; text-anchor: middle" x="309.206" y="247.492179" transform="rotate(-0 309.206 247.492179)">1.00</text>
   </g>
   <g id="text_27">
    <text style="fill: #ffffff; font: 20px 'Arial', 'Helvetica', 'DejaVu Sans', sans-serif; text-anchor: middle" x="376.438571" y="247.492179" transform="rotate(-0 376.438571 247.492179)">0.00</text>
   </g>
   <g id="text_28">
    <text style="fill: #ffffff; font: 20px 'Arial', 'Helvetica', 'DejaVu Sans', sans-serif; text-anchor: middle" x="443.671143" y="247.492179" transform="rotate(-0 443.671143 247.492179)">0.00</text>
   </g>
   <g id="text_29">
    <text style="fill: #ffffff; font: 20px 'Arial', 'Helvetica', 'DejaVu Sans', sans-serif; text-anchor: middle" x="510.903714" y="247.492179" transform="rotate(-0 510.903714 247.492179)">0.00</text>
   </g>
   <g id="text_30">
    <text style="fill: #ffffff; font: 20px 'Arial', 'Helvetica', 'DejaVu Sans', sans-serif; text-anchor: middle" x="376.438571" y="314.72475" transform="rotate(-0 376.438571 314.72475)">0.00</text>
   </g>
   <g id="text_31">
    <text style="fill: #ffffff; font: 20px 'Arial', 'Helvetica', 'DejaVu Sans', sans-serif; text-anchor: middle" x="443.671143" y="314.72475" transform="rotate(-0 443.671143 314.72475)">0.01</text>
   </g>
   <g id="text_32">
    <text style="fill: #ffffff; font: 20px 'Arial', 'Helvetica', 'DejaVu Sans', sans-serif; text-anchor: middle" x="510.903714" y="314.72475" transform="rotate(-0 510.903714 314.72475)">0.00</text>
   </g>
   <g id="text_33">
    <text style="fill: #ffffff; font: 20px 'Arial', 'Helvetica', 'DejaVu Sans', sans-serif; text-anchor: middle" x="443.671143" y="381.957321" transform="rotate(-0 443.671143 381.957321)">1.00</text>
   </g>
   <g id="text_34">
    <text style="fill: #ffffff; font: 20px 'Arial', 'Helvetica', 'DejaVu Sans', sans-serif; text-anchor: middle" x="510.903714" y="381.957321" transform="rotate(-0 510.903714 381.957321)">1.00</text>
   </g>
   <g id="text_35">
    <text style="fill: #ffffff; font: 20px 'Arial', 'Helvetica', 'DejaVu Sans', sans-serif; text-anchor: middle" x="510.903714" y="449.189893" transform="rotate(-0 510.903714 449.189893)">1.00</text>
   </g>
   <g id="text_36">
    <text style="fill: #262626; font: 20px 'Arial', 'Helvetica', 'DejaVu Sans', sans-serif; text-anchor: middle" x="107.508286" y="180.259607" transform="rotate(-0 107.508286 180.259607)">0.17</text>
   </g>
   <g id="text_37">
    <text style="fill: #262626; font: 20px 'Arial', 'Helvetica', 'DejaVu Sans', sans-serif; text-anchor: middle" x="107.508286" y="247.492179" transform="rotate(-0 107.508286 247.492179)">0.28</text>
   </g>
   <g id="text_38">
    <text style="fill: #262626; font: 20px 'Arial', 'Helvetica', 'DejaVu Sans', sans-serif; text-anchor: middle" x="174.740857" y="247.492179" transform="rotate(-0 174.740857 247.492179)">0.14</text>
   </g>
   <g id="text_39">
    <text style="fill: #262626; font: 20px 'Arial', 'Helvetica', 'DejaVu Sans', sans-serif; text-anchor: middle" x="107.508286" y="314.72475" transform="rotate(-0 107.508286 314.72475)">0.30</text>
   </g>
   <g id="text_40">
    <text style="fill: #262626; font: 20px 'Arial', 'Helvetica', 'DejaVu Sans', sans-serif; text-anchor: middle" x="174.740857" y="314.72475" transform="rotate(-0 174.740857 314.72475)">0.27</text>
   </g>
   <g id="text_41">
    <text style="fill: #262626; font: 20px 'Arial', 'Helvetica', 'DejaVu Sans', sans-serif; text-anchor: middle" x="241.973429" y="314.72475" transform="rotate(-0 241.973429 314.72475)">0.35</text>
   </g>
   <g id="text_42">
    <text style="fill: #262626; font: 20px 'Arial', 'Helvetica', 'DejaVu Sans', sans-serif; text-anchor: middle" x="107.508286" y="381.957321" transform="rotate(-0 107.508286 381.957321)">0.36</text>
   </g>
   <g id="text_43">
    <text style="fill: #262626; font: 20px 'Arial', 'Helvetica', 'DejaVu Sans', sans-serif; text-anchor: middle" x="174.740857" y="381.957321" transform="rotate(-0 174.740857 381.957321)">0.21</text>
   </g>
   <g id="text_44">
    <text style="fill: #262626; font: 20px 'Arial', 'Helvetica', 'DejaVu Sans', sans-serif; text-anchor: middle" x="241.973429" y="381.957321" transform="rotate(-0 241.973429 381.957321)">0.17</text>
   </g>
   <g id="text_45">
    <text style="fill: #ffffff; font: 20px 'Arial', 'Helvetica', 'DejaVu Sans', sans-serif; text-anchor: middle" x="309.206" y="381.957321" transform="rotate(-0 309.206 381.957321)">0.49</text>
   </g>
   <g id="text_46">
    <text style="fill: #262626; font: 20px 'Arial', 'Helvetica', 'DejaVu Sans', sans-serif; text-anchor: middle" x="107.508286" y="449.189893" transform="rotate(-0 107.508286 449.189893)">0.34</text>
   </g>
   <g id="text_47">
    <text style="fill: #262626; font: 20px 'Arial', 'Helvetica', 'DejaVu Sans', sans-serif; text-anchor: middle" x="174.740857" y="449.189893" transform="rotate(-0 174.740857 449.189893)">0.17</text>
   </g>
   <g id="text_48">
    <text style="fill: #262626; font: 20px 'Arial', 'Helvetica', 'DejaVu Sans', sans-serif; text-anchor: middle" x="241.973429" y="449.189893" transform="rotate(-0 241.973429 449.189893)">0.20</text>
   </g>
   <g id="text_49">
    <text style="fill: #262626; font: 20px 'Arial', 'Helvetica', 'DejaVu Sans', sans-serif; text-anchor: middle" x="309.206" y="449.189893" transform="rotate(-0 309.206 449.189893)">0.22</text>
   </g>
   <g id="text_50">
    <text style="fill: #262626; font: 20px 'Arial', 'Helvetica', 'DejaVu Sans', sans-serif; text-anchor: middle" x="376.438571" y="449.189893" transform="rotate(-0 376.438571 449.189893)">0.20</text>
   </g>
   <g id="text_51">
    <text style="fill: #262626; font: 20px 'Arial', 'Helvetica', 'DejaVu Sans', sans-serif; text-anchor: middle" x="107.508286" y="516.422464" transform="rotate(-0 107.508286 516.422464)">0.29</text>
   </g>
   <g id="text_52">
    <text style="fill: #262626; font: 20px 'Arial', 'Helvetica', 'DejaVu Sans', sans-serif; text-anchor: middle" x="174.740857" y="516.422464" transform="rotate(-0 174.740857 516.422464)">0.16</text>
   </g>
   <g id="text_53">
    <text style="fill: #262626; font: 20px 'Arial', 'Helvetica', 'DejaVu Sans', sans-serif; text-anchor: middle" x="241.973429" y="516.422464" transform="rotate(-0 241.973429 516.422464)">0.12</text>
   </g>
   <g id="text_54">
    <text style="fill: #262626; font: 20px 'Arial', 'Helvetica', 'DejaVu Sans', sans-serif; text-anchor: middle" x="309.206" y="516.422464" transform="rotate(-0 309.206 516.422464)">0.17</text>
   </g>
   <g id="text_55">
    <text style="fill: #262626; font: 20px 'Arial', 'Helvetica', 'DejaVu Sans', sans-serif; text-anchor: middle" x="376.438571" y="516.422464" transform="rotate(-0 376.438571 516.422464)">0.17</text>
   </g>
   <g id="text_56">
    <text style="fill: #ffffff; font: 20px 'Arial', 'Helvetica', 'DejaVu Sans', sans-serif; text-anchor: middle" x="443.671143" y="516.422464" transform="rotate(-0 443.671143 516.422464)">0.54</text>
   </g>
   <g id="text_57">
    <text style="fill: #ffffff; font: 20px 'Arial', 'Helvetica', 'DejaVu Sans', sans-serif; text-anchor: middle" x="107.508286" y="113.027036" transform="rotate(-0 107.508286 113.027036)">1</text>
   </g>
   <g id="text_58">
    <text style="fill: #ffffff; font: 20px 'Arial', 'Helvetica', 'DejaVu Sans', sans-serif; text-anchor: middle" x="174.740857" y="180.259607" transform="rotate(-0 174.740857 180.259607)">1</text>
   </g>
   <g id="text_59">
    <text style="fill: #ffffff; font: 20px 'Arial', 'Helvetica', 'DejaVu Sans', sans-serif; text-anchor: middle" x="241.973429" y="247.492179" transform="rotate(-0 241.973429 247.492179)">1</text>
   </g>
   <g id="text_60">
    <text style="fill: #ffffff; font: 20px 'Arial', 'Helvetica', 'DejaVu Sans', sans-serif; text-anchor: middle" x="309.206" y="314.72475" transform="rotate(-0 309.206 314.72475)">1</text>
   </g>
   <g id="text_61">
    <text style="fill: #ffffff; font: 20px 'Arial', 'Helvetica', 'DejaVu Sans', sans-serif; text-anchor: middle" x="376.438571" y="381.957321" transform="rotate(-0 376.438571 381.957321)">1</text>
   </g>
   <g id="text_62">
    <text style="fill: #ffffff; font: 20px 'Arial', 'Helvetica', 'DejaVu Sans', sans-serif; text-anchor: middle" x="443.671143" y="449.189893" transform="rotate(-0 443.671143 449.189893)">1</text>
   </g>
   <g id="text_63">
    <text style="fill: #ffffff; font: 20px 'Arial', 'Helvetica', 'DejaVu Sans', sans-serif; text-anchor: middle" x="510.903714" y="516.422464" transform="rotate(-0 510.903714 516.422464)">1</text>
   </g>
  </g>
 </g>
 <defs>
  <clipPath id="p0f223f9f8d">
   <rect x="10.8" y="73.892" width="52.292" height="470.628"/>
  </clipPath>
  <clipPath id="p5f01051050">
   <rect x="73.892" y="10.8" width="470.628" height="52.292"/>
  </clipPath>
  <clipPath id="p282f2ecc9c">
   <rect x="73.892" y="73.892" width="470.628" height="470.628"/>
  </clipPath>
 </defs>
</svg>
